<svg xmlns="http://www.w3.org/2000/svg" width="838" height="266" viewBox="0 0 838 266">
  <g id="Anatomy:Accordion_Multiple_Button" data-name="Anatomy:Accordion Multiple Button" transform="translate(-261 -3161)">
    <rect id="Rectangle_19485" data-name="Rectangle 19485" width="214" height="16" transform="translate(1048 3189) rotate(90)" fill="#0157dc" opacity="0.07" style="mix-blend-mode: multiply;isolation: isolate"/>
    <rect id="Rectangle_19486" data-name="Rectangle 19486" width="115" height="24" transform="translate(991 3189) rotate(90)" fill="#0157dc" opacity="0.07" style="mix-blend-mode: multiply;isolation: isolate"/>
    <rect id="Rectangle_19487" data-name="Rectangle 19487" width="214" height="24" transform="translate(1028 3189) rotate(90)" fill="#0157dc" opacity="0.07" style="mix-blend-mode: multiply;isolation: isolate"/>
    <rect id="Rectangle_19488" data-name="Rectangle 19488" width="115" height="24" transform="translate(949 3189) rotate(90)" fill="#0157dc" opacity="0.07" style="mix-blend-mode: multiply;isolation: isolate"/>
    <text id="_16px" data-name="16px" transform="translate(1041 3177)" fill="#489ef9" font-size="16" font-family="HCLTech Roobert" font-weight="600"><tspan x="-16" y="0">16px</tspan></text>
    <text id="_24px" data-name="24px" transform="translate(938 3177)" fill="#489ef9" font-size="16" font-family="HCLTech Roobert" font-weight="600"><tspan x="-18" y="0">24px</tspan></text>
    <text id="_24px-2" data-name="24px" transform="translate(980 3177)" fill="#489ef9" font-size="16" font-family="HCLTech Roobert" font-weight="600"><tspan x="-18" y="0">24px</tspan></text>
    <text id="_24px-3" data-name="24px" transform="translate(1016 3423)" fill="#489ef9" font-size="16" font-family="HCLTech Roobert" font-weight="600"><tspan x="-18" y="0">24px</tspan></text>
    <path id="Path_36437" data-name="Path 36437" d="M-9715,20454.064h16" transform="translate(-8666 23639.064) rotate(180)" fill="none" stroke="#3c91ff" stroke-width="1"/>
    <path id="Path_36438" data-name="Path 36438" d="M-9715,20454.064h24" transform="translate(-8765 23639.064) rotate(180)" fill="none" stroke="#3c91ff" stroke-width="1"/>
    <path id="Path_36447" data-name="Path 36447" d="M-9715,20454.064h24" transform="translate(-8723 23639.064) rotate(180)" fill="none" stroke="#3c91ff" stroke-width="1"/>
    <path id="Path_36440" data-name="Path 36440" d="M-9715,20454.064h24" transform="translate(-8687 23859.064) rotate(180)" fill="none" stroke="#3c91ff" stroke-width="1"/>
    <g id="Group_37465" data-name="Group 37465" transform="translate(59.8 56)">
      <g id="Group_37463" data-name="Group 37463" transform="translate(931.25 3212.625)">
        <path id="Rectangle_7762_-_Outline" data-name="Rectangle 7762 - Outline" d="M-.125-.125H12.807V1.108H-.125Z" transform="translate(0.136 16.768)" fill="#5f1ebe"/>
        <path id="Path_22822_-_Outline" data-name="Path 22822 - Outline" d="M6,18.52a.627.627,0,0,1-.324-.089.579.579,0,0,1-.286-.535l.237-3.639a.542.542,0,0,1,.082-.352.267.267,0,0,1,.053-.059l.006-.006L13.22,2.893a.9.9,0,0,1,.552-.367.943.943,0,0,1,.653.094L17.277,4.2a.847.847,0,0,1,.412.508.8.8,0,0,1-.115.675L10.088,16.36a.6.6,0,0,1-.216.192L6.3,18.447A.635.635,0,0,1,6,18.52Zm.789-3.3L6.682,16.9l1.566-.83ZM7.1,14.031l2.23,1.3,5.657-8.3-2.236-1.3ZM13.42,4.745l2.238,1.3.688-1.008L14.075,3.783Z" transform="translate(-5.517 -2.63)" fill="#5f1ebe"/>
      </g>
      <path id="Union_2" data-name="Union 2" d="M-3144.28,2783a.707.707,0,0,1-.719-.693.707.707,0,0,1,.719-.692h15.637a.707.707,0,0,1,.719.692.707.707,0,0,1-.719.693Zm7.816-3.4a.687.687,0,0,1-.4-.127l-.15-.14-2.99-3.365a.691.691,0,0,1-.174-.5.681.681,0,0,1,.232-.476.689.689,0,0,1,.459-.175.694.694,0,0,1,.517.233l1.811,2.038v-11.4a.693.693,0,0,1,.692-.692.693.693,0,0,1,.693.692v11.4l1.811-2.038a.688.688,0,0,1,.518-.233.689.689,0,0,1,.46.175.686.686,0,0,1,.231.479.684.684,0,0,1-.174.5l-3.02,3.4a.686.686,0,0,1-.519.235Z" transform="translate(4034 447.5)" fill="#5f1ebe"/>
      <g id="Group_37464" data-name="Group 37464" transform="translate(972.25 3212.5) rotate(90)">
        <circle id="Ellipse_3025" data-name="Ellipse 3025" cx="2" cy="2" r="2" transform="translate(14.001 0)" fill="#5f1ebe"/>
        <circle id="Ellipse_3026" data-name="Ellipse 3026" cx="2" cy="2" r="2" transform="translate(7.001 0)" fill="#5f1ebe"/>
        <circle id="Ellipse_3027" data-name="Ellipse 3027" cx="2" cy="2" r="2" transform="translate(0.001 0)" fill="#5f1ebe"/>
      </g>
      <g id="Group_37462" data-name="Group 37462" transform="translate(847.25 3212.75)">
        <path id="Path_23062_-_Outline" data-name="Path 23062 - Outline" d="M352.961,469.668H340.649a.724.724,0,0,1-.711-.733V454.7h1.423v13.508h10.891V454.7h1.419v14.238a.721.721,0,0,1-.708.73Z" transform="translate(-337.744 -451.918)" fill="#5f1ebe"/>
        <path id="Path_23063_-_Outline" data-name="Path 23063 - Outline" d="M354.7,455.1H338.154a.73.73,0,0,1,0-1.459h5.271v-2.06h6.92v2.06H354.7a.73.73,0,0,1,0,1.459Zm-9.867-1.573h4.109v-.486h-4.109Z" transform="translate(-337.676 -451.834)" fill="#5f1ebe"/>
        <path id="Path_23064_-_Outline" data-name="Path 23064 - Outline" d="M345.265,466.6a.731.731,0,0,1-.73-.73v-8.757a.73.73,0,0,1,1.459,0v8.757A.731.731,0,0,1,345.265,466.6Z" transform="translate(-337.889 -451.964)" fill="#5f1ebe"/>
        <path id="Path_23065_-_Outline" data-name="Path 23065 - Outline" d="M349.047,466.6a.731.731,0,0,1-.73-.73v-8.757a.73.73,0,0,1,1.459,0v8.757A.731.731,0,0,1,349.047,466.6Z" transform="translate(-338.003 -451.964)" fill="#5f1ebe"/>
      </g>
    </g>
    <text id="Accordion_Item_1" data-name="Accordion Item #1" transform="translate(338 3232)" fill="#14142b" font-size="16" font-family="HCLTech Roobert"><tspan x="0" y="0">Accordion Item #1</tspan></text>
    <text id="Accordion_Item_2" data-name="Accordion Item #2" transform="translate(338 3284)" fill="#5f1ebe" font-size="16" font-family="HCLTechRoobert-Medium, HCLTech Roobert" font-weight="500"><tspan x="0" y="0">Accordion Item #2</tspan></text>
    <text id="Lorem_ipsum_dolor_sit_amet_consetetur_sadipscing_elitr_sed_diam_nonumy_eirmod_tempor_invidunt_ut_labore_et_dolore_magna_aliquyam_erat_sed_diam_voluptua._At_vero_eos_et_accusam_et_justo_duo_dolores_et_ea_rebum._Stet_clita_kasd_gubergren_no_sea_takimata_" data-name="Lorem ipsum dolor sit amet, consetetur sadipscing elitr, sed diam nonumy eirmod tempor invidunt ut labore et dolore magna aliquyam erat, sed diam voluptua. At vero eos et accusam et justo duo dolores et ea rebum. Stet clita kasd gubergren, no sea takimata " transform="translate(338 3320)" font-size="14" font-family="HCLTech Roobert"><tspan x="0" y="14">Lorem ipsum dolor sit amet, consetetur sadipscing elitr, sed diam nonumy eirmod tempor invidunt ut labore </tspan><tspan x="0" y="34">et dolore magna aliquyam erat, sed diam voluptua. At vero eos et accusam et justo duo dolores et ea rebum. </tspan><tspan x="0" y="54">Stet clita kasd gubergren, no sea takimata sanctus est Lorem ipsum dolor sit amet. Lorem ipsum dolor sit </tspan></text>
    <g id="Group_37454" data-name="Group 37454" transform="translate(991.219 3217)">
      <rect id="Rectangle_7762" data-name="Rectangle 7762" width="12.862" height="1" transform="translate(0.138 17)" fill="#14142b"/>
      <path id="Path_22822" data-name="Path 22822" d="M5.747,18.544a.508.508,0,0,0,.264.072.518.518,0,0,0,.24-.059l3.624-1.921a.48.48,0,0,0,.174-.154L17.64,5.349a.692.692,0,0,0,.1-.578.739.739,0,0,0-.358-.44l-2.892-1.6a.822.822,0,0,0-.575-.083.783.783,0,0,0-.483.32L5.874,14.075a.4.4,0,0,0-.052.055.434.434,0,0,0-.062.287l-.241,3.7A.463.463,0,0,0,5.747,18.544ZM6.7,15.191l1.845,1.073L6.56,17.316Zm2.723.482L6.946,14.231l5.87-8.625L15.3,7.053ZM14.156,3.636l2.523,1.4-.841,1.232L13.352,4.816Z" transform="translate(-5.517 -2.63)" fill="#14142b"/>
    </g>
    <g id="Group_37456" data-name="Group 37456" transform="translate(949.22 3216)">
      <path id="Path_22820" data-name="Path 22820" d="M11.71,17.781l.019.021h.008l0,0h0a.5.5,0,0,0,.339.135h0a.493.493,0,0,0,.375-.17l3.272-3.68a.5.5,0,0,0-.748-.664l-2.4,2.7v-13a.5.5,0,0,0-1,0v13l-2.4-2.7a.5.5,0,0,0-.748.664Z" transform="translate(-3.086 -2.633)" fill="#14142b"/>
      <path id="Path_22821" data-name="Path 22821" d="M21.057,20.633H4.115a.5.5,0,1,0,0,1H21.057a.5.5,0,1,0,0-1Z" transform="translate(-3.586 -3.633)" fill="#14142b"/>
    </g>
    <g id="Group_37458" data-name="Group 37458" transform="translate(1031.8 3216) rotate(90)">
      <circle id="Ellipse_3025-2" data-name="Ellipse 3025" cx="2" cy="2" r="2" transform="translate(14 0)" fill="#14142b"/>
      <circle id="Ellipse_3026-2" data-name="Ellipse 3026" cx="2" cy="2" r="2" transform="translate(7 0)" fill="#14142b"/>
      <circle id="Ellipse_3027-2" data-name="Ellipse 3027" cx="2" cy="2" r="2" transform="translate(0 0)" fill="#14142b"/>
    </g>
    <g id="Group_37460" data-name="Group 37460" transform="translate(907.22 3217)">
      <path id="Path_23062" data-name="Path 23062" d="M352.844,468.834H341.15V454.951h-.962v14.383a.492.492,0,0,0,.481.5h12.652a.491.491,0,0,0,.481-.5h0V454.951h-.958Z" transform="translate(-337.676 -451.834)" fill="#14142b"/>
      <path id="Path_23063" data-name="Path 23063" d="M355.177,453.951h-4.723v-2.117h-6.612v2.117h-5.668a.5.5,0,0,0,0,1h17a.5.5,0,0,0,0-1Zm-10.391-1.117h4.723v1h-4.723Z" transform="translate(-337.676 -451.834)" fill="#14142b"/>
      <path id="Path_23064" data-name="Path 23064" d="M345.285,466.633a.5.5,0,0,0,.5-.5v-9a.5.5,0,1,0-1,0v9A.5.5,0,0,0,345.285,466.633Z" transform="translate(-337.698 -451.834)" fill="#14142b"/>
      <path id="Path_23065" data-name="Path 23065" d="M349.067,466.633a.5.5,0,0,0,.5-.5v-9a.5.5,0,1,0-1,0v9A.5.5,0,0,0,349.067,466.633Z" transform="translate(-337.709 -451.834)" fill="#14142b"/>
    </g>
    <rect id="Rectangle_19476" data-name="Rectangle 19476" width="16" height="755" transform="translate(1057 3200) rotate(90)" fill="#0157dc" opacity="0.07" style="mix-blend-mode: multiply;isolation: isolate"/>
    <rect id="Rectangle_19477" data-name="Rectangle 19477" width="16" height="755" transform="translate(1057 3236) rotate(90)" fill="#0157dc" opacity="0.07" style="mix-blend-mode: multiply;isolation: isolate"/>
    <rect id="Rectangle_19478" data-name="Rectangle 19478" width="16" height="755" transform="translate(1057 3252) rotate(90)" fill="#0157dc" opacity="0.07" style="mix-blend-mode: multiply;isolation: isolate"/>
    <rect id="Rectangle_19479" data-name="Rectangle 19479" width="16" height="755" transform="translate(1057 3288) rotate(90)" fill="#0157dc" opacity="0.07" style="mix-blend-mode: multiply;isolation: isolate"/>
    <rect id="Rectangle_19480" data-name="Rectangle 19480" width="16" height="755" transform="translate(1057 3304) rotate(90)" fill="#0157dc" opacity="0.07" style="mix-blend-mode: multiply;isolation: isolate"/>
    <rect id="Rectangle_19481" data-name="Rectangle 19481" width="16" height="755" transform="translate(1057 3379) rotate(90)" fill="#0157dc" opacity="0.07" style="mix-blend-mode: multiply;isolation: isolate"/>
    <rect id="Rectangle_19482" data-name="Rectangle 19482" width="214" height="16" transform="translate(338 3189) rotate(90)" fill="#0157dc" opacity="0.07" style="mix-blend-mode: multiply;isolation: isolate"/>
    <text id="_16px-2" data-name="16px" transform="translate(1082 3214)" fill="#489ef9" font-size="16" font-family="HCLTech Roobert" font-weight="600"><tspan x="-16" y="0">16px</tspan></text>
    <text id="_16px-3" data-name="16px" transform="translate(1082 3318)" fill="#489ef9" font-size="16" font-family="HCLTech Roobert" font-weight="600"><tspan x="-16" y="0">16px</tspan></text>
    <text id="_16px-4" data-name="16px" transform="translate(278 3300)" fill="#489ef9" font-size="16" font-family="HCLTech Roobert" font-weight="600"><tspan x="-16" y="0">16px</tspan></text>
    <text id="_16px-5" data-name="16px" transform="translate(278 3264)" fill="#489ef9" font-size="16" font-family="HCLTech Roobert" font-weight="600"><tspan x="-16" y="0">16px</tspan></text>
    <text id="_16px-6" data-name="16px" transform="translate(330 3423)" fill="#489ef9" font-size="16" font-family="HCLTech Roobert" font-weight="600"><tspan x="-16" y="0">16px</tspan></text>
    <text id="_16px-7" data-name="16px" transform="translate(1082 3250)" fill="#489ef9" font-size="16" font-family="HCLTech Roobert" font-weight="600"><tspan x="-16" y="0">16px</tspan></text>
    <text id="_16px-8" data-name="16px" transform="translate(1082 3393)" fill="#489ef9" font-size="16" font-family="HCLTech Roobert" font-weight="600"><tspan x="-16" y="0">16px</tspan></text>
    <path id="Path_36433" data-name="Path 36433" d="M-9715,20454.064h16" transform="translate(21516.564 12915) rotate(90)" fill="none" stroke="#3c91ff" stroke-width="1"/>
    <path id="Path_36434" data-name="Path 36434" d="M-9715,20454.064h16" transform="translate(21516.564 13019) rotate(90)" fill="none" stroke="#3c91ff" stroke-width="1"/>
    <path id="Path_36435" data-name="Path 36435" d="M-9715,20454.064h16" transform="translate(20752.063 13003) rotate(90)" fill="none" stroke="#3c91ff" stroke-width="1"/>
    <path id="Path_36436" data-name="Path 36436" d="M-9715,20454.064h16" transform="translate(20752.063 12967) rotate(90)" fill="none" stroke="#3c91ff" stroke-width="1"/>
    <path id="Path_36441" data-name="Path 36441" d="M-9715,20454.064h16" transform="translate(-9377 23859.064) rotate(180)" fill="none" stroke="#3c91ff" stroke-width="1"/>
    <path id="Path_36442" data-name="Path 36442" d="M-9715,20454.064h16" transform="translate(21516.564 12951) rotate(90)" fill="none" stroke="#3c91ff" stroke-width="1"/>
    <path id="Path_36443" data-name="Path 36443" d="M-9715,20454.064h16" transform="translate(21516.564 13094) rotate(90)" fill="none" stroke="#3c91ff" stroke-width="1"/>
    <path id="Path_36444" data-name="Path 36444" d="M951,1359.821h746.006" transform="translate(-649 1892.179)" fill="none" stroke="#a5afbe" stroke-width="0.5"/>
    <path id="Path_36445" data-name="Path 36445" d="M951,1359.821h746.006" transform="translate(-649 1944.179)" fill="none" stroke="#a5afbe" stroke-width="0.5"/>
    <path id="Path_36446" data-name="Path 36446" d="M951,1359.821h746.006" transform="translate(-649 2035.179)" fill="none" stroke="#a5afbe" stroke-width="0.5"/>
    <path id="Path_23152_-_Outline" data-name="Path 23152 - Outline" d="M.253,5.816A.775.775,0,0,1-.279,5.61a.674.674,0,0,1,0-1L4.968-.293a.79.79,0,0,1,1.066,0l5.247,4.907a.674.674,0,0,1,0,1,.791.791,0,0,1-1.064,0L5.5,1.2.786,5.61A.775.775,0,0,1,.253,5.816Z" transform="translate(321.501 3280.816) rotate(180)" fill="#5f1ebe"/>
    <path id="Path_23152_-_Outline-2" data-name="Path 23152 - Outline" d="M.253,5.816A.775.775,0,0,1-.279,5.61a.674.674,0,0,1,0-1L4.968-.293a.79.79,0,0,1,1.066,0l5.247,4.907a.674.674,0,0,1,0,1,.791.791,0,0,1-1.064,0L5.5,1.2.786,5.61A.775.775,0,0,1,.253,5.816Z" transform="translate(318.816 3220.5) rotate(90)" fill="#14142b"/>
  </g>
</svg>
