<svg xmlns="http://www.w3.org/2000/svg" width="836" height="236.25" viewBox="0 0 836 236.25">
  <g id="Design:Accordion_Multiple_Button" data-name="Design:Accordion Multiple Button" transform="translate(-2236 351)">
    <text id="Accordion_Item_1" data-name="Accordion Item #1" transform="translate(2269 -334)" stroke="rgba(0,0,0,0)" stroke-miterlimit="10" stroke-width="1" font-size="16" font-family="HCLTechRoobert-Regular, HCLTech Roobert"><tspan x="0" y="0">Accordion Item #1</tspan></text>
    <text id="Accordion_Item_2" data-name="Accordion Item #2" transform="translate(2269 -281)" stroke="rgba(0,0,0,0)" stroke-miterlimit="10" stroke-width="1" font-size="16" font-family="HCLTechRoobert-Regular, HCLTech Roobert"><tspan x="0" y="0">Accordion Item #2</tspan></text>
    <text id="Accordion_Item_3" data-name="Accordion Item #3" transform="translate(2269 -229)" fill="#3c91ff" stroke="rgba(0,0,0,0)" stroke-miterlimit="10" stroke-width="1" font-size="16" font-family="HCLTechRoobert-SemiBold, HCLTech Roobert" font-weight="600"><tspan x="0" y="0">Accordion Item #3</tspan></text>
    <path id="Path_36415" data-name="Path 36415" d="M11.908,5.777,6.223.093a.315.315,0,0,0-.447,0L.092,5.777a.316.316,0,0,0,.447.447L6,.762l5.461,5.461a.316.316,0,0,0,.447-.447Z" transform="translate(2250.816 -345.5) rotate(90)" stroke="#777" stroke-width="0.5"/>
    <path id="Path_36417" data-name="Path 36417" d="M11.908,5.777,6.223.093a.315.315,0,0,0-.447,0L.092,5.777a.316.316,0,0,0,.447.447L6,.762l5.461,5.461a.316.316,0,0,0,.447-.447Z" transform="translate(2250.816 -292.5) rotate(90)" stroke="#777" stroke-width="0.5"/>
    <text id="This_is_the_third_item_s_accordion_body._It_is_hidden_by_default_until_the_collapse_plugin_adds_the_appropriate_classes_that_we_use_to_style_each_element._These_classes_control_the_overall_appearance_as_well_as_the_showing_and_hiding_via_CSS_transitions." data-name="This is the third item’s accordion body. It is hidden by default, until the collapse plugin adds the appropriate classes that we use to style each element. These classes control the overall appearance, as well as the showing and hiding via CSS transitions." transform="translate(2269 -209)" font-size="14" font-family="HCLTechRoobert-Regular, HCLTech Roobert"><tspan x="0" y="14">This is the third item’s accordion body. It is hidden by default, until the collapse plugin adds the appropriate classes that we </tspan><tspan x="0" y="34">use to style each element. These classes control the overall appearance, as well as the showing and hiding via CSS </tspan><tspan x="0" y="54">transitions. You can modify any of this with custom CSS or overriding our default variables. It’s also worth noting that just </tspan><tspan x="0" y="74">about any HTML can go within the .accordion-body, though the transition does limit overflow.</tspan></text>
    <path id="Path_36416" data-name="Path 36416" d="M951,1359.821h836" transform="translate(1285 -1673.322)" fill="none" stroke="#a5afbe" stroke-width="0.5"/>
    <path id="Path_36419" data-name="Path 36419" d="M951,1359.821h836" transform="translate(1285 -1621.322)" fill="none" stroke="#a5afbe" stroke-width="0.5"/>
    <path id="Path_36420" data-name="Path 36420" d="M951,1359.821h836" transform="translate(1285 -1474.821)" fill="none" stroke="#a5afbe" stroke-width="0.5"/>
    <g id="Group_24137" data-name="Group 24137" transform="translate(3015 -349)">
      <rect id="Rectangle_7762" data-name="Rectangle 7762" width="12.862" height="1" transform="translate(0.138 17)"/>
      <path id="Path_22822" data-name="Path 22822" d="M5.747,18.544a.508.508,0,0,0,.264.072.518.518,0,0,0,.24-.059l3.624-1.921a.48.48,0,0,0,.174-.154L17.64,5.349a.692.692,0,0,0,.1-.578.739.739,0,0,0-.358-.44l-2.892-1.6a.822.822,0,0,0-.575-.083.783.783,0,0,0-.483.32L5.874,14.075a.4.4,0,0,0-.052.055.434.434,0,0,0-.062.287l-.241,3.7A.463.463,0,0,0,5.747,18.544ZM6.7,15.191l1.845,1.073L6.56,17.316Zm2.723.482L6.946,14.231l5.87-8.625L15.3,7.053ZM14.156,3.636l2.523,1.4-.841,1.232L13.352,4.816Z" transform="translate(-5.517 -2.63)"/>
    </g>
    <g id="Group_24138" data-name="Group 24138" transform="translate(3015 -296)">
      <rect id="Rectangle_7762-2" data-name="Rectangle 7762" width="12.862" height="1" transform="translate(0.138 17)"/>
      <path id="Path_22822-2" data-name="Path 22822" d="M5.747,18.544a.508.508,0,0,0,.264.072.518.518,0,0,0,.24-.059l3.624-1.921a.48.48,0,0,0,.174-.154L17.64,5.349a.692.692,0,0,0,.1-.578.739.739,0,0,0-.358-.44l-2.892-1.6a.822.822,0,0,0-.575-.083.783.783,0,0,0-.483.32L5.874,14.075a.4.4,0,0,0-.052.055.434.434,0,0,0-.062.287l-.241,3.7A.463.463,0,0,0,5.747,18.544ZM6.7,15.191l1.845,1.073L6.56,17.316Zm2.723.482L6.946,14.231l5.87-8.625L15.3,7.053ZM14.156,3.636l2.523,1.4-.841,1.232L13.352,4.816Z" transform="translate(-5.517 -2.63)"/>
    </g>
    <g id="Group_24082" data-name="Group 24082" transform="translate(3056 -296) rotate(90)">
      <circle id="Ellipse_3025" data-name="Ellipse 3025" cx="2" cy="2" r="2" transform="translate(14.001 0)"/>
      <circle id="Ellipse_3026" data-name="Ellipse 3026" cx="2" cy="2" r="2" transform="translate(7.001 0)"/>
      <circle id="Ellipse_3027" data-name="Ellipse 3027" cx="2" cy="2" r="2" transform="translate(0.001 0)"/>
    </g>
    <g id="Group_24140" data-name="Group 24140" transform="translate(3056 -349) rotate(90)">
      <circle id="Ellipse_3025-2" data-name="Ellipse 3025" cx="2" cy="2" r="2" transform="translate(14.001 0)"/>
      <circle id="Ellipse_3026-2" data-name="Ellipse 3026" cx="2" cy="2" r="2" transform="translate(7.001 0)"/>
      <circle id="Ellipse_3027-2" data-name="Ellipse 3027" cx="2" cy="2" r="2" transform="translate(0.001 0)"/>
    </g>
    <g id="Group_24016" data-name="Group 24016" transform="translate(2973 -296)">
      <path id="Path_22820" data-name="Path 22820" d="M11.71,17.781l.019.021h.008l0,0h0a.5.5,0,0,0,.339.135h0a.493.493,0,0,0,.375-.17l3.272-3.68a.5.5,0,0,0-.748-.664l-2.4,2.7v-13a.5.5,0,0,0-1,0v13l-2.4-2.7a.5.5,0,0,0-.748.664Z" transform="translate(-3.086 -2.633)"/>
      <path id="Path_22821" data-name="Path 22821" d="M21.057,20.633H4.115a.5.5,0,1,0,0,1H21.057a.5.5,0,1,0,0-1Z" transform="translate(-3.586 -2.633)"/>
    </g>
    <g id="Group_24141" data-name="Group 24141" transform="translate(2973 -349)">
      <path id="Path_22820-2" data-name="Path 22820" d="M11.71,17.781l.019.021h.008l0,0h0a.5.5,0,0,0,.339.135h0a.493.493,0,0,0,.375-.17l3.272-3.68a.5.5,0,0,0-.748-.664l-2.4,2.7v-13a.5.5,0,0,0-1,0v13l-2.4-2.7a.5.5,0,0,0-.748.664Z" transform="translate(-3.086 -2.633)"/>
      <path id="Path_22821-2" data-name="Path 22821" d="M21.057,20.633H4.115a.5.5,0,1,0,0,1H21.057a.5.5,0,1,0,0-1Z" transform="translate(-3.586 -2.633)"/>
    </g>
    <g id="Group_24142" data-name="Group 24142" transform="translate(2931 -296)">
      <path id="Path_23062" data-name="Path 23062" d="M352.844,468.834H341.15V454.951h-.962v14.383a.492.492,0,0,0,.481.5h12.652a.491.491,0,0,0,.481-.5h0V454.951h-.958Z" transform="translate(-337.676 -451.834)"/>
      <path id="Path_23063" data-name="Path 23063" d="M355.177,453.951h-4.723v-2.117h-6.612v2.117h-5.668a.5.5,0,0,0,0,1h17a.5.5,0,0,0,0-1Zm-10.391-1.117h4.723v1h-4.723Z" transform="translate(-337.676 -451.834)"/>
      <path id="Path_23064" data-name="Path 23064" d="M345.285,466.633a.5.5,0,0,0,.5-.5v-9a.5.5,0,1,0-1,0v9A.5.5,0,0,0,345.285,466.633Z" transform="translate(-337.698 -451.834)"/>
      <path id="Path_23065" data-name="Path 23065" d="M349.067,466.633a.5.5,0,0,0,.5-.5v-9a.5.5,0,1,0-1,0v9A.5.5,0,0,0,349.067,466.633Z" transform="translate(-337.709 -451.834)"/>
    </g>
    <g id="Group_24143" data-name="Group 24143" transform="translate(2931 -349)">
      <path id="Path_23062-2" data-name="Path 23062" d="M352.844,468.834H341.15V454.951h-.962v14.383a.492.492,0,0,0,.481.5h12.652a.491.491,0,0,0,.481-.5h0V454.951h-.958Z" transform="translate(-337.676 -451.834)"/>
      <path id="Path_23063-2" data-name="Path 23063" d="M355.177,453.951h-4.723v-2.117h-6.612v2.117h-5.668a.5.5,0,0,0,0,1h17a.5.5,0,0,0,0-1Zm-10.391-1.117h4.723v1h-4.723Z" transform="translate(-337.676 -451.834)"/>
      <path id="Path_23064-2" data-name="Path 23064" d="M345.285,466.633a.5.5,0,0,0,.5-.5v-9a.5.5,0,1,0-1,0v9A.5.5,0,0,0,345.285,466.633Z" transform="translate(-337.698 -451.834)"/>
      <path id="Path_23065-2" data-name="Path 23065" d="M349.067,466.633a.5.5,0,0,0,.5-.5v-9a.5.5,0,1,0-1,0v9A.5.5,0,0,0,349.067,466.633Z" transform="translate(-337.709 -451.834)"/>
    </g>
    <g id="Group_37449" data-name="Group 37449" transform="translate(3015.25 -245.375)">
      <path id="Rectangle_7762_-_Outline" data-name="Rectangle 7762 - Outline" d="M-.125-.125H12.807V1.108H-.125Z" transform="translate(0.136 16.768)" fill="#3c91ff"/>
      <path id="Path_22822_-_Outline" data-name="Path 22822 - Outline" d="M6,18.52a.627.627,0,0,1-.324-.089.579.579,0,0,1-.286-.535l.237-3.639a.542.542,0,0,1,.082-.352.267.267,0,0,1,.053-.059l.006-.006L13.22,2.893a.9.9,0,0,1,.552-.367.943.943,0,0,1,.653.094L17.277,4.2a.847.847,0,0,1,.412.508.8.8,0,0,1-.115.675L10.088,16.36a.6.6,0,0,1-.216.192L6.3,18.447A.635.635,0,0,1,6,18.52Zm.789-3.3L6.682,16.9l1.566-.83ZM7.1,14.031l2.23,1.3,5.657-8.3-2.236-1.3ZM13.42,4.745l2.238,1.3.688-1.008L14.075,3.783Z" transform="translate(-5.517 -2.63)" fill="#3c91ff"/>
    </g>
    <path id="Union_1" data-name="Union 1" d="M-3144.28,2783a.707.707,0,0,1-.719-.693.707.707,0,0,1,.719-.692h15.637a.707.707,0,0,1,.719.692.707.707,0,0,1-.719.693Zm7.816-3.4a.687.687,0,0,1-.4-.127l-.15-.14-2.99-3.365a.691.691,0,0,1-.174-.5.681.681,0,0,1,.232-.476.689.689,0,0,1,.459-.175.694.694,0,0,1,.517.233l1.811,2.038v-11.4a.693.693,0,0,1,.692-.692.693.693,0,0,1,.693.692v11.4l1.811-2.038a.688.688,0,0,1,.518-.233.689.689,0,0,1,.46.175.686.686,0,0,1,.231.479.684.684,0,0,1-.174.5l-3.02,3.4a.686.686,0,0,1-.519.235Z" transform="translate(6118 -3010.5)" fill="#3c91ff"/>
    <g id="Group_37450" data-name="Group 37450" transform="translate(3056.25 -245.5) rotate(90)">
      <circle id="Ellipse_3025-3" data-name="Ellipse 3025" cx="2" cy="2" r="2" transform="translate(14.001 0)" fill="#3c91ff"/>
      <circle id="Ellipse_3026-3" data-name="Ellipse 3026" cx="2" cy="2" r="2" transform="translate(7.001 0)" fill="#3c91ff"/>
      <circle id="Ellipse_3027-3" data-name="Ellipse 3027" cx="2" cy="2" r="2" transform="translate(0.001 0)" fill="#3c91ff"/>
    </g>
    <g id="Group_37451" data-name="Group 37451" transform="translate(2931.25 -245.25)">
      <path id="Path_23062_-_Outline" data-name="Path 23062 - Outline" d="M352.961,469.668H340.649a.724.724,0,0,1-.711-.733V454.7h1.423v13.508h10.891V454.7h1.419v14.238a.721.721,0,0,1-.708.73Z" transform="translate(-337.744 -451.918)" fill="#3c91ff"/>
      <path id="Path_23063_-_Outline" data-name="Path 23063 - Outline" d="M354.7,455.1H338.154a.73.73,0,0,1,0-1.459h5.271v-2.06h6.92v2.06H354.7a.73.73,0,0,1,0,1.459Zm-9.867-1.573h4.109v-.486h-4.109Z" transform="translate(-337.676 -451.834)" fill="#3c91ff"/>
      <path id="Path_23064_-_Outline" data-name="Path 23064 - Outline" d="M345.265,466.6a.731.731,0,0,1-.73-.73v-8.757a.73.73,0,0,1,1.459,0v8.757A.731.731,0,0,1,345.265,466.6Z" transform="translate(-337.889 -451.964)" fill="#3c91ff"/>
      <path id="Path_23065_-_Outline" data-name="Path 23065 - Outline" d="M349.047,466.6a.731.731,0,0,1-.73-.73v-8.757a.73.73,0,0,1,1.459,0v8.757A.731.731,0,0,1,349.047,466.6Z" transform="translate(-338.003 -451.964)" fill="#3c91ff"/>
    </g>
    <path id="Path_23152_-_Outline" data-name="Path 23152 - Outline" d="M.316,6.816a.81.81,0,0,1-.577-.239.818.818,0,0,1,0-1.154L5.423-.261a.815.815,0,0,1,1.155,0l5.683,5.683a.816.816,0,0,1-1.152,1.155L6,1.469.892,6.577A.81.81,0,0,1,.316,6.816Z" transform="translate(2253.5 -232.184) rotate(180)" fill="#3c91ff"/>
  </g>
</svg>
