<svg xmlns="http://www.w3.org/2000/svg" width="838" height="268" viewBox="0 0 838 268">
  <g id="Design:Accordion_Box" data-name="Design:Accordion Box" transform="translate(-264 -568)">
    <g id="Rectangle_19173" data-name="Rectangle 19173" transform="translate(265 621)" fill="#fff" stroke="#a5afbe" stroke-width="1">
      <rect width="836" height="52" stroke="none"/>
      <rect x="-0.5" y="-0.5" width="837" height="53" fill="none"/>
    </g>
    <g id="Rectangle_19174" data-name="Rectangle 19174" transform="translate(265 673)" fill="#fff" stroke="#a5afbe" stroke-width="1">
      <path d="M0,0H836a0,0,0,0,1,0,0V160a2,2,0,0,1-2,2H2a2,2,0,0,1-2-2V0A0,0,0,0,1,0,0Z" stroke="none"/>
      <path d="M-.5-.5h837a0,0,0,0,1,0,0V160a2.5,2.5,0,0,1-2.5,2.5H2A2.5,2.5,0,0,1-.5,160V-.5A0,0,0,0,1-.5-.5Z" fill="none"/>
    </g>
    <g id="Rectangle_19176" data-name="Rectangle 19176" transform="translate(265 673)" fill="#e6f3ff" stroke="#a5afbe" stroke-width="1">
      <rect width="836" height="52" stroke="none"/>
      <rect x="-0.5" y="-0.5" width="837" height="53" fill="none"/>
    </g>
    <g id="Rectangle_19178" data-name="Rectangle 19178" transform="translate(265 569)" fill="#fff" stroke="#a5afbe" stroke-width="1">
      <path d="M2,0H834a2,2,0,0,1,2,2V52a0,0,0,0,1,0,0H0a0,0,0,0,1,0,0V2A2,2,0,0,1,2,0Z" stroke="none"/>
      <path d="M2-.5H834A2.5,2.5,0,0,1,836.5,2V52.5a0,0,0,0,1,0,0H-.5a0,0,0,0,1,0,0V2A2.5,2.5,0,0,1,2-.5Z" fill="none"/>
    </g>
    <text id="Accordion_Item_1" data-name="Accordion Item #1" transform="translate(289 601)" font-size="16" font-family="HCLTechRoobert-Regular, HCLTech Roobert"><tspan x="0" y="0">Accordion Item #1</tspan></text>
    <text id="Accordion_Item_2" data-name="Accordion Item #2" transform="translate(289 653)" font-size="16" font-family="HCLTechRoobert-Regular, HCLTech Roobert"><tspan x="0" y="0">Accordion Item #2</tspan></text>
    <text id="Accordion_Item_3" data-name="Accordion Item #3" transform="translate(289 705)" fill="#222" font-size="16" font-family="HCLTechRoobert-SemiBold, HCLTech Roobert" font-weight="600"><tspan x="0" y="0">Accordion Item #3</tspan></text>
    <text id="This_is_the_third_item_s_accordion_body._It_is_hidden_by_default_until_the_collapse_plugin_adds_the_appropriate_classes_that_we_use_to_style_each_element._These_classes_control_the_overall_appearance_as_well_as_the_showing_and_hiding_via_CSS_transitions." data-name="This is the third item’s accordion body. It is hidden by default, until the collapse plugin adds the appropriate classes that we use to style each element. These classes control the overall appearance, as well as the showing and hiding via CSS transitions." transform="translate(289 741)" font-size="14" font-family="HCLTechRoobert-Regular, HCLTech Roobert"><tspan x="0" y="14">This is the third item’s accordion body. It is hidden by default, until the collapse plugin adds the appropriate classes that we </tspan><tspan x="0" y="34">use to style each element. These classes control the overall appearance, as well as the showing and hiding via CSS </tspan><tspan x="0" y="54">transitions. You can modify any of this with custom CSS or overriding our default variables. It’s also worth noting that just </tspan><tspan x="0" y="74">about any HTML can go within the .accordion-body, though the transition does limit overflow.</tspan></text>
    <path id="Path_27090" data-name="Path 27090" d="M17.861,8.666,9.335.139a.472.472,0,0,0-.67,0L.139,8.666a.474.474,0,0,0,.67.67L9,1.144l8.191,8.192a.474.474,0,0,0,.67-.67Z" transform="translate(1085 601.475) rotate(180)" fill="#777"/>
    <path id="Path_27092" data-name="Path 27092" d="M17.861,8.666,9.335.139a.472.472,0,0,0-.67,0L.139,8.666a.474.474,0,0,0,.67.67L9,1.144l8.191,8.192a.474.474,0,0,0,.67-.67Z" transform="translate(1085 652.474) rotate(180)" fill="#777"/>
    <path id="Path_27093_-_Outline" data-name="Path 27093 - Outline" d="M.473-.5a.967.967,0,0,1,.688.285L9,7.624,16.838-.215a.974.974,0,1,1,1.377,1.377L9.688,9.689a.972.972,0,0,1-1.378,0L-.215,1.162a.976.976,0,0,1,0-1.376A.968.968,0,0,1,.473-.5Z" transform="translate(1085.499 704.975) rotate(180)"/>
  </g>
</svg>
