<svg xmlns="http://www.w3.org/2000/svg" width="836" height="266" viewBox="0 0 836 266">
  <g id="Design:Accordion_Line" data-name="Design:Accordion Line" transform="translate(-265 -1343)">
    <rect id="Rectangle_7798" data-name="Rectangle 7798" width="836" height="52" transform="translate(265 1395)" fill="#fcfcfc"/>
    <rect id="Rectangle_7799" data-name="Rectangle 7799" width="836" height="162" transform="translate(265 1447)" fill="#fcfcfc"/>
    <rect id="Rectangle_7800" data-name="Rectangle 7800" width="836" height="52" transform="translate(265 1447)" fill="#e6f3ff"/>
    <rect id="Rectangle_7797" data-name="Rectangle 7797" width="836" height="52" transform="translate(265 1343)" fill="#fcfcfc"/>
    <text id="Accordion_Item_1" data-name="Accordion Item #1" transform="translate(289 1376)" font-size="16" font-family="HCLTechRoobert-Regular, HCLTech Roobert"><tspan x="0" y="0">Accordion Item #1</tspan></text>
    <text id="Accordion_Item_2" data-name="Accordion Item #2" transform="translate(289 1428)" font-size="16" font-family="HCLTechRoobert-Regular, HCLTech Roobert"><tspan x="0" y="0">Accordion Item #2</tspan></text>
    <text id="Accordion_Item_3" data-name="Accordion Item #3" transform="translate(289 1480)" fill="#222" font-size="16" font-family="HCLTechRoobert-SemiBold, HCLTech Roobert" font-weight="600"><tspan x="0" y="0">Accordion Item #3</tspan></text>
    <path id="Path_23110" data-name="Path 23110" d="M17.861,8.666,9.335.139a.472.472,0,0,0-.67,0L.139,8.666a.474.474,0,0,0,.67.67L9,1.144l8.191,8.192a.474.474,0,0,0,.67-.67Z" transform="translate(1084.5 1373.474) rotate(180)"/>
    <path id="Path_23111" data-name="Path 23111" d="M17.861,8.666,9.335.139a.472.472,0,0,0-.67,0L.139,8.666a.474.474,0,0,0,.67.67L9,1.144l8.191,8.192a.474.474,0,0,0,.67-.67Z" transform="translate(1084.5 1425.474) rotate(180)"/>
    <text id="This_is_the_third_item_s_accordion_body._It_is_hidden_by_default_until_the_collapse_plugin_adds_the_appropriate_classes_that_we_use_to_style_each_element._These_classes_control_the_overall_appearance_as_well_as_the_showing_and_hiding_via_CSS_transitions." data-name="This is the third item’s accordion body. It is hidden by default, until the collapse plugin adds the appropriate classes that we use to style each element. These classes control the overall appearance, as well as the showing and hiding via CSS transitions." transform="translate(289 1515)" font-size="14" font-family="HCLTechRoobert-Regular, HCLTech Roobert"><tspan x="0" y="14">This is the third item’s accordion body. It is hidden by default, until the collapse plugin adds the appropriate classes that we </tspan><tspan x="0" y="34">use to style each element. These classes control the overall appearance, as well as the showing and hiding via CSS </tspan><tspan x="0" y="54">transitions. You can modify any of this with custom CSS or overriding our default variables. It’s also worth noting that just </tspan><tspan x="0" y="74">about any HTML can go within the .accordion-body, though the transition does limit overflow.</tspan></text>
    <path id="Path_23113" data-name="Path 23113" d="M17059-17526h835.5" transform="translate(-16794.004 18921)" fill="none" stroke="#a5afbe" stroke-width="1"/>
    <path id="Path_23114" data-name="Path 23114" d="M17059-17526h835.5" transform="translate(-16794.004 18973.5)" fill="none" stroke="#a5afbe" stroke-width="1"/>
    <path id="Path_27093_-_Outline" data-name="Path 27093 - Outline" d="M.473-.5a.967.967,0,0,1,.688.285L9,7.624,16.838-.215a.974.974,0,1,1,1.377,1.377L9.688,9.689a.972.972,0,0,1-1.378,0L-.215,1.162a.976.976,0,0,1,0-1.376A.968.968,0,0,1,.473-.5Z" transform="translate(1085.499 1477.975) rotate(180)"/>
  </g>
</svg>
