<svg xmlns="http://www.w3.org/2000/svg" xmlns:xlink="http://www.w3.org/1999/xlink" width="668" height="234" viewBox="0 0 668 234">
  <defs>
    <filter id="Rectangle_19864" x="0" y="0" width="668" height="234" filterUnits="userSpaceOnUse">
      <feOffset dy="3" input="SourceAlpha"/>
      <feGaussianBlur stdDeviation="3" result="blur"/>
      <feFlood flood-opacity="0.161"/>
      <feComposite operator="in" in2="blur"/>
      <feComposite in="SourceGraphic"/>
    </filter>
  </defs>
  <g id="Modal_Medium" data-name="Modal Medium" transform="translate(9 6)">
    <g transform="matrix(1, 0, 0, 1, -9, -6)" filter="url(#Rectangle_19864)">
      <rect id="Rectangle_19864-2" data-name="Rectangle 19864" width="650" height="216" rx="5" transform="translate(9 6)" fill="#fff"/>
    </g>
    <g id="Group_39532" data-name="Group 39532" transform="translate(-635 -1767)">
      <g id="Group_39362" data-name="Group 39362" transform="translate(4539 -2661)">
        <g id="Default_Button" data-name="Default Button" transform="translate(-3551 4576)">
          <rect id="Primary_007BFF" data-name="Primary / #007BFF" width="162" height="36" rx="4" fill="#5f1ebe"/>
          <text id="Primary_Default" data-name="Primary Default" transform="translate(24 24)" fill="#fff" font-size="16" font-family="HCLTech Roobert" font-weight="600"><tspan x="0" y="0">Primary Default</tspan></text>
        </g>
        <g id="Default_Button-2" data-name="Default Button" transform="translate(-3752 4576)">
          <g id="Primary_007BFF-2" data-name="Primary / #007BFF" fill="none" stroke="#6c7882" stroke-width="1">
            <rect width="185" height="36" rx="4" stroke="none"/>
            <rect x="0.5" y="0.5" width="184" height="35" rx="3.5" fill="none"/>
          </g>
          <text id="Default_Secondary" data-name="Default Secondary" transform="translate(24 24)" font-size="16" font-family="HCLTechRoobert-SemiBold, HCLTech Roobert" font-weight="600"><tspan x="0" y="0">Default Secondary</tspan></text>
        </g>
      </g>
      <text id="Lorem_ipsum_dolor_sit_amet_consetetur_sadipscing_elitr_sed_diam_nonumy_eirmod_tempor_invidunt_ut_labore_et_dolore_magna_" data-name="Lorem ipsum dolor sit amet, consetetur sadipscing elitr, sed diam nonumy eirmod tempor 
invidunt ut labore et dolore magna " transform="translate(960 1859)" font-size="14" font-family="HCLTech Roobert"><tspan x="-284" y="0">Lorem ipsum dolor sit amet, consetetur sadipscing elitr, sed diam nonumy eirmod tempor </tspan><tspan x="-112" y="20">invidunt ut labore et dolore magna </tspan></text>
      <g id="Group_39359" data-name="Group 39359" transform="translate(4013.551 -1597)">
        <g id="Group_39339" data-name="Group 39339" transform="translate(-3904.298 3396)">
          <path id="Path_16881" data-name="Path 16881" d="M9.571,8.878l5.041-5.041a.49.49,0,1,0-.693-.694L8.878,8.185,3.836,3.143a.49.49,0,0,0-.693.694L8.185,8.878,3.143,13.92a.49.49,0,0,0,.693.694L8.878,9.571l5.041,5.042a.49.49,0,1,0,.693-.694Z" transform="translate(1128.869 -2.877)"/>
          <path id="Path_16881_-_Outline" data-name="Path 16881 - Outline" d="M14.264,14.876a.612.612,0,0,1-.433-.178L8.876,9.741,3.92,14.7a.613.613,0,0,1-.865,0,.616.616,0,0,1,0-.867L8.01,8.876,3.054,3.921a.613.613,0,0,1,.433-1.046.608.608,0,0,1,.433.179L8.876,8.01,13.83,3.054a.613.613,0,1,1,.866.867L9.741,8.876,14.7,13.83a.614.614,0,0,1,0,.867A.607.607,0,0,1,14.264,14.876ZM8.876,9.395,14,14.524a.368.368,0,0,0,.26.107.364.364,0,0,0,.259-.107.368.368,0,0,0,0-.52L9.395,8.876l5.128-5.128a.368.368,0,0,0,0-.52.368.368,0,0,0-.52,0L8.876,8.356,3.747,3.227a.368.368,0,0,0-.52,0,.37.37,0,0,0,0,.52L8.356,8.876,3.227,14a.367.367,0,0,0,.26.628.364.364,0,0,0,.259-.107Z" transform="translate(1128.872 -2.875)"/>
        </g>
        <text id="Modal_Medium_Width_650px_" data-name="Modal Medium (Width 650px)" transform="translate(-3346.551 3396)" fill="#2874f0" font-size="24" font-family="HCLTechRoobert-Bold, HCLTech Roobert" font-weight="700"><tspan x="0" y="24">Modal Medium (Width 650px)</tspan></text>
      </g>
    </g>
  </g>
</svg>
