<svg xmlns="http://www.w3.org/2000/svg" xmlns:xlink="http://www.w3.org/1999/xlink" width="870" height="445" viewBox="0 0 870 445">
  <defs>
    <filter id="Rectangle_13750" x="18" y="17" width="818" height="298" filterUnits="userSpaceOnUse">
      <feOffset dy="3" input="SourceAlpha"/>
      <feGaussianBlur stdDeviation="3" result="blur"/>
      <feFlood flood-opacity="0.161"/>
      <feComposite operator="in" in2="blur"/>
      <feComposite in="SourceGraphic"/>
    </filter>
    <filter id="Ellipse_3280" x="6" y="275" width="46" height="46" filterUnits="userSpaceOnUse">
      <feOffset input="SourceAlpha"/>
      <feGaussianBlur stdDeviation="3" result="blur-2"/>
      <feFlood flood-opacity="0.302"/>
      <feComposite operator="in" in2="blur-2"/>
      <feComposite in="SourceGraphic"/>
    </filter>
  </defs>
  <g id="Group_166245" data-name="Group 166245" transform="translate(-256 -4391)">
    <g transform="matrix(1, 0, 0, 1, 256, 4391)" filter="url(#Rectangle_13750)">
      <g id="Rectangle_13750-2" data-name="Rectangle 13750" transform="translate(27 23)" fill="#fff" stroke="#8291a0" stroke-width="0.5">
        <rect width="800" height="280" rx="5" stroke="none"/>
        <rect x="0.25" y="0.25" width="799.5" height="279.5" rx="4.75" fill="none"/>
      </g>
    </g>
    <text id="Lorem_ipsum_dolor_sit_amet_consetetur_sadipscing_elitr_sed_diam_nonumy_eirmod_tempor_invidunt_ut_labore_et_dolore_magna_aliquyam_erat_sed_diam_voluptua._At_vero_eos_et_accusam_et_justo_duo_dolores_et_ea_rebum._" data-name="Lorem ipsum dolor sit amet, consetetur sadipscing elitr, sed diam nonumy eirmod tempor invidunt ut 
labore et dolore magna aliquyam erat, sed diam voluptua. At vero eos et accusam et justo duo 
dolores et ea rebum. " transform="translate(683 4521)" font-size="16" font-family="HCLTechRoobert-Regular, HCLTech Roobert"><tspan x="-366" y="0">Lorem ipsum dolor sit amet, consetetur sadipscing elitr, sed diam nonumy eirmod tempor invidunt ut </tspan><tspan x="-342" y="20">labore et dolore magna aliquyam erat, sed diam voluptua. At vero eos et accusam et justo duo </tspan><tspan x="-76" y="40">dolores et ea rebum. </tspan></text>
    <text id="Modal_Large_Width_800px_" data-name="Modal Large (Width 800px)" transform="translate(315 4446)" fill="#14142b" font-size="28" font-family="HCLTechRoobert-Medium, HCLTech Roobert" font-weight="500"><tspan x="0" y="28">Modal Large (Width 800px)</tspan></text>
    <text id="_32px" data-name="32px" transform="translate(1067 4779)" fill="#489ef9" font-size="14" font-family="HCLTech Roobert" font-weight="600"><tspan x="-15" y="0">32px</tspan></text>
    <text id="_24px" data-name="24px" transform="translate(682 4737)" fill="#489ef9" font-size="14" font-family="HCLTech Roobert" font-weight="600"><tspan x="-15" y="0">24px</tspan></text>
    <path id="Path_36658" data-name="Path 36658" d="M-9715,20454.064h32.4" transform="translate(-8631.598 25215.064) rotate(180)" fill="none" stroke="#3c91ff" stroke-width="1"/>
    <path id="Path_36655" data-name="Path 36655" d="M-9715,20454.064h23" transform="translate(-9024 25173.064) rotate(180)" fill="none" stroke="#3c91ff" stroke-width="1"/>
    <rect id="Rectangle_19712" data-name="Rectangle 19712" width="32" height="832" transform="translate(1097 4662) rotate(90)" fill="#0157dc" opacity="0.1" style="mix-blend-mode: multiply;isolation: isolate"/>
    <rect id="Rectangle_19709" data-name="Rectangle 19709" width="32" height="330" transform="translate(283 4398)" fill="#0157dc" opacity="0.1" style="mix-blend-mode: multiply;isolation: isolate"/>
    <rect id="Rectangle_19724" data-name="Rectangle 19724" width="32" height="366" transform="translate(1051 4391)" fill="#0157dc" opacity="0.1" style="mix-blend-mode: multiply;isolation: isolate"/>
    <rect id="Rectangle_19717" data-name="Rectangle 19717" width="23" height="106" transform="translate(668 4609)" fill="#0157dc" opacity="0.1" style="mix-blend-mode: multiply;isolation: isolate"/>
    <rect id="Rectangle_19710" data-name="Rectangle 19710" width="32" height="826" transform="translate(1097 4414) rotate(90)" fill="#0157dc" opacity="0.1" style="mix-blend-mode: multiply;isolation: isolate"/>
    <rect id="Rectangle_19711" data-name="Rectangle 19711" width="24" height="826" transform="translate(1096 4483) rotate(90)" fill="#0157dc" opacity="0.1" style="mix-blend-mode: multiply;isolation: isolate"/>
    <text id="Border_radius:_5px" data-name="Border radius: 5px" transform="translate(342 4722)" fill="#489ef9" font-size="14" font-family="HCLTech Roobert" font-weight="600"><tspan x="-57" y="0">Border radius: 5px</tspan></text>
    <g transform="matrix(1, 0, 0, 1, 256, 4391)" filter="url(#Ellipse_3280)">
      <ellipse id="Ellipse_3280-2" data-name="Ellipse 3280" cx="14" cy="14" rx="14" ry="14" transform="translate(15 284)" fill="#fff" opacity="0.406"/>
    </g>
    <text id="Label:_28px" data-name="Label:  28px" transform="translate(257 4792)" fill="#489ef9" font-size="14" font-family="HCLTech Roobert" font-weight="600"><tspan x="0" y="0" xml:space="preserve">Label:  28px</tspan></text>
    <g id="Group_37697" data-name="Group 37697" transform="translate(17.5 2796)">
      <path id="Path_27007" data-name="Path 27007" d="M-9836.379,20511.047h-53.588v312.234" transform="translate(10131.468 -18845.547)" fill="none" stroke="#2653ae" stroke-linejoin="round" stroke-width="1"/>
      <path id="Path_27008" data-name="Path 27008" d="M0,0V4" transform="translate(243.5 1978) rotate(90)" fill="none" stroke="#2653ae" stroke-width="0.5"/>
      <circle id="Ellipse_3166" data-name="Ellipse 3166" cx="2" cy="2" r="2" transform="translate(293.5 1663.5)" fill="#2653ae"/>
    </g>
    <text id="Size:_18px_18px" data-name="Size: 18px*18px" transform="translate(1029 4832)" fill="#489ef9" font-size="14" font-family="HCLTech Roobert" font-weight="600"><tspan x="0" y="0">Size: 18px*18px</tspan></text>
    <g id="Group_37705" data-name="Group 37705" transform="translate(1056.86 4454.443)">
      <path id="Path_27007-2" data-name="Path 27007" d="M-9889.967,20511.031h35.727v352.656" transform="translate(9892.378 -20509.031)" fill="none" stroke="#2653ae" stroke-linejoin="round" stroke-width="1"/>
      <path id="Path_27008-2" data-name="Path 27008" d="M0,4V0" transform="translate(40.14 354.916) rotate(90)" fill="none" stroke="#2653ae" stroke-width="0.5"/>
      <circle id="Ellipse_3166-2" data-name="Ellipse 3166" cx="2" cy="2" r="2" transform="translate(0.14 -0.443)" fill="#2653ae"/>
    </g>
    <g id="Group_168839" data-name="Group 168839" transform="translate(-98.747 4446)">
      <path id="Path_16881" data-name="Path 16881" d="M12.856,11.817l7.562-7.562a.735.735,0,0,0-1.039-1.04l-7.562,7.564L4.254,3.215a.735.735,0,0,0-1.039,1.04l7.564,7.562L3.215,19.38a.735.735,0,0,0,1.039,1.04l7.564-7.564,7.562,7.564a.735.735,0,0,0,1.039-1.04Z" transform="translate(1128.93 -2.815)" fill="#14142b"/>
      <path id="Path_16881_-_Outline" data-name="Path 16881 - Outline" d="M19.958,20.877a.918.918,0,0,1-.649-.268l-7.433-7.434L4.442,20.609a.92.92,0,0,1-1.3,0,.924.924,0,0,1,0-1.3l7.434-7.433L3.143,4.444a.919.919,0,0,1,.65-1.569.912.912,0,0,1,.649.269l7.434,7.434,7.432-7.434a.919.919,0,1,1,1.3,1.3l-7.432,7.432,7.432,7.432a.92.92,0,0,1,0,1.3A.911.911,0,0,1,19.958,20.877Zm-8.082-8.222,7.692,7.694a.552.552,0,0,0,.39.161.546.546,0,0,0,.389-.161.553.553,0,0,0,0-.781l-7.692-7.692,7.692-7.692a.553.553,0,0,0,0-.781.552.552,0,0,0-.78,0L11.876,11.1,4.182,3.4a.552.552,0,0,0-.78,0,.555.555,0,0,0,0,.781L11.1,11.876,3.4,19.568a.551.551,0,0,0,.39.941.546.546,0,0,0,.389-.161Z" transform="translate(1128.872 -2.875)" fill="#14142b"/>
    </g>
    <text id="Color:_14142B_Neutral-800_" data-name="Color:  #14142B 
(Neutral-800)" transform="translate(359 4814)" fill="#489ef9" font-size="14" font-family="HCLTechRoobert-SemiBold, HCLTech Roobert" font-weight="600"><tspan x="-102" y="0" xml:space="preserve">Color:  #14142B </tspan><tspan font-family="HCLTech Roobert" font-weight="400"><tspan x="-86" y="18">(Neutral-800)</tspan></tspan></text>
    <g id="Group_185944" data-name="Group 185944" transform="translate(229 -3675)">
      <g id="Large_Button" data-name="Large Button" transform="translate(463 8296)">
        <rect id="Primary" width="135" height="41" rx="5" fill="#5f1ebe"/>
        <text id="Main_CTA" data-name="Main CTA" transform="translate(24 28)" fill="#fff" font-size="20" font-family="HCLTech Roobert" font-weight="600"><tspan x="0" y="0">Main CTA</tspan></text>
      </g>
      <g id="Group_185943" data-name="Group 185943">
        <text id="Optional" transform="translate(335 8324)" fill="#5f1ebe" font-size="20" font-family="HCLTech Roobert" font-weight="600"><tspan x="0" y="0">Optional</tspan></text>
        <g id="Primary-2" data-name="Primary" transform="translate(311 8296)" fill="none" stroke="#5e1ebe" stroke-width="1">
          <rect width="128" height="41" rx="5" stroke="none"/>
          <rect x="0.5" y="0.5" width="127" height="40" rx="4.5" fill="none"/>
        </g>
      </g>
    </g>
  </g>
</svg>
