<svg xmlns="http://www.w3.org/2000/svg" xmlns:xlink="http://www.w3.org/1999/xlink" width="818" height="298" viewBox="0 0 818 298">
  <defs>
    <filter id="Rectangle_13750" x="0" y="0" width="818" height="298" filterUnits="userSpaceOnUse">
      <feOffset dy="3" input="SourceAlpha"/>
      <feGaussianBlur stdDeviation="3" result="blur"/>
      <feFlood flood-opacity="0.161"/>
      <feComposite operator="in" in2="blur"/>
      <feComposite in="SourceGraphic"/>
    </filter>
  </defs>
  <g id="Group_166243" data-name="Group 166243" transform="translate(-274 -3630)">
    <g transform="matrix(1, 0, 0, 1, 274, 3630)" filter="url(#Rectangle_13750)">
      <g id="Rectangle_13750-2" data-name="Rectangle 13750" transform="translate(9 6)" fill="#fff" stroke="#8291a0" stroke-width="0.5">
        <rect width="800" height="280" rx="5" stroke="none"/>
        <rect x="0.25" y="0.25" width="799.5" height="279.5" rx="4.75" fill="none"/>
      </g>
    </g>
    <g id="Large_Button" data-name="Large Button" transform="translate(682 3839)">
      <rect id="Primary" width="167" height="41" rx="4" fill="#5f1ebe"/>
      <text id="Large_Button-2" data-name="Large Button" transform="translate(24 28)" fill="#fff" font-size="20" font-family="HCLTech Roobert" font-weight="600"><tspan x="0" y="0">Large Button</tspan></text>
    </g>
    <g id="Large_Button-3" data-name="Large Button" transform="translate(509 3835)">
      <g id="Primary-2" data-name="Primary" fill="none" stroke="#5e1ebe" stroke-width="1">
        <rect width="149" height="49" rx="4" stroke="none"/>
        <rect x="0.5" y="0.5" width="148" height="48" rx="3.5" fill="none"/>
      </g>
      <text id="Large_Outline" data-name="Large Outline" transform="translate(12 32)" fill="#5f1ebe" font-size="20" font-family="HCLTech Roobert" font-weight="600"><tspan x="0" y="0">Large Outline</tspan></text>
    </g>
    <text id="Lorem_ipsum_dolor_sit_amet_consetetur_sadipscing_elitr_sed_diam_nonumy_eirmod_tempor_invidunt_ut_labore_et_dolore_magna_aliquyam_erat_sed_diam_voluptua._At_vero_eos_et_accusam_et_justo_duo_dolores_et_ea_rebum._" data-name="Lorem ipsum dolor sit amet, consetetur sadipscing elitr, sed diam nonumy eirmod tempor invidunt ut 
labore et dolore magna aliquyam erat, sed diam voluptua. At vero eos et accusam et justo duo 
dolores et ea rebum. " transform="translate(683 3743)" font-size="16" font-family="HCLTechRoobert-Regular, HCLTech Roobert"><tspan x="-366" y="0">Lorem ipsum dolor sit amet, consetetur sadipscing elitr, sed diam nonumy eirmod tempor invidunt ut </tspan><tspan x="-342" y="20">labore et dolore magna aliquyam erat, sed diam voluptua. At vero eos et accusam et justo duo </tspan><tspan x="-76" y="40">dolores et ea rebum. </tspan></text>
    <g id="Group_39339" data-name="Group 39339" transform="translate(-92.747 3668)">
      <path id="Path_16881" data-name="Path 16881" d="M9.571,8.878l5.041-5.041a.49.49,0,1,0-.693-.694L8.878,8.185,3.836,3.143a.49.49,0,0,0-.693.694L8.185,8.878,3.143,13.92a.49.49,0,0,0,.693.694L8.878,9.571l5.041,5.042a.49.49,0,1,0,.693-.694Z" transform="translate(1128.869 -2.877)"/>
      <path id="Path_16881_-_Outline" data-name="Path 16881 - Outline" d="M14.264,14.876a.612.612,0,0,1-.433-.178L8.876,9.741,3.92,14.7a.613.613,0,0,1-.865,0,.616.616,0,0,1,0-.867L8.01,8.876,3.054,3.921a.613.613,0,0,1,.433-1.046.608.608,0,0,1,.433.179L8.876,8.01,13.83,3.054a.613.613,0,1,1,.866.867L9.741,8.876,14.7,13.83a.614.614,0,0,1,0,.867A.607.607,0,0,1,14.264,14.876ZM8.876,9.395,14,14.524a.368.368,0,0,0,.26.107.364.364,0,0,0,.259-.107.368.368,0,0,0,0-.52L9.395,8.876l5.128-5.128a.368.368,0,0,0,0-.52.368.368,0,0,0-.52,0L8.876,8.356,3.747,3.227a.368.368,0,0,0-.52,0,.37.37,0,0,0,0,.52L8.356,8.876,3.227,14a.367.367,0,0,0,.26.628.364.364,0,0,0,.259-.107Z" transform="translate(1128.872 -2.875)"/>
    </g>
    <text id="Modal_Large_Width_800px_" data-name="Modal Large (Width 800px)" transform="translate(315 3668)" fill="#2874f0" font-size="28" font-family="HCLTechRoobert-Bold, HCLTech Roobert" font-weight="700"><tspan x="0" y="28">Modal Large (Width 800px)</tspan></text>
  </g>
</svg>
