<svg xmlns="http://www.w3.org/2000/svg" width="120.095" height="17.474" viewBox="0 0 120.095 17.474">
  <g id="Black_Book" data-name="Black Book" transform="translate(-381.764 -448.222)" style="isolation: isolate">
    <g id="Group_38064" data-name="Group 38064" style="isolation: isolate">
      <path id="Path_36927" data-name="Path 36927" d="M381.764,448.7h6.481c3.1,0,5.279,1.537,5.279,4.321a3.792,3.792,0,0,1-2.063,3.312,4.233,4.233,0,0,1,2.88,4.2c0,3.12-2.328,4.969-5.857,4.969h-6.72Zm6.264,6.578c1.68,0,2.521-.721,2.521-2.017s-.841-2.016-2.569-2.016h-3.1v4.033Zm.145,7.464c2.136,0,3.119-.816,3.119-2.377,0-1.536-.983-2.4-3.119-2.4h-3.289v4.777Z" fill="#fff"/>
      <path id="Path_36928" data-name="Path 36928" d="M396.5,463.007V448.222h2.953v14.929h2.088V465.5h-2.545A2.343,2.343,0,0,1,396.5,463.007Z" fill="#fff"/>
      <path id="Path_36929" data-name="Path 36929" d="M402.931,462.047c0-2.328,1.8-3.793,4.537-3.793H409.7a.77.77,0,0,0,.864-.815c0-1.2-.888-2.017-2.448-2.017a2.3,2.3,0,0,0-2.545,2.065h-2.64c.144-2.4,2.185-4.273,5.329-4.273,3.072,0,5.232,1.776,5.232,4.488v7.8h-2.928v-1.8a3.719,3.719,0,0,1-3.6,1.993C404.564,465.7,402.931,464.159,402.931,462.047Zm4.728,1.44a2.8,2.8,0,0,0,2.9-3.1V460.2h-2.688c-1.248,0-2.088.672-2.088,1.752C405.788,462.887,406.532,463.487,407.659,463.487Z" fill="#fff"/>
      <path id="Path_36930" data-name="Path 36930" d="M415.651,459.454a5.947,5.947,0,0,1,6.145-6.24c3.024,0,5.52,1.824,5.785,4.608h-2.953a2.666,2.666,0,0,0-2.76-2.064c-2.064,0-3.168,1.584-3.168,3.7s1.127,3.7,3.192,3.7a2.715,2.715,0,0,0,2.785-1.993h2.951c-.359,2.641-2.736,4.538-5.832,4.538A5.948,5.948,0,0,1,415.651,459.454Z" fill="#fff"/>
      <path id="Path_36931" data-name="Path 36931" d="M429.763,448.222h2.976V457.8l4.609-4.392h3.744l-4.921,4.729L441.5,465.5h-3.552l-3.793-5.4-1.416,1.368V465.5h-2.976Z" fill="#fff"/>
    </g>
    <g id="Group_38065" data-name="Group 38065" style="isolation: isolate">
      <path id="Path_36932" data-name="Path 36932" d="M448.267,448.7H454.1c3.215,0,5.064,1.609,5.064,4.321a3.69,3.69,0,0,1-2.3,3.289,4.189,4.189,0,0,1,3.024,4.343c0,2.953-1.92,4.849-5.352,4.849h-6.265Zm5.833,7.105c2.16,0,3.383-.912,3.383-2.808s-1.223-2.808-3.359-2.808h-4.248v5.616Zm.071,8.209c2.617,0,4.01-1.176,4.01-3.361s-1.393-3.36-4.01-3.36h-4.295v6.721Z" fill="#fff"/>
      <path id="Path_36933" data-name="Path 36933" d="M462.114,459.454a6.1,6.1,0,1,1,6.1,6.242A5.939,5.939,0,0,1,462.114,459.454Zm6.1,4.849c2.687,0,4.512-2.016,4.512-4.849s-1.825-4.847-4.512-4.847-4.514,2.015-4.514,4.847S465.522,464.3,468.212,464.3Z" fill="#fff"/>
      <path id="Path_36934" data-name="Path 36934" d="M476.419,459.454a6.1,6.1,0,1,1,6.1,6.242A5.937,5.937,0,0,1,476.419,459.454Zm6.1,4.849c2.688,0,4.512-2.016,4.512-4.849s-1.824-4.847-4.512-4.847S478,456.622,478,459.454,479.827,464.3,482.515,464.3Z" fill="#fff"/>
      <path id="Path_36935" data-name="Path 36935" d="M491.635,448.51h1.536v10.3l6.121-5.4h2.063l-5.329,4.7,5.833,7.392h-1.967l-5.041-6.337-1.68,1.488V465.5h-1.536Z" fill="#fff"/>
    </g>
  </g>
</svg>
