<svg xmlns="http://www.w3.org/2000/svg" xmlns:xlink="http://www.w3.org/1999/xlink" width="155" height="33.307" viewBox="0 0 155 33.307">
  <defs>
    <clipPath id="clip-path">
      <rect width="74.65" height="32.307" fill="none"/>
    </clipPath>
    <clipPath id="clip-path-2">
      <rect id="Rectangle_1319" data-name="Rectangle 1319" width="149.65" height="32.307" fill="#fff"/>
    </clipPath>
    <clipPath id="clip-path-4">
      <path id="Path_23328" data-name="Path 23328" d="M46.814,8.477c-6.025,4.042-13.36,12.285-13.669,12.634h0c-2.654,2.79-7.29,7.414-11.221,10.05A12.954,12.954,0,1,1,14.45,7.613c1.941,0,5.263.017,5.263.017l.008-1.52s-3.326-.016-5.27-.016a14.45,14.45,0,1,0,8.323,26.33C28.8,28.382,36.133,20.139,36.442,19.79h0c2.654-2.789,7.29-7.414,11.221-10.05a12.954,12.954,0,1,1,7.477,23.549c-1.941,0-5.263-.016-5.263-.016l-.008,1.52s3.327.016,5.271.016A14.45,14.45,0,1,0,46.814,8.477" transform="translate(0 -5.908)" fill="#fff"/>
    </clipPath>
  </defs>
  <g id="Group_23935" data-name="Group 23935" transform="translate(-24 -11)">
    <g id="Scroll_Group_2" data-name="Scroll Group 2" transform="translate(24 12)" clip-path="url(#clip-path)" style="mix-blend-mode: normal;isolation: isolate">
      <g id="Group_23933" data-name="Group 23933">
        <g id="Group_23928" data-name="Group 23928">
          <g id="Group_23927" data-name="Group 23927" clip-path="url(#clip-path-2)">
            <text id="C" transform="translate(77.669 6.183)" fill="#fff" font-size="7" font-family="Novecento-Book, Novecento Book"><tspan x="0" y="0">C</tspan></text>
            <text id="r" transform="translate(86.148 6.183)" fill="#fff" font-size="7" font-family="Novecento-Book, Novecento Book"><tspan x="0" y="0">r</tspan></text>
            <text id="e" transform="translate(93.776 7.183)" fill="#fff" font-size="8" font-family="Novecento-Book, Novecento Book"><tspan x="0" y="0">e</tspan></text>
            <text id="a" transform="translate(101.246 6.183)" fill="#fff" font-size="7" font-family="Novecento-Book, Novecento Book"><tspan x="0" y="0">a</tspan></text>
            <text id="t" transform="translate(108.8 7.183)" fill="#fff" font-size="8" font-family="Novecento-Book, Novecento Book"><tspan x="0" y="0">t</tspan></text>
            <text id="iv" transform="translate(116.122 6.183)" fill="#fff" font-size="7" font-family="Novecento-Book, Novecento Book"><tspan x="0" y="0" letter-spacing="0.23em">i</tspan><tspan y="0">v</tspan></text>
            <text id="e-2" data-name="e" transform="translate(128.591 7.183)" fill="#fff" font-size="8" font-family="Novecento-Book, Novecento Book"><tspan x="0" y="0">e</tspan></text>
            <text id="_" data-name=" " transform="translate(136.071 7.183)" fill="#fff" font-size="9" font-family="Novecento-Book, Novecento Book"><tspan x="0" y="0"> </tspan></text>
          </g>
        </g>
        <text id="E-3" data-name="E" transform="translate(77.669 18.292)" fill="#fff" font-size="8" font-family="Novecento-Book, Novecento Book"><tspan x="0" y="0">E</tspan></text>
        <text id="x" transform="translate(85.139 17.292)" fill="#fff" font-size="7" font-family="Novecento-Book, Novecento Book"><tspan x="0" y="0">x</tspan></text>
        <text id="p" transform="translate(93.044 18.292)" fill="#fff" font-size="8" font-family="Novecento-Book, Novecento Book"><tspan x="0" y="0">p</tspan></text>
        <text id="eri" transform="translate(100.311 18.292)" fill="#fff" font-size="9" font-family="Novecento-Book, Novecento Book"><tspan x="0" y="0" letter-spacing="0.25em">er</tspan><tspan y="0">i</tspan></text>
        <text id="e-4" data-name="e" transform="translate(119.927 18.292)" fill="#fff" font-size="8" font-family="Novecento-Book, Novecento Book"><tspan x="0" y="0">e</tspan></text>
        <text id="n" transform="translate(127.397 17.292)" fill="#fff" font-size="7" font-family="Novecento-Book, Novecento Book"><tspan x="0" y="0">n</tspan></text>
        <text id="c-2" data-name="c" transform="translate(135.997 17.292)" fill="#fff" font-size="7" font-family="Novecento-Book, Novecento Book"><tspan x="0" y="0">c</tspan></text>
        <g id="Group_23930" data-name="Group 23930">
          <g id="Group_23929" data-name="Group 23929" clip-path="url(#clip-path-2)">
            <text id="e-5" data-name="e" transform="translate(144.485 18.292)" fill="#fff" font-size="8" font-family="Novecento-Book, Novecento Book"><tspan x="0" y="0">e</tspan></text>
            <text id="D" transform="translate(77.668 29.4)" fill="#fff" font-size="9" font-family="Novecento-Book, Novecento Book"><tspan x="0" y="0">D</tspan></text>
            <text id="e-6" data-name="e" transform="translate(86.472 29.4)" fill="#fff" font-size="8" font-family="Novecento-Book, Novecento Book"><tspan x="0" y="0">e</tspan></text>
            <text id="s" transform="translate(93.729 29.4)" fill="#fff" font-size="8" font-family="Novecento-Book, Novecento Book"><tspan x="0" y="0">s</tspan></text>
            <text id="i" transform="translate(101.061 29.4)" fill="#fff" font-size="9" font-family="Novecento-Book, Novecento Book"><tspan x="0" y="0">i</tspan></text>
            <text id="g" transform="translate(105.513 29.4)" fill="#fff" font-size="9" font-family="Novecento-Book, Novecento Book"><tspan x="0" y="0">g</tspan></text>
            <text id="n-2" data-name="n" transform="translate(114.354 28.4)" fill="#fff" font-size="7" font-family="Novecento-Book, Novecento Book"><tspan x="0" y="0">n</tspan></text>
            <text id="s-2" data-name="s" transform="translate(123 29.4)" fill="#fff" font-size="8" font-family="Novecento-Book, Novecento Book"><tspan x="0" y="0">s</tspan></text>
          </g>
        </g>
        <path id="Line_740" data-name="Line 740" d="M3.768,4.033l-6.111-5.5L-1.325-2.6,4.785,2.9Z" transform="translate(29.301 9.915)" fill="#fff"/>
        <path id="Line_741" data-name="Line 741" d="M3.462,3.758l-5.8-5.229L-1.325-2.6l5.8,5.229Z" transform="translate(39.197 19.111)" fill="#fff"/>
        <g id="Group_23932" data-name="Group 23932" transform="translate(0 1.283)">
          <g id="Group_23931" data-name="Group 23931" clip-path="url(#clip-path-4)">
            <rect id="Rectangle_1321" data-name="Rectangle 1321" width="69.587" height="29.085" transform="translate(0 0)" fill="#fff"/>
          </g>
        </g>
      </g>
    </g>
    <g id="Group_23934" data-name="Group 23934" transform="translate(-8 -45)">
      <text id="Experience" transform="translate(110 75)" fill="#fff" font-size="8" font-family="Novecento-Bold, Novecento Bold" font-weight="700" letter-spacing="0.38em"><tspan x="0" y="0">Experience</tspan></text>
      <text id="Creative" transform="translate(110 64)" fill="#fff" font-size="8" font-family="Novecento-Bold, Novecento Bold" font-weight="700" letter-spacing="0.38em"><tspan x="0" y="0">Creative</tspan></text>
      <text id="Designs" transform="translate(110 86)" fill="#fff" font-size="8" font-family="Novecento-Bold, Novecento Bold" font-weight="700" letter-spacing="0.38em"><tspan x="0" y="0">Designs</tspan></text>
    </g>
  </g>
</svg>
