<svg xmlns="http://www.w3.org/2000/svg" width="844" height="473.75" viewBox="0 0 844 473.75">
  <g id="Group_166219" data-name="Group 166219" transform="translate(-273 -10289)">
    <text id="_32px" data-name="32px" transform="translate(640 10305)" fill="#489ef9" font-size="16" font-family="HCLTech Roobert" font-weight="600"><tspan x="-17" y="0">32px</tspan></text>
    <text id="_32px-2" data-name="32px" transform="translate(1033 10305)" fill="#489ef9" font-size="16" font-family="HCLTech Roobert" font-weight="600"><tspan x="-17" y="0">32px</tspan></text>
    <path id="Path_36591" data-name="Path 36591" d="M-9715,20454.064h32" transform="translate(10339.001 -10141.064)" fill="none" stroke="#3c91ff" stroke-width="1"/>
    <path id="Path_76802" data-name="Path 76802" d="M-9715,20454.064h32" transform="translate(10732.502 -10141.064)" fill="none" stroke="#3c91ff" stroke-width="1"/>
    <g id="Large-card-side-image" transform="translate(273 10326)">
      <g id="Group_166207" data-name="Group 166207" transform="translate(-176 -2263)">
        <g id="Group_39640" data-name="Group 39640" transform="translate(534 2287)">
          <g id="Rectangle_19094" data-name="Rectangle 19094" transform="translate(-8 -24)" fill="#fff" stroke="#ccc" stroke-width="1">
            <path d="M0,0H414a12,12,0,0,1,12,12V362a12,12,0,0,1-12,12H0a0,0,0,0,1,0,0V0A0,0,0,0,1,0,0Z" stroke="none"/>
            <path d="M1,.5H414A11.5,11.5,0,0,1,425.5,12V362A11.5,11.5,0,0,1,414,373.5H1a.5.5,0,0,1-.5-.5V1A.5.5,0,0,1,1,.5Z" fill="none"/>
          </g>
          <g id="Group_39639" data-name="Group 39639" transform="translate(0 8)">
            <g id="Group_166195" data-name="Group 166195" transform="translate(24 89)">
              <g id="arrow_right-normal" data-name="arrow right-normal" transform="translate(0 190)">
                <path id="Path_23052" data-name="Path 23052" d="M14.853,7.854a.5.5,0,0,1-.707,0L8,1.707V18.5a.5.5,0,0,1-1,0V1.707L.853,7.854a.5.5,0,0,1-.707-.707l7-7A.5.5,0,0,1,7.307.039a.495.495,0,0,1,.385,0,.5.5,0,0,1,.162.108l7,7A.5.5,0,0,1,14.853,7.854Z" transform="translate(19.001) rotate(90)" fill="#5f1ebe" stroke="#5f1ebe" stroke-width="1"/>
              </g>
            </g>
            <text id="Lorem_ipsum_dolor_sit_amet_consetetur_sadipscing_elitr_sed_diam_nonumy_eirmod_tempor_invidunt_ut_labore_et_dolore_magna_aliquyam_erat_sed_diam_voluptua..." data-name="Lorem ipsum dolor sit amet, consetetur sadipscing elitr, sed diam nonumy eirmod tempor invidunt ut labore et dolore magna aliquyam erat, sed diam voluptua..." transform="translate(24 147)" font-size="16" font-family="HCLTechRoobert-Regular, HCLTech Roobert"><tspan x="0" y="16">Lorem ipsum dolor sit amet, consetetur </tspan><tspan x="0" y="40">sadipscing elitr, sed diam nonumy eirmod tempor </tspan><tspan x="0" y="64">invidunt ut labore et dolore magna aliquyam erat, </tspan><tspan x="0" y="88">sed diam voluptua...</tspan></text>
            <text id="Lorem_ipsum" data-name="Lorem ipsum" transform="translate(24 98)" font-size="20" font-family="HCLTechRoobert-SemiBold, HCLTech Roobert" font-weight="600"><tspan x="0" y="20">Lorem ipsum</tspan></text>
            <text id="Card_Tittle" data-name="Card Tittle" transform="translate(24 16)" font-size="40" font-family="HCLTechRoobert-Bold, HCLTech Roobert" font-weight="700"><tspan x="0" y="40">Card Tittle</tspan></text>
          </g>
        </g>
        <path id="Rectangle_20077" data-name="Rectangle 20077" d="M12,0H350a0,0,0,0,1,0,0V374a0,0,0,0,1,0,0H12A12,12,0,0,1,0,362V12A12,12,0,0,1,12,0Z" transform="translate(176 2263)" fill="#b9c3d0"/>
      </g>
    </g>
    <text id="Max_Height:_800_px" data-name="Max
Height:
800 px" transform="translate(1070 10449.75)" fill="#489ef9" font-size="14" font-family="HCLTech Roobert" font-weight="600"><tspan x="0" y="0">Max</tspan><tspan x="0" y="20">Height:</tspan><tspan x="0" y="40">800 px</tspan></text>
    <path id="Path_36606" data-name="Path 36606" d="M-9715,20454.064h373.5" transform="translate(21516.064 20041.5) rotate(90)" fill="none" stroke="#3c91ff" stroke-width="1"/>
    <rect id="Rectangle_19596" data-name="Rectangle 19596" width="32" height="391" transform="translate(656 10710) rotate(180)" fill="#0157dc" opacity="0.07" style="mix-blend-mode: multiply;isolation: isolate"/>
    <rect id="Rectangle_20140" data-name="Rectangle 20140" width="32" height="391" transform="translate(1049 10710) rotate(180)" fill="#0157dc" opacity="0.07" style="mix-blend-mode: multiply;isolation: isolate"/>
    <rect id="Rectangle_19597" data-name="Rectangle 19597" width="32" height="443" transform="translate(1056 10424) rotate(90)" fill="#0157dc" opacity="0.07" style="mix-blend-mode: multiply;isolation: isolate"/>
    <rect id="Rectangle_19598" data-name="Rectangle 19598" width="48" height="443" transform="translate(1056 10326) rotate(90)" fill="#0157dc" opacity="0.07" style="mix-blend-mode: multiply;isolation: isolate"/>
    <text id="_48px" data-name="48px" transform="translate(580 10351)" fill="#489ef9" font-size="16" font-family="HCLTech Roobert" font-weight="600"><tspan x="-18" y="0">48px</tspan></text>
    <path id="Path_36593" data-name="Path 36593" d="M-9715,20454.064h48" transform="translate(21061.564 20041) rotate(90)" fill="none" stroke="#3c91ff" stroke-width="1"/>
    <rect id="Rectangle_19599" data-name="Rectangle 19599" width="24" height="443" transform="translate(1056 10481) rotate(90)" fill="#0157dc" opacity="0.07" style="mix-blend-mode: multiply;isolation: isolate"/>
    <rect id="Rectangle_19600" data-name="Rectangle 19600" width="40" height="443" transform="translate(1056 10597) rotate(90)" fill="#0157dc" opacity="0.07" style="mix-blend-mode: multiply;isolation: isolate"/>
    <rect id="Rectangle_20139" data-name="Rectangle 20139" width="48" height="443" transform="translate(1056 10652) rotate(90)" fill="#0157dc" opacity="0.07" style="mix-blend-mode: multiply;isolation: isolate"/>
    <text id="_40px" data-name="40px" transform="translate(580 10623)" fill="#489ef9" font-size="16" font-family="HCLTech Roobert" font-weight="600"><tspan x="-18" y="0">40px</tspan></text>
    <text id="_24px" data-name="24px" transform="translate(580 10497)" fill="#489ef9" font-size="16" font-family="HCLTech Roobert" font-weight="600"><tspan x="-18" y="0">24px</tspan></text>
    <text id="_32px-3" data-name="32px" transform="translate(580 10446)" fill="#489ef9" font-size="16" font-family="HCLTech Roobert" font-weight="600"><tspan x="-17" y="0">32px</tspan></text>
    <text id="_48px-2" data-name="48px" transform="translate(581 10682)" fill="#489ef9" font-size="16" font-family="HCLTech Roobert" font-weight="600"><tspan x="-18" y="0">48px</tspan></text>
    <path id="Path_36594" data-name="Path 36594" d="M-9715,20454.064h40" transform="translate(21061.564 20312) rotate(90)" fill="none" stroke="#3c91ff" stroke-width="1"/>
    <path id="Path_76803" data-name="Path 76803" d="M-9715,20454.064h24" transform="translate(21061.564 20196) rotate(90)" fill="none" stroke="#3c91ff" stroke-width="1"/>
    <path id="Path_76804" data-name="Path 76804" d="M-9715,20454.064h32" transform="translate(21061.564 20139) rotate(90)" fill="none" stroke="#3c91ff" stroke-width="1"/>
    <path id="Path_36595" data-name="Path 36595" d="M-9715,20454.064h47" transform="translate(21061.564 20368) rotate(90)" fill="none" stroke="#3c91ff" stroke-width="1"/>
    <text id="Width:_1200_px" data-name="Width: 1200 px" transform="translate(572.5 10758.75)" fill="#489ef9" font-size="14" font-family="HCLTech Roobert" font-weight="600"><tspan x="0" y="0">Width: 1200 px</tspan></text>
    <path id="Path_76805" data-name="Path 76805" d="M-9715,20454.064h776.5" transform="translate(-8665.502 31192.064) rotate(180)" fill="none" stroke="#3c91ff" stroke-width="1"/>
  </g>
</svg>
