<svg xmlns="http://www.w3.org/2000/svg" xmlns:xlink="http://www.w3.org/1999/xlink" width="515.707" height="365.487" viewBox="0 0 515.707 365.487">
  <defs>
    <clipPath id="clip-path">
      <rect id="Rectangle_1265" data-name="Rectangle 1265" width="99.542" height="176.918" fill="none"/>
    </clipPath>
    <clipPath id="clip-path-2">
      <rect id="Rectangle_1267" data-name="Rectangle 1267" width="57.037" height="113.319" fill="none"/>
    </clipPath>
    <clipPath id="clip-path-3">
      <rect id="Rectangle_1306" data-name="Rectangle 1306" width="238.172" height="241.702" fill="none"/>
    </clipPath>
    <clipPath id="clip-path-4">
      <rect id="Rectangle_1281" data-name="Rectangle 1281" width="64.636" height="35.075" fill="none"/>
    </clipPath>
    <clipPath id="clip-path-5">
      <rect id="Rectangle_1282" data-name="Rectangle 1282" width="10.182" height="11.716" fill="none"/>
    </clipPath>
    <clipPath id="clip-path-10">
      <rect id="Rectangle_1287" data-name="Rectangle 1287" width="69.864" height="35.075" fill="none"/>
    </clipPath>
    <clipPath id="clip-path-11">
      <rect id="Rectangle_1288" data-name="Rectangle 1288" width="11.005" height="11.716" fill="none"/>
    </clipPath>
    <clipPath id="clip-path-12">
      <rect id="Rectangle_1292" data-name="Rectangle 1292" width="31.747" height="36.39" fill="none"/>
    </clipPath>
    <clipPath id="clip-path-13">
      <rect id="Rectangle_1293" data-name="Rectangle 1293" width="3.116" height="19.219" fill="none"/>
    </clipPath>
  </defs>
  <g id="Group_23924" data-name="Group 23924" transform="translate(-10713 -2723.623)">
    <path id="Path_23010" data-name="Path 23010" d="M95.8,244.225H56.865V205.292H95.8ZM57.71,243.38H94.953V206.137H57.71Z" transform="translate(10704.186 2691.803)" fill="#e0e0e0"/>
    <path id="Path_23011" data-name="Path 23011" d="M95.453,205.792c.086.086-8.371,8.682-18.887,19.2s-19.116,18.975-19.2,18.889,8.37-8.681,18.889-19.2,19.113-18.974,19.2-18.887" transform="translate(10704.109 2691.725)" fill="#e0e0e0"/>
    <path id="Path_23012" data-name="Path 23012" d="M93.725,244.247a2.367,2.367,0,0,1-.341-.4l-.908-1.191c-.777-1.043-1.916-2.539-3.344-4.372-2.852-3.668-6.926-8.633-11.731-13.844s-9.436-9.667-12.864-12.8c-1.714-1.569-3.114-2.825-4.091-3.682l-1.114-1a2.341,2.341,0,0,1-.369-.372,2.339,2.339,0,0,1,.427.3l1.168.939c1.012.818,2.445,2.039,4.188,3.581,3.487,3.082,8.157,7.515,12.979,12.735s8.862,10.232,11.656,13.954c1.4,1.86,2.5,3.387,3.235,4.461l.842,1.24a2.328,2.328,0,0,1,.269.45" transform="translate(10703.86 2691.602)" fill="#e0e0e0"/>
    <g id="Group_23874" data-name="Group 23874" transform="translate(11108.867 2908.394)" opacity="0.4">
      <g id="Group_23873" data-name="Group 23873">
        <g id="Group_23872" data-name="Group 23872" clip-path="url(#clip-path)">
          <path id="Path_23013" data-name="Path 23013" d="M491.135,331.264A28.94,28.94,0,0,0,478.753,327c-2.024-.207-4.234-.149-5.857,1.077a1.2,1.2,0,0,0-.6,1.069,1.3,1.3,0,0,0,.573.732,17.7,17.7,0,0,0,18.269,1.384" transform="translate(-469.072 -235.442)" fill="#e0e0e0"/>
          <path id="Path_23014" data-name="Path 23014" d="M491.8,328.087a60.389,60.389,0,0,1-8-7.036,20.232,20.232,0,0,1-5.014-9.273,3.741,3.741,0,0,1,.4-3.1c6.375,4.978,11.382,11.418,12.615,19.411" transform="translate(-470.058 -232.616)" fill="#e0e0e0"/>
          <path id="Path_23015" data-name="Path 23015" d="M494.44,328.491a28.955,28.955,0,0,1,.148-10.5,14.194,14.194,0,0,1,5.594-8.664c1.1,2.575.628,5.541-.149,8.231a39.97,39.97,0,0,1-5.546,11.676" transform="translate(-472.443 -232.717)" fill="#e0e0e0"/>
          <path id="Path_23016" data-name="Path 23016" d="M499.047,345.258a18.3,18.3,0,0,0-9.93,5.026,18.782,18.782,0,0,0-5.68,9.75c3.721-.23,6.877-2.854,9.167-5.8s3.875-6.17,6.391-8.922" transform="translate(-470.801 -238.286)" fill="#e0e0e0"/>
          <path id="Path_23017" data-name="Path 23017" d="M503.2,343.128a24.49,24.49,0,0,1,2.828-23.167c2.161,7.688,1.367,16.372-2.828,23.167" transform="translate(-473.6 -234.365)" fill="#e0e0e0"/>
          <path id="Path_23018" data-name="Path 23018" d="M510.135,359.006a17.71,17.71,0,0,0-16.933,9.747c-.21.42-.4.952-.114,1.328a1.26,1.26,0,0,0,1.123.331c3.337-.216,6.294-2.225,8.735-4.511s4.567-4.928,7.263-6.905" transform="translate(-472.275 -240.412)" fill="#e0e0e0"/>
          <path id="Path_23019" data-name="Path 23019" d="M512.716,354.075a31.541,31.541,0,0,1-.315-17.617c.621-2.268,1.663-4.655,3.76-5.718a.733.733,0,0,1,.575-.1.755.755,0,0,1,.363.421,10.614,10.614,0,0,1,.886,5.055,31.541,31.541,0,0,1-.792,5.116c-.66,3.127-1.012,6.488-2.727,9.185a18.673,18.673,0,0,0-1.09,2.017c-.324.685-.327.927-.625,1.472" transform="translate(-475.119 -236.016)" fill="#e0e0e0"/>
          <path id="Path_23020" data-name="Path 23020" d="M538.73,358.672A22.712,22.712,0,0,1,542.71,340c.286-.373.665-.772,1.131-.728.715.066.9,1.018.869,1.736a33.745,33.745,0,0,1-5.981,17.667" transform="translate(-479.277 -237.357)" fill="#e0e0e0"/>
          <path id="Path_23021" data-name="Path 23021" d="M541.174,362.643a27.166,27.166,0,0,0,22.293-4.534,18.049,18.049,0,0,0-12.069-1.48c-4.031.922-7.715,2.728-10.224,6.015" transform="translate(-479.75 -239.98)" fill="#e0e0e0"/>
          <path id="Path_23022" data-name="Path 23022" d="M543.14,356.827a25.763,25.763,0,0,1,20.232-11.7c-.922,3.257-3.6,5.787-6.617,7.317a36.764,36.764,0,0,1-9.712,2.84c-1.293.251-3.066.526-3.9,1.542" transform="translate(-480.055 -238.266)" fill="#e0e0e0"/>
          <path id="Path_23023" data-name="Path 23023" d="M538.8,331.1a58.792,58.792,0,0,0,2.587-11.849,19.719,19.719,0,0,0-2.36-11.721c-3.915,7.575-4.311,16.427-.345,23.976" transform="translate(-478.932 -232.438)" fill="#e0e0e0"/>
          <path id="Path_23024" data-name="Path 23024" d="M554.933,324.622c4.578-8.321,13.919-14.968,23.37-15.9-3.646,9.078-13.589,16.094-23.37,15.9" transform="translate(-481.883 -232.623)" fill="#e0e0e0"/>
          <path id="Path_23025" data-name="Path 23025" d="M551.524,329.218c6.828,1.04,12.646,5.4,19.026,8.044a8.526,8.526,0,0,0,4.3.824,3.367,3.367,0,0,0,2.108-5.956,9.217,9.217,0,0,0-3.125-1.9c-6.949-2.893-14.4-2.965-21.723-1.211" transform="translate(-481.354 -235.588)" fill="#e0e0e0"/>
          <path id="Path_23026" data-name="Path 23026" d="M546.848,335.074c1.545.443,2.074,1.243,3.3,2.286a35.592,35.592,0,0,0,14.427,7.411c.551.138,1.274.192,1.547-.306.238-.435-.063-.962-.373-1.349a19.859,19.859,0,0,0-8.711-5.913c-3.329-1.24-6.214-2.734-10.188-2.414" transform="translate(-480.63 -236.657)" fill="#e0e0e0"/>
          <path id="Path_23027" data-name="Path 23027" d="M541.572,300.77a27.3,27.3,0,0,0,20.933,7.122,1.434,1.434,0,0,0,.953-.341c.526-.574-.106-1.458-.719-1.937-6.155-4.8-13.61-6.788-21.167-4.844" transform="translate(-479.812 -231.276)" fill="#e0e0e0"/>
          <path id="Path_23028" data-name="Path 23028" d="M547.828,297.574a29.176,29.176,0,0,1,26.121-4.31,20.735,20.735,0,0,1-12.447,5.465,39.4,39.4,0,0,1-13.674-1.154" transform="translate(-480.782 -230.014)" fill="#e0e0e0"/>
          <path id="Path_23029" data-name="Path 23029" d="M544.694,279.5c-.6-6.143-.212-10.992-.639-17.164-.034-.493-.14-1.087-.6-1.264-.642-.248-1.178.542-1.388,1.2a19.674,19.674,0,0,0,2.619,17.1" transform="translate(-479.749 -225.23)" fill="#e0e0e0"/>
          <path id="Path_23030" data-name="Path 23030" d="M544.818,280.149a36.119,36.119,0,0,0,10.176-9.89c2.01-2.75,3.7-6.044,3.247-9.42a9.738,9.738,0,0,0-7.34,3.645,20.472,20.472,0,0,0-3.742,7.528c-.815,2.7-1.386,5.481-2.342,8.137" transform="translate(-480.315 -225.201)" fill="#e0e0e0"/>
          <path id="Path_23031" data-name="Path 23031" d="M556.625,277.582a82.032,82.032,0,0,0,25.042-14.766c-2.991-1.2-6.415-.483-9.406.723a29.661,29.661,0,0,0-15.768,13.976" transform="translate(-482.125 -225.411)" fill="#e0e0e0"/>
          <path id="Path_23032" data-name="Path 23032" d="M548.145,286.339a50.926,50.926,0,0,0,13.905.068c4.508-.753,8.768-2.54,12.981-4.313a1.526,1.526,0,0,0,.882-.67,1.013,1.013,0,0,0-.316-1.11,2.675,2.675,0,0,0-1.107-.519,24.033,24.033,0,0,0-14.029.838,65.034,65.034,0,0,0-12.317,5.706" transform="translate(-480.831 -228.031)" fill="#e0e0e0"/>
          <path id="Path_23033" data-name="Path 23033" d="M516.481,297.421a24.6,24.6,0,0,1-.225-20.357c1.918,2.922,2.152,6.643,1.8,10.121s-1.409,7.057-1.478,10.552" transform="translate(-475.564 -227.716)" fill="#e0e0e0"/>
          <path id="Path_23034" data-name="Path 23034" d="M498.126,293.633a28.392,28.392,0,0,0-21.1,8.988,19.722,19.722,0,0,0,11.554-2.142,58.822,58.822,0,0,0,9.9-6.626" transform="translate(-469.807 -230.284)" fill="#e0e0e0"/>
          <path id="Path_23035" data-name="Path 23035" d="M488.33,290.214c-3.852-.313-7.559-.789-11.263.346a13.508,13.508,0,0,0-8.584,7.279,20.349,20.349,0,0,0,10.559-1.993,60.717,60.717,0,0,0,9.288-5.631" transform="translate(-468.483 -229.697)" fill="#e0e0e0"/>
          <path id="Path_23036" data-name="Path 23036" d="M502.671,289.35c-3.465-2.271-7.024-4.583-11.059-5.524s-8.711-.245-11.525,2.8c3.267,1.917,7.23,2.143,11.016,2.14s8.431-.046,12,1.218" transform="translate(-470.282 -228.704)" fill="#e0e0e0"/>
          <path id="Path_23037" data-name="Path 23037" d="M505.6,286.209c-5.925-5.818-8.17-16.269-5.787-24.223a36.906,36.906,0,0,1,5.787,24.223" transform="translate(-473.195 -225.379)" fill="#e0e0e0"/>
          <path id="Path_23038" data-name="Path 23038" d="M526.118,267.637c1.117-2.6,1.9-5.323,2.906-7.968a22.891,22.891,0,0,1,4.142-7.346,10.914,10.914,0,0,1,7.338-3.8,29.554,29.554,0,0,1-14.241,19.158" transform="translate(-477.417 -223.292)" fill="#e0e0e0"/>
          <path id="Path_23039" data-name="Path 23039" d="M519.818,273.294c-1.849-2.545-3.985-6-6.493-7.9s-5.773-3.049-8.833-2.32a20.574,20.574,0,0,0,15.326,10.219" transform="translate(-474.064 -225.513)" fill="#e0e0e0"/>
          <path id="Path_23040" data-name="Path 23040" d="M522.752,267.893a43.965,43.965,0,0,1-2.923-9.465,14.765,14.765,0,0,1,1.482-9.625c3.251,6.147,4.3,12.747,1.606,19.159" transform="translate(-476.409 -223.336)" fill="#e0e0e0"/>
          <path id="Path_23041" data-name="Path 23041" d="M526.153,246.414c1.842-6.094,7.422-10.581,13.447-12.64a5.01,5.01,0,0,1,2.357-.354,2.047,2.047,0,0,1,1.737,1.451c.221,1.037-.636,1.965-1.442,2.654a45.759,45.759,0,0,1-16.1,8.889" transform="translate(-477.422 -220.946)" fill="#e0e0e0"/>
          <path id="Path_23042" data-name="Path 23042" d="M526.214,239.148c.234-3.929.479-7.916,1.758-11.639s3.741-7.215,7.324-8.845c.609,3.968-1.142,7.917-3.253,11.331s-4.657,6.638-5.925,10.448" transform="translate(-477.417 -218.664)" fill="#e0e0e0"/>
          <path id="Path_23043" data-name="Path 23043" d="M524.022,242.187c-1.523-4.441-1.68-10.083-4.339-13.952-1.86-2.7-4.837-4.548-6.439-7.412a11.274,11.274,0,0,0,.375,8.415,24.359,24.359,0,0,0,4.92,7.043c1.968,2.1,3.654,3.683,5.483,5.907" transform="translate(-475.32 -218.999)" fill="#e0e0e0"/>
          <path id="Path_23044" data-name="Path 23044" d="M526.111,376.62c-.118,0-.221-29.629-.229-66.169s.081-66.175.2-66.175.221,29.622.229,66.175-.081,66.169-.2,66.169" transform="translate(-477.38 -222.634)" fill="#e0e0e0"/>
          <path id="Path_23045" data-name="Path 23045" d="M552.037,295.863a6.3,6.3,0,0,1-1.114.418l-3.066,1.034c-2.586.88-6.136,2.156-9.99,3.736-3.816,1.637-7.415,2.966-9.465,4.741a6.945,6.945,0,0,0-1.9,2.516c-.294.7-.346,1.121-.386,1.114a.856.856,0,0,1,.013-.311,4.678,4.678,0,0,1,.218-.864,6.682,6.682,0,0,1,1.855-2.682,16.654,16.654,0,0,1,4.107-2.551c1.643-.766,3.464-1.566,5.4-2.36,3.866-1.584,7.444-2.819,10.059-3.628,1.305-.407,2.372-.707,3.111-.906a6.368,6.368,0,0,1,1.162-.259" transform="translate(-477.415 -230.629)" fill="#e0e0e0"/>
          <path id="Path_23046" data-name="Path 23046" d="M560.9,271.193a1.869,1.869,0,0,1-.312.334l-.951.892-3.549,3.224-11.813,10.519c-4.612,4.105-8.6,8.027-11.358,10.98-1.383,1.474-2.473,2.7-3.215,3.55l-.859.98a1.849,1.849,0,0,1-.32.325,1.81,1.81,0,0,1,.253-.379c.179-.238.44-.593.8-1.033.7-.887,1.762-2.143,3.12-3.647a149.592,149.592,0,0,1,11.3-11.095c4.627-4.095,8.839-7.774,11.9-10.426l3.639-3.123,1-.832a1.828,1.828,0,0,1,.369-.269" transform="translate(-477.789 -226.806)" fill="#e0e0e0"/>
          <path id="Path_23047" data-name="Path 23047" d="M541.269,291.966c-.121-.054.843-2.278,1.8-5.091s1.425-5.187,1.547-5.166a17.36,17.36,0,0,1-1.142,5.3,34.466,34.466,0,0,1-1.435,3.561,5.527,5.527,0,0,1-.773,1.393" transform="translate(-479.763 -228.436)" fill="#e0e0e0"/>
          <path id="Path_23048" data-name="Path 23048" d="M523.035,311.1a5.323,5.323,0,0,1-.711-.825l-1.82-2.335c-1.529-1.976-3.644-4.7-6.013-7.69s-4.549-5.665-6.126-7.6l-1.861-2.3a5.238,5.238,0,0,1-.641-.88,5.377,5.377,0,0,1,.769.772c.474.514,1.146,1.271,1.965,2.216,1.639,1.89,3.857,4.541,6.23,7.532s4.451,5.75,5.919,7.775c.734,1.012,1.319,1.839,1.713,2.418a5.29,5.29,0,0,1,.576.924" transform="translate(-474.277 -229.639)" fill="#e0e0e0"/>
          <path id="Path_23049" data-name="Path 23049" d="M518.925,304.8a10.438,10.438,0,0,1-2.379-4.452,12.724,12.724,0,0,1-.539-4.489l.189.015c-.084.343-.147.525-.181.519s-.035-.2-.007-.549l.189.016a20.417,20.417,0,0,0,.759,4.366,33.25,33.25,0,0,0,1.968,4.575" transform="translate(-475.845 -230.627)" fill="#e0e0e0"/>
          <path id="Path_23050" data-name="Path 23050" d="M508.441,295.2a7.627,7.627,0,0,0-1.661-.964,11.1,11.1,0,0,0-4.61-.367,28.5,28.5,0,0,0-4.642.749,14.059,14.059,0,0,1-1.911.459,6.638,6.638,0,0,1,1.829-.75,21.192,21.192,0,0,1,4.692-.885,10.067,10.067,0,0,1,4.756.513,2.943,2.943,0,0,1,1.547,1.246" transform="translate(-472.689 -230.245)" fill="#e0e0e0"/>
          <path id="Path_23051" data-name="Path 23051" d="M505.431,292.391c-.033.067-.968-.388-2.544-.926a25.586,25.586,0,0,0-12.82-.978c-1.64.293-2.632.6-2.655.53a2.435,2.435,0,0,1,.674-.287,15.772,15.772,0,0,1,1.922-.539,22.619,22.619,0,0,1,12.983.99,15.867,15.867,0,0,1,1.817.825,2.428,2.428,0,0,1,.624.386" transform="translate(-471.417 -229.67)" fill="#e0e0e0"/>
          <path id="Path_23052" data-name="Path 23052" d="M525.511,279.325a52.5,52.5,0,0,1-1.856-6.445,52.464,52.464,0,0,1-1.44-6.55,52.95,52.95,0,0,1,1.855,6.446,52.716,52.716,0,0,1,1.44,6.55" transform="translate(-476.81 -226.052)" fill="#e0e0e0"/>
          <path id="Path_23053" data-name="Path 23053" d="M525.324,280.427a31.036,31.036,0,0,0-2.057-3.858,16.915,16.915,0,0,0-3.026-3.123,2.8,2.8,0,0,1,1.168.6,9.4,9.4,0,0,1,2.209,2.276,8.553,8.553,0,0,1,1.706,4.1" transform="translate(-476.505 -227.154)" fill="#e0e0e0"/>
          <path id="Path_23054" data-name="Path 23054" d="M521.174,374.271c-.047.007-.133-.712-.467-1.97a28.05,28.05,0,0,0-1.98-5.129,71.015,71.015,0,0,0-10.505-14.8c-2.345-2.68-4.62-5.208-6.552-7.628a53.5,53.5,0,0,1-4.685-6.757,32.389,32.389,0,0,1-2.365-5.014c-.218-.618-.377-1.1-.465-1.434a2.4,2.4,0,0,1-.122-.512c.038-.012.254.678.742,1.886a36.6,36.6,0,0,0,2.471,4.921,56.634,56.634,0,0,0,4.731,6.663c1.938,2.4,4.217,4.909,6.567,7.594A67.28,67.28,0,0,1,519,367.04a25.553,25.553,0,0,1,1.868,5.221,14.378,14.378,0,0,1,.263,1.486,2.476,2.476,0,0,1,.043.524" transform="translate(-472.443 -236.08)" fill="#e0e0e0"/>
          <path id="Path_23055" data-name="Path 23055" d="M549.55,350.93a10.734,10.734,0,0,1-1.226.689,26.756,26.756,0,0,0-3.181,2.1,36.438,36.438,0,0,0-4.177,3.809c-1.466,1.549-2.976,3.348-4.518,5.274-3.082,3.867-5.963,7.288-7.689,10.019-.876,1.355-1.513,2.5-1.931,3.3a10.56,10.56,0,0,1-.675,1.234,1.18,1.18,0,0,1,.114-.348c.091-.221.215-.552.411-.961a31.3,31.3,0,0,1,1.824-3.386,110.242,110.242,0,0,1,7.612-10.126c1.545-1.931,3.073-3.733,4.567-5.28a33.874,33.874,0,0,1,4.28-3.779,22.391,22.391,0,0,1,3.285-2.008c.406-.2.738-.33.957-.423a1.17,1.17,0,0,1,.346-.117" transform="translate(-477.421 -239.165)" fill="#e0e0e0"/>
          <path id="Path_23056" data-name="Path 23056" d="M551.417,361.07a17.825,17.825,0,0,1-2.592.376,34.242,34.242,0,0,0-6.146,1.211,18.484,18.484,0,0,0-5.5,2.888c-1.269.98-1.867,1.791-1.926,1.744a1.965,1.965,0,0,1,.383-.6,9.8,9.8,0,0,1,1.351-1.382,16.65,16.65,0,0,1,5.563-3.061,27.749,27.749,0,0,1,6.248-1.1,14.242,14.242,0,0,1,2.622-.075" transform="translate(-478.831 -240.732)" fill="#e0e0e0"/>
          <path id="Path_23057" data-name="Path 23057" d="M536.143,365.71c-.135-.077,1.033-1.861,1.938-4.26.851-2.422,1.049-4.545,1.2-4.521a4.138,4.138,0,0,1-.043,1.391,14.931,14.931,0,0,1-.756,3.276,15.876,15.876,0,0,1-1.5,3,4.194,4.194,0,0,1-.838,1.109" transform="translate(-478.969 -240.095)" fill="#e0e0e0"/>
          <path id="Path_23058" data-name="Path 23058" d="M557.129,323.692a1.959,1.959,0,0,1-.415.221l-1.218.554c-.534.229-1.181.519-1.91.9s-1.587.767-2.477,1.3l-1.414.8c-.491.281-.976.616-1.492.94-1.043.632-2.086,1.411-3.2,2.206a54.906,54.906,0,0,0-12.328,12.757c-.757,1.142-1.5,2.211-2.1,3.274-.305.527-.624,1.023-.888,1.523l-.756,1.441c-.5.908-.864,1.775-1.216,2.52s-.627,1.4-.837,1.94l-.512,1.236a1.865,1.865,0,0,1-.206.422,1.941,1.941,0,0,1,.125-.45c.116-.335.26-.755.438-1.268.187-.552.433-1.221.773-1.976s.676-1.639,1.165-2.56l.735-1.463c.259-.507.571-1.011.872-1.545.587-1.078,1.324-2.163,2.077-3.319A52.9,52.9,0,0,1,544.767,330.3c1.13-.792,2.189-1.565,3.246-2.189.524-.319,1.016-.649,1.513-.925l1.436-.784c.9-.521,1.773-.893,2.518-1.251s1.4-.635,1.949-.841l1.252-.481a1.923,1.923,0,0,1,.446-.14" transform="translate(-477.423 -234.943)" fill="#e0e0e0"/>
          <path id="Path_23059" data-name="Path 23059" d="M540.894,337.807a2.98,2.98,0,0,1,1.018-1.517,6.426,6.426,0,0,1,4.1-1.573,11.219,11.219,0,0,1,4.317.843,6.178,6.178,0,0,1,1.633.793,9.962,9.962,0,0,1-1.732-.507,13.068,13.068,0,0,0-4.2-.7,6.681,6.681,0,0,0-3.918,1.376,12.1,12.1,0,0,0-1.216,1.287" transform="translate(-479.706 -236.652)" fill="#e0e0e0"/>
          <path id="Path_23060" data-name="Path 23060" d="M537.618,340.332a10.952,10.952,0,0,0,.9-7.746,2.5,2.5,0,0,1,.482,1.1,7.833,7.833,0,0,1-.663,5.679c-.362.655-.681.993-.722.963" transform="translate(-479.198 -236.322)" fill="#e0e0e0"/>
          <path id="Path_23061" data-name="Path 23061" d="M501.936,387.228c.639,11.323,4.051,22.839,9.3,34.481h22.823c5-11.527,8.181-23.025,8.747-34.481Z" transform="translate(-473.668 -244.792)" fill="#e0e0e0"/>
          <path id="Path_23062" data-name="Path 23062" d="M539.765,408.873c0,.118-7.515.214-16.782.214s-16.783-.1-16.783-.214,7.513-.214,16.783-.214,16.782.1,16.782.214" transform="translate(-474.329 -248.114)" fill="#fafafa"/>
          <path id="Path_23063" data-name="Path 23063" d="M539.546,413.727c0,.118-7.044.214-15.731.214s-15.735-.1-15.735-.214,7.043-.214,15.735-.214,15.731.1,15.731.214" transform="translate(-474.621 -248.866)" fill="#fafafa"/>
          <path id="Path_23064" data-name="Path 23064" d="M513.337,396.027a64.71,64.71,0,0,1,0,10.513,64.747,64.747,0,0,1,0-10.513" transform="translate(-475.402 -246.156)" fill="#fafafa"/>
          <path id="Path_23065" data-name="Path 23065" d="M527.808,396.027a69.373,69.373,0,0,1,0,10.888,69.432,69.432,0,0,1,0-10.888" transform="translate(-477.645 -246.156)" fill="#fafafa"/>
          <path id="Path_23066" data-name="Path 23066" d="M541.393,395.917a72.267,72.267,0,0,1,0,11.1,72.184,72.184,0,0,1,0-11.1" transform="translate(-479.751 -246.138)" fill="#fafafa"/>
          <path id="Path_23067" data-name="Path 23067" d="M542.221,395.988c0,.118-8.813.214-19.682.214s-19.685-.1-19.685-.214,8.812-.215,19.685-.215,19.682.1,19.682.215" transform="translate(-473.81 -246.116)" fill="#fafafa"/>
        </g>
      </g>
    </g>
    <path id="Path_23068" data-name="Path 23068" d="M522.862,72.2H516.63V70.949h6.232Zm-12.465,0h-6.232V70.949H510.4Zm-12.465,0H491.7V70.949h6.232Zm-12.464,0h-6.232V70.949h6.232Zm38.016-1.371h-1.246V64.592h1.246ZM475,70.2h-1.246V63.969H475Zm48.486-11.842h-1.246V52.128h1.246ZM475,57.737h-1.246V51.506H475Zm48.486-11.843h-1.246V39.663h1.246ZM475,45.273h-1.246V39.041H475Zm48.486-11.842h-1.246V27.2h1.246ZM475,32.809h-1.246V26.577H475Zm45.744-9.1H514.51V22.463h6.232Zm-12.464,0h-6.232V22.463h6.232Zm-12.466,0h-6.231V22.463h6.231Zm-12.463,0h-6.232V22.463h6.232Z" transform="translate(10639.568 2720.142)" fill="#e0e0e0"/>
    <path id="Path_23069" data-name="Path 23069" d="M474.142,27.677a4.585,4.585,0,1,1,4.585-4.586,4.591,4.591,0,0,1-4.585,4.586m0-7.924a3.339,3.339,0,1,0,3.339,3.339,3.343,3.343,0,0,0-3.339-3.339" transform="translate(10640.218 2720.755)" fill="#e0e0e0"/>
    <path id="Path_23070" data-name="Path 23070" d="M530.732,27.677a4.585,4.585,0,1,1,4.585-4.586,4.591,4.591,0,0,1-4.585,4.586m0-7.924a3.339,3.339,0,1,0,3.339,3.339,3.343,3.343,0,0,0-3.339-3.339" transform="translate(10631.446 2720.755)" fill="#e0e0e0"/>
    <path id="Path_23071" data-name="Path 23071" d="M474.142,85.869a4.585,4.585,0,1,1,4.585-4.586,4.591,4.591,0,0,1-4.585,4.586m0-7.924a3.339,3.339,0,1,0,3.339,3.339,3.343,3.343,0,0,0-3.339-3.339" transform="translate(10640.218 2711.735)" fill="#e0e0e0"/>
    <path id="Path_23072" data-name="Path 23072" d="M530.732,85.869a4.585,4.585,0,1,1,4.585-4.586,4.591,4.591,0,0,1-4.585,4.586m0-7.924a3.339,3.339,0,1,0,3.339,3.339,3.343,3.343,0,0,0-3.339-3.339" transform="translate(10631.446 2711.735)" fill="#e0e0e0"/>
    <path id="Path_23073" data-name="Path 23073" d="M500.343,40.63h-8.971V36.377h22.968V40.63h-8.971V63.442h-5.026Z" transform="translate(10636.836 2717.985)" fill="#e0e0e0"/>
    <g id="Group_23877" data-name="Group 23877" transform="translate(10741.036 2973.814)" opacity="0.4">
      <g id="Group_23876" data-name="Group 23876">
        <g id="Group_23875" data-name="Group 23875" clip-path="url(#clip-path-2)">
          <path id="Path_23074" data-name="Path 23074" d="M54.453,351.778a18.591,18.591,0,0,1,11.533-1.4c2.091.346,4.273.973,5.7,2.543s1.693,4.337.058,5.688a5.459,5.459,0,0,1-3.591.911c-3.049-.035-6.432-.572-8.867,1.262-1.389,1.046-2.314,2.786-3.976,3.3a3.928,3.928,0,0,1-4.321-1.922A6.711,6.711,0,0,1,50.5,357.2a7.562,7.562,0,0,1,3.956-5.427" transform="translate(-15.825 -304.449)" fill="#ebebeb"/>
          <path id="Path_23075" data-name="Path 23075" d="M45.344,327.9c2.145,3.063,6.314,2.049,8.246.179s2.75-4.58,3.494-7.164c1.7-5.9,3.412-12.1,2.149-18.113a10.067,10.067,0,0,0-2.314-4.925,5.259,5.259,0,0,0-4.982-1.658c-2.1.556-3.408,2.614-4.352,4.573a43.157,43.157,0,0,0-4.266,18.528c-.011,2.985.341,6.114,2.025,8.578" transform="translate(-14.751 -296.084)" fill="#ebebeb"/>
          <path id="Path_23076" data-name="Path 23076" d="M34.213,334.1a11.151,11.151,0,0,0,1.736-10.257,19.783,19.783,0,0,0-6.076-8.813,32.7,32.7,0,0,0-10.879-6.419,11.6,11.6,0,0,0-4.894-.831,5.135,5.135,0,0,0-4.106,2.484c-1.145,2.183-.047,4.833,1.141,6.993a82.84,82.84,0,0,0,7.145,10.881c2.141,2.761,4.6,5.485,7.859,6.733s6.654,1.1,8.385-1.163" transform="translate(-9.511 -297.892)" fill="#ebebeb"/>
          <path id="Path_23077" data-name="Path 23077" d="M45.536,383.256a6.629,6.629,0,0,0,.194-1.392c.1-1.013.222-2.286.369-3.8a54.923,54.923,0,0,1,.855-5.573,42.913,42.913,0,0,1,2.025-6.576,24.279,24.279,0,0,1,3.359-5.951,12.545,12.545,0,0,1,4.245-3.529,11.865,11.865,0,0,1,3.576-1.113,6.656,6.656,0,0,0,1.386-.2,6.569,6.569,0,0,0-1.41-.022,10.864,10.864,0,0,0-3.729.97,12.534,12.534,0,0,0-4.479,3.561,23.689,23.689,0,0,0-3.481,6.071,40.189,40.189,0,0,0-2.011,6.684,47.228,47.228,0,0,0-.741,5.643c-.121,1.613-.166,2.919-.188,3.823a6.589,6.589,0,0,0,.03,1.405" transform="translate(-15.089 -305.229)" fill="#e0e0e0"/>
          <path id="Path_23078" data-name="Path 23078" d="M45.8,373.445a2.772,2.772,0,0,0,.037-.646c0-.485,0-1.1-.005-1.847,0-1.6,0-3.922.083-6.786.142-5.729.635-11.9,1.588-20.588.9-8.174,2.113-17.686,3.391-23.87.274-1.407.55-2.673.81-3.781s.46-2.069.663-2.843c.176-.729.319-1.324.432-1.8a2.774,2.774,0,0,0,.113-.637,2.708,2.708,0,0,0-.225.606c-.14.465-.318,1.05-.536,1.769-.238.768-.482,1.72-.76,2.826s-.595,2.367-.895,3.771a209.417,209.417,0,0,0-3.565,22.149c-.955,8.711-1.385,16.642-1.423,22.385-.034,2.872.027,5.2.1,6.8l.112,1.846a2.741,2.741,0,0,0,.079.641" transform="translate(-15.089 -298.342)" fill="#e0e0e0"/>
          <path id="Path_23079" data-name="Path 23079" d="M42.144,359.006a12.3,12.3,0,0,0-.014-1.929c-.071-1.24-.242-3.033-.591-5.228a69.075,69.075,0,0,0-1.7-7.616,62.383,62.383,0,0,0-3.185-9.012A48.013,48.013,0,0,0,27.3,320.658a23.811,23.811,0,0,0-2.2-2.046c-.337-.286-.635-.57-.94-.8l-.853-.589a12.323,12.323,0,0,0-1.625-1.039,57.4,57.4,0,0,1,5.324,4.75,50.575,50.575,0,0,1,9.12,14.511,71.147,71.147,0,0,1,3.2,8.929,77.368,77.368,0,0,1,1.809,7.541c.4,2.172.63,3.947.768,5.176a12.433,12.433,0,0,0,.237,1.911" transform="translate(-11.397 -299.2)" fill="#e0e0e0"/>
          <path id="Path_23080" data-name="Path 23080" d="M28.4,398.795l1.533,21H56.911l1.534-21Z" transform="translate(-12.439 -312.004)" fill="#e0e0e0"/>
          <rect id="Rectangle_1266" data-name="Rectangle 1266" width="35.868" height="8.278" transform="translate(13.356 78.513)" fill="#e0e0e0"/>
          <path id="Path_23081" data-name="Path 23081" d="M25.317,422.7v2.294H60.592V422.7Z" transform="translate(-11.961 -315.709)" fill="#ebebeb"/>
          <path id="Path_23082" data-name="Path 23082" d="M28.963,429.449l-1.652-4.038H59.617l-1.927,4.038Z" transform="translate(-12.27 -316.13)" fill="#e0e0e0"/>
          <path id="Path_23083" data-name="Path 23083" d="M58.026,406.376a.9.9,0,0,1-.126.193c-.107.142-.239.319-.4.535l-1.572,2.011-.069.09-.068-.094-3.862-5.339h.222l-3.8,5.383-.12.168-.133-.158L43.587,403.8l.26,0-.248.312-4.031,5.053-.134.169-.124-.176c-1.368-1.937-2.647-3.746-3.8-5.381l.221.01-4.684,5.337-.083.095-.063-.107-1.467-2.464-.376-.657a.994.994,0,0,1-.115-.234,1.1,1.1,0,0,1,.157.209l.416.631c.375.588.891,1.4,1.54,2.418L30.906,409c1.2-1.406,2.764-3.24,4.609-5.4l.117-.136.1.146c1.166,1.629,2.456,3.43,3.837,5.357l-.259-.007,4.022-5.062.248-.312.128-.161.132.158c1.578,1.885,3.1,3.7,4.5,5.374l-.252.009,3.839-5.355.112-.157.11.157c1.521,2.172,2.813,4.016,3.78,5.4l-.138,0c.69-.826,1.237-1.482,1.635-1.96l.438-.506c.1-.113.156-.169.162-.164" transform="translate(-12.522 -312.722)" fill="#f5f5f5"/>
          <path id="Path_23084" data-name="Path 23084" d="M58.86,398.6c0,.093-6.76.168-15.1.168s-15.1-.075-15.1-.168,6.758-.168,15.1-.168,15.1.075,15.1.168" transform="translate(-12.48 -311.948)" fill="#f5f5f5"/>
          <path id="Path_23085" data-name="Path 23085" d="M59.993,425.648c0,.093-7.346.168-16.406.168s-16.409-.075-16.409-.168,7.345-.168,16.409-.168,16.406.075,16.406.168" transform="translate(-12.249 -316.141)" fill="#f5f5f5"/>
        </g>
      </g>
    </g>
    <rect id="Rectangle_1268" data-name="Rectangle 1268" width="515.707" height="365.487" transform="translate(10713 2723.623)" fill="none"/>
    <path id="Path_23086" data-name="Path 23086" d="M515.707,430.07c0,.122-115.454.22-257.841.22-142.436,0-257.866-.1-257.866-.22s115.429-.22,257.866-.22c142.387,0,257.841.1,257.841.22" transform="translate(10713 2656.996)" fill="#263238"/>
    <rect id="Rectangle_1269" data-name="Rectangle 1269" width="515.707" height="365.487" transform="translate(10713 2723.623)" fill="none"/>
    <g id="Group_23923" data-name="Group 23923" transform="translate(10835.99 2742.604)">
      <path id="Path_23204" data-name="Path 23204" d="M.482.261V221.813H106.19v19.573L123.5,221.813H237.9V.261Z" transform="translate(-0.106 -0.057)" fill="#fff"/>
      <rect id="Rectangle_1296" data-name="Rectangle 1296" width="238.172" height="16.059" transform="translate(0 0.203)" fill="#e0e0e0"/>
      <g id="Group_23922" data-name="Group 23922">
        <g id="Group_23921" data-name="Group 23921" clip-path="url(#clip-path-3)">
          <path id="Path_23205" data-name="Path 23205" d="M14.452,10.235a3.494,3.494,0,1,1-3.493-3.493,3.493,3.493,0,0,1,3.493,3.493" transform="translate(-1.634 -1.476)" fill="#fff"/>
          <path id="Path_23206" data-name="Path 23206" d="M27.319,10.235a3.494,3.494,0,1,1-3.493-3.493,3.493,3.493,0,0,1,3.493,3.493" transform="translate(-4.45 -1.476)" fill="#fff"/>
          <path id="Path_23207" data-name="Path 23207" d="M40.186,10.235a3.493,3.493,0,1,1-3.493-3.493,3.493,3.493,0,0,1,3.493,3.493" transform="translate(-7.267 -1.476)" fill="#fff"/>
          <path id="Path_23208" data-name="Path 23208" d="M237.844,221.948c0-1.449-.069-88.145-.172-221.744l.172.172L.426.407l.2-.2V14.1C.622,88.843.615,159.537.609,221.948l-.183-.183,105.708.031h.152v.152c0,6.886-.005,13.226-.008,19.382l-.251-.1,17.309-19.059.04-.044h.058l114.41-.182-114.409.446.1-.044L106.24,241.427l-.25.276v-.373c0-6.156-.005-12.5-.009-19.382l.152.152L.426,222.131H.243v-.183C.237,159.537.23,88.843.223,14.1V0h.2L237.844.032h.172V.2c-.1,133.6-.171,220.3-.172,221.744" transform="translate(-0.049)" fill="#263238"/>
          <rect id="Rectangle_1297" data-name="Rectangle 1297" width="36.483" height="5.123" transform="translate(13.284 48.368)" fill="#e0e0e0"/>
          <path id="Path_23209" data-name="Path 23209" d="M89.882,85.138c0,.112-16.278.2-36.354.2s-36.357-.091-36.357-.2,16.275-.2,36.357-.2,36.354.091,36.354.2" transform="translate(-3.758 -18.591)" fill="#263238"/>
          <path id="Path_23210" data-name="Path 23210" d="M68.11,112.716c0,.112-11.4.2-25.468.2s-25.47-.091-25.47-.2,11.4-.2,25.47-.2,25.468.091,25.468.2" transform="translate(-3.759 -24.628)" fill="#263238"/>
          <path id="Path_23211" data-name="Path 23211" d="M89.882,97.826c0,.112-16.278.2-36.354.2s-36.357-.091-36.357-.2,16.275-.2,36.357-.2,36.354.091,36.354.2" transform="translate(-3.758 -21.368)" fill="#263238"/>
          <path id="Path_23212" data-name="Path 23212" d="M136.3,237.866H106.968V208.537H136.3Zm-28.548-.781h27.767V209.318H107.749Z" transform="translate(-23.414 -45.646)" fill="#e80"/>
          <path id="Path_23213" data-name="Path 23213" d="M65.672,237.866H36.343V208.537H65.672Zm-28.548-.781H64.891V209.318H37.124Z" transform="translate(-7.955 -45.646)" fill="#39f"/>
          <path id="Path_23214" data-name="Path 23214" d="M66.549,254.343c0,.112-7.112.2-15.882.2s-15.884-.091-15.884-.2,7.11-.2,15.884-.2,15.882.091,15.882.2" transform="translate(-7.614 -55.628)" fill="#263238"/>
          <path id="Path_23215" data-name="Path 23215" d="M64.227,262.673c0,.112-6.167.2-13.773.2s-13.774-.091-13.774-.2,6.165-.2,13.774-.2,13.773.091,13.773.2" transform="translate(-8.029 -57.451)" fill="#263238"/>
          <path id="Path_23216" data-name="Path 23216" d="M138.192,254.343c0,.112-7.112.2-15.882.2s-15.884-.091-15.884-.2,7.11-.2,15.884-.2,15.882.091,15.882.2" transform="translate(-23.295 -55.628)" fill="#263238"/>
          <path id="Path_23217" data-name="Path 23217" d="M135.87,262.673c0,.112-6.167.2-13.773.2s-13.774-.091-13.774-.2,6.165-.2,13.774-.2,13.773.091,13.773.2" transform="translate(-23.71 -57.451)" fill="#263238"/>
          <path id="Path_23218" data-name="Path 23218" d="M136.016,209.036c.08.08-6.247,6.536-14.13,14.418s-14.34,14.21-14.419,14.131,6.246-6.534,14.131-14.419,14.337-14.209,14.417-14.13" transform="translate(-23.523 -45.755)" fill="#e80"/>
          <path id="Path_23219" data-name="Path 23219" d="M134.818,237.908a1.463,1.463,0,0,1-.262-.294c-.185-.241-.412-.534-.687-.888-.585-.779-1.443-1.9-2.515-3.27-2.143-2.745-5.2-6.462-8.8-10.367s-7.068-7.247-9.632-9.6c-1.282-1.179-2.328-2.123-3.058-2.768-.331-.3-.605-.551-.83-.755a1.472,1.472,0,0,1-.272-.285,1.43,1.43,0,0,1,.325.222l.88.7c.762.61,1.839,1.522,3.148,2.676a135.527,135.527,0,0,1,18.467,20.007c1.045,1.4,1.869,2.544,2.416,3.352l.625.933a1.429,1.429,0,0,1,.2.341" transform="translate(-23.806 -45.896)" fill="#e80"/>
          <path id="Path_23220" data-name="Path 23220" d="M64.7,211.258c.077.082-6.185,6.118-13.986,13.482S36.527,238.01,36.45,237.928s6.184-6.118,13.987-13.484S64.625,211.176,64.7,211.258" transform="translate(-7.978 -46.241)" fill="#39f"/>
          <path id="Path_23221" data-name="Path 23221" d="M64.579,237.674a1.494,1.494,0,0,1-.273-.289l-.719-.876c-.614-.769-1.514-1.872-2.639-3.224-2.247-2.7-5.45-6.36-9.214-10.182s-7.38-7.072-10.053-9.358c-1.336-1.144-2.426-2.058-3.186-2.683l-.865-.732c-.2-.171-.294-.266-.285-.277a1.481,1.481,0,0,1,.335.212l.914.673c.79.587,1.911,1.469,3.273,2.587a134.373,134.373,0,0,1,10.158,9.293A134.242,134.242,0,0,1,61.171,233.1c1.1,1.377,1.964,2.51,2.541,3.309l.659.923a1.477,1.477,0,0,1,.208.338" transform="translate(-8.174 -45.977)" fill="#39f"/>
          <path id="Path_23222" data-name="Path 23222" d="M268.455,237.307h-29.33v-29.33h29.33Zm-28.549-.781h27.768V208.758H239.906Z" transform="translate(-52.341 -45.523)" fill="#00afbe"/>
          <path id="Path_23223" data-name="Path 23223" d="M202.841,237.307h-29.33v-29.33h29.33Zm-28.549-.781H202.06V208.758H174.292Z" transform="translate(-37.979 -45.523)" fill="#639"/>
          <path id="Path_23224" data-name="Path 23224" d="M203.717,253.784c0,.112-7.111.2-15.882.2s-15.884-.091-15.884-.2,7.11-.2,15.884-.2,15.882.091,15.882.2" transform="translate(-37.638 -55.505)" fill="#263238"/>
          <path id="Path_23225" data-name="Path 23225" d="M201.395,262.114c0,.112-6.167.2-13.773.2s-13.774-.091-13.774-.2,6.165-.2,13.774-.2,13.773.091,13.773.2" transform="translate(-38.053 -57.329)" fill="#263238"/>
          <path id="Path_23226" data-name="Path 23226" d="M270.349,253.784c0,.112-7.112.2-15.882.2s-15.884-.091-15.884-.2,7.11-.2,15.884-.2,15.882.091,15.882.2" transform="translate(-52.223 -55.505)" fill="#263238"/>
          <path id="Path_23227" data-name="Path 23227" d="M268.027,262.114c0,.112-6.167.2-13.773.2s-13.774-.091-13.774-.2,6.165-.2,13.774-.2,13.773.091,13.773.2" transform="translate(-52.638 -57.329)" fill="#263238"/>
          <path id="Path_23228" data-name="Path 23228" d="M268.174,208.477c.08.08-6.247,6.536-14.13,14.418s-14.34,14.21-14.419,14.131,6.247-6.534,14.132-14.419,14.337-14.209,14.417-14.13" transform="translate(-52.45 -45.633)" fill="#00afbe"/>
          <path id="Path_23229" data-name="Path 23229" d="M266.976,237.349a1.461,1.461,0,0,1-.262-.294c-.185-.241-.412-.533-.687-.888-.585-.779-1.443-1.9-2.515-3.27-2.143-2.745-5.2-6.462-8.8-10.367s-7.067-7.247-9.632-9.6c-1.282-1.179-2.328-2.123-3.058-2.768-.331-.3-.605-.551-.83-.755a1.469,1.469,0,0,1-.272-.285,1.452,1.452,0,0,1,.325.222c.237.189.528.419.88.7.762.61,1.839,1.522,3.147,2.676a135.474,135.474,0,0,1,18.468,20.007c1.045,1.4,1.868,2.543,2.415,3.352l.626.933a1.43,1.43,0,0,1,.2.341" transform="translate(-52.734 -45.773)" fill="#00afbe"/>
          <path id="Path_23230" data-name="Path 23230" d="M201.871,210.7c.077.082-6.186,6.118-13.986,13.482s-14.189,13.27-14.266,13.188,6.184-6.118,13.987-13.484,14.187-13.269,14.265-13.187" transform="translate(-38.003 -46.119)" fill="#639"/>
          <path id="Path_23231" data-name="Path 23231" d="M201.748,237.115a1.493,1.493,0,0,1-.273-.289l-.719-.876c-.614-.769-1.514-1.872-2.639-3.224-2.247-2.7-5.45-6.36-9.214-10.182s-7.38-7.073-10.053-9.358c-1.336-1.144-2.426-2.058-3.186-2.683l-.866-.732c-.2-.171-.293-.266-.284-.277a1.484,1.484,0,0,1,.335.212l.914.673c.79.587,1.911,1.469,3.273,2.587a133.855,133.855,0,0,1,19.305,19.578c1.1,1.378,1.964,2.51,2.541,3.31l.659.923a1.476,1.476,0,0,1,.208.338" transform="translate(-38.198 -45.855)" fill="#639"/>
          <path id="Path_23232" data-name="Path 23232" d="M246.888,139.191H147.481V39.785h99.407Zm-98.626-.781h97.845V40.566H148.262Z" transform="translate(-32.282 -8.708)" fill="#39f"/>
          <path id="Path_23233" data-name="Path 23233" d="M243.516,135.82h-90.43V45.39h90.43Zm-89.65-.781h88.868V46.171H153.866Z" transform="translate(-33.508 -9.935)" fill="#39f"/>
          <path id="Path_23234" data-name="Path 23234" d="M155.506,142.505l-.624-.469,26.6-35.384,18.433,10.236L223.21,81.542l.653.429-23.694,35.952L181.7,107.664Z" transform="translate(-33.902 -17.848)" fill="#39f"/>
          <path id="Path_23235" data-name="Path 23235" d="M203.751,87.83a11.915,11.915,0,1,1,11.915-11.915A11.929,11.929,0,0,1,203.751,87.83m0-23.049a11.134,11.134,0,1,0,11.134,11.134,11.147,11.147,0,0,0-11.134-11.134" transform="translate(-41.99 -14.009)" fill="#39f"/>
          <rect id="Rectangle_1298" data-name="Rectangle 1298" width="1.472" height="1.472" transform="translate(146.952 88.573)" fill="#39f"/>
          <rect id="Rectangle_1299" data-name="Rectangle 1299" width="1.472" height="1.472" transform="translate(165.31 98.73)" fill="#39f"/>
          <rect id="Rectangle_1300" data-name="Rectangle 1300" width="1.472" height="1.472" transform="translate(188.898 63.378)" fill="#39f"/>
          <rect id="Rectangle_1301" data-name="Rectangle 1301" width="1.472" height="1.472" transform="translate(161.025 72.695)" fill="#39f"/>
          <rect id="Rectangle_1302" data-name="Rectangle 1302" width="1.472" height="1.472" transform="translate(161.025 49.561)" fill="#39f"/>
          <rect id="Rectangle_1303" data-name="Rectangle 1303" width="1.472" height="1.472" transform="translate(172.592 61.17)" fill="#39f"/>
          <rect id="Rectangle_1304" data-name="Rectangle 1304" width="1.472" height="1.472" transform="translate(149.457 61.17)" fill="#39f"/>
          <rect id="Rectangle_1305" data-name="Rectangle 1305" width="1.472" height="1.472" transform="translate(120.556 123.686)" fill="#39f"/>
          <path id="Path_23236" data-name="Path 23236" d="M242.718,93.876c-.113,0-.2-6.751-.2-15.078s.091-15.079.2-15.079.2,6.75.2,15.079-.091,15.078-.2,15.078" transform="translate(-53.083 -13.947)" fill="#39f"/>
          <path id="Path_23237" data-name="Path 23237" d="M243.166,63.568a.544.544,0,1,1-.544-.544.544.544,0,0,1,.544.544" transform="translate(-52.988 -13.795)" fill="#39f"/>
          <path id="Path_23238" data-name="Path 23238" d="M243.166,102.588a.544.544,0,1,1-.544-.544.544.544,0,0,1,.544.544" transform="translate(-52.988 -22.336)" fill="#39f"/>
          <path id="Path_23239" data-name="Path 23239" d="M240.972,189.966c0,.113-40.6.2-90.676.2-50.091,0-90.685-.091-90.685-.2s40.594-.2,90.685-.2c50.074,0,90.676.091,90.676.2" transform="translate(-13.048 -41.537)" fill="#e0e0e0"/>
        </g>
      </g>
    </g>
    <path id="Path_23123" data-name="Path 23123" d="M447.795,340.005l1.4,63.971-69.521.978-1.4-63.971Z" transform="translate(10654.367 2670.922)" fill="#fafafa"/>
    <path id="Path_23124" data-name="Path 23124" d="M447.761,340s-.117.01-.337.017l-.975.025-3.776.078-14.231.255-50.2.81.176-.21c.423,19.04.906,40.868,1.419,63.965v.007l-.206-.229,69.521-.939-.163.2c-.385-19.263-.7-35.231-.927-46.4-.1-5.585-.184-9.967-.24-12.967-.024-1.491-.043-2.635-.056-3.421s-.008-1.187-.008-1.187.021.382.044,1.145c.021.778.052,1.911.092,3.384.076,2.99.186,7.357.326,12.923.265,11.2.645,27.2,1.1,46.517l.005.193-.168,0-69.521,1.017-.2,0-.005-.232v-.007c-.5-23.1-.967-44.925-1.376-63.966l0-.208.18,0,50.318-.6,14.193-.145,3.742-.028.956,0c.214,0,.317.008.317.008" transform="translate(10654.4 2670.923)" fill="#263238"/>
    <path id="Path_23125" data-name="Path 23125" d="M382.436,402.674l64.636-.909-1.221-55.917-64.637.909Z" transform="translate(10653.911 2670.016)" fill="#e80"/>
    <g id="Group_23886" data-name="Group 23886" transform="translate(11036.347 3037.615)" opacity="0.3">
      <g id="Group_23885" data-name="Group 23885">
        <g id="Group_23884" data-name="Group 23884" clip-path="url(#clip-path-4)">
          <path id="Path_23126" data-name="Path 23126" d="M382.66,406.664l21.816-35.075,14.46,21.549,9.231-11.759L447.3,405.755Z" transform="translate(-382.66 -371.589)"/>
        </g>
      </g>
    </g>
    <g id="Group_23889" data-name="Group 23889" transform="translate(11067.812 3027.679)" opacity="0.3">
      <g id="Group_23888" data-name="Group 23888">
        <g id="Group_23887" data-name="Group 23887" clip-path="url(#clip-path-5)">
          <path id="Path_23127" data-name="Path 23127" d="M430.077,365.617c.071,3.235-2.151,5.89-4.961,5.929s-5.147-2.551-5.218-5.786,2.151-5.891,4.962-5.929,5.146,2.55,5.217,5.786" transform="translate(-419.896 -359.83)"/>
        </g>
      </g>
    </g>
    <path id="Path_23128" data-name="Path 23128" d="M427.217,332.954l1.4,63.971-69.521.978-1.4-63.971Z" transform="translate(10657.556 2672.015)" fill="#fafafa"/>
    <path id="Path_23129" data-name="Path 23129" d="M427.183,332.953s-.117.01-.337.017l-.975.025-3.776.078-14.231.255-50.2.81.176-.21c.422,19.04.906,40.867,1.419,63.965v.007l-.206-.229,69.521-.939-.163.2c-.385-19.263-.7-35.23-.927-46.4-.1-5.585-.184-9.967-.24-12.967-.024-1.491-.043-2.635-.056-3.421s-.008-1.187-.008-1.187.02.382.044,1.145c.021.778.052,1.911.092,3.384.076,2.99.186,7.357.326,12.923.265,11.2.645,27.2,1.1,46.517l.005.193-.168,0-69.521,1.017-.2,0-.005-.232V397.9c-.5-23.1-.967-44.925-1.376-63.966l0-.208.18,0,50.318-.6,14.193-.144,3.742-.028.956,0c.214,0,.317.008.317.008" transform="translate(10657.591 2672.016)" fill="#263238"/>
    <path id="Path_23130" data-name="Path 23130" d="M361.858,394.588l64.636-.909-1.221-55.918-64.637.91Z" transform="translate(10657.102 2671.27)" fill="#455a64"/>
    <path id="Path_23131" data-name="Path 23131" d="M362.082,398.578,383.9,363.5l14.46,21.549,9.231-11.759,19.129,24.376Z" transform="translate(10656.876 2667.28)" fill="#455a64"/>
    <path id="Path_23132" data-name="Path 23132" d="M409.5,357.071c.071,3.236-2.151,5.89-4.962,5.929s-5.146-2.551-5.217-5.786,2.15-5.89,4.962-5.929,5.146,2.551,5.217,5.786" transform="translate(10651.104 2669.174)" fill="#455a64"/>
    <g id="Group_23892" data-name="Group 23892" transform="translate(11018.958 3030.782)" opacity="0.3">
      <g id="Group_23891" data-name="Group 23891">
        <g id="Group_23890" data-name="Group 23890" clip-path="url(#clip-path-4)">
          <path id="Path_23133" data-name="Path 23133" d="M362.082,398.578,383.9,363.5l14.46,21.549,9.231-11.759,19.129,24.376Z" transform="translate(-362.082 -363.502)"/>
        </g>
      </g>
    </g>
    <g id="Group_23895" data-name="Group 23895" transform="translate(11050.423 3020.458)" opacity="0.3">
      <g id="Group_23894" data-name="Group 23894">
        <g id="Group_23893" data-name="Group 23893" clip-path="url(#clip-path-5)">
          <path id="Path_23134" data-name="Path 23134" d="M409.5,357.071c.071,3.236-2.151,5.89-4.962,5.929s-5.146-2.551-5.217-5.786,2.15-5.89,4.962-5.929,5.146,2.551,5.217,5.786" transform="translate(-399.318 -351.284)"/>
        </g>
      </g>
    </g>
    <path id="Path_23135" data-name="Path 23135" d="M418.293,323.333l1.4,63.971-69.521.978-1.4-63.971Z" transform="translate(10658.939 2673.506)" fill="#fafafa"/>
    <path id="Path_23136" data-name="Path 23136" d="M418.259,323.332s-.117.01-.337.017l-.975.025-3.776.078-14.231.255-50.2.81.176-.21c.423,19.04.906,40.867,1.419,63.965v.007l-.207-.229,69.522-.939-.163.2c-.385-19.263-.7-35.231-.927-46.4-.1-5.585-.184-9.967-.24-12.967-.024-1.491-.043-2.635-.056-3.421s-.008-1.187-.008-1.187.02.382.043,1.145c.022.778.053,1.911.093,3.384.076,2.99.186,7.357.326,12.923.265,11.2.645,27.2,1.1,46.517l.005.193-.168,0-69.521,1.017-.2,0-.005-.232v-.007c-.5-23.1-.967-44.925-1.376-63.966l0-.208.18,0,50.318-.6,14.193-.145,3.742-.028.956,0c.214,0,.317.008.317.008" transform="translate(10658.975 2673.508)" fill="#263238"/>
    <path id="Path_23137" data-name="Path 23137" d="M352.934,386l64.636-.909-1.221-55.918-64.637.91Z" transform="translate(10658.484 2672.601)" fill="#e80"/>
    <g id="Group_23898" data-name="Group 23898" transform="translate(11011.417 3023.527)" opacity="0.3">
      <g id="Group_23897" data-name="Group 23897">
        <g id="Group_23896" data-name="Group 23896" clip-path="url(#clip-path-4)">
          <path id="Path_23138" data-name="Path 23138" d="M353.158,389.992l21.817-35.075,14.46,21.549,9.231-11.759,19.129,24.376Z" transform="translate(-353.158 -354.916)"/>
        </g>
      </g>
    </g>
    <g id="Group_23901" data-name="Group 23901" transform="translate(11042.882 3013.592)" opacity="0.3">
      <g id="Group_23900" data-name="Group 23900">
        <g id="Group_23899" data-name="Group 23899" clip-path="url(#clip-path-5)">
          <path id="Path_23139" data-name="Path 23139" d="M400.575,348.945c.071,3.235-2.15,5.89-4.961,5.929s-5.147-2.551-5.218-5.786,2.151-5.891,4.962-5.929,5.146,2.55,5.217,5.786" transform="translate(-390.394 -343.158)"/>
        </g>
      </g>
    </g>
    <path id="Path_23140" data-name="Path 23140" d="M407.69,333.089,409.2,397.06l-75.143.978-1.511-63.971Z" transform="translate(10661.455 2671.994)" fill="#fafafa"/>
    <path id="Path_23141" data-name="Path 23141" d="M407.654,333.087s-.126.01-.364.017l-1.054.025-4.082.078-15.382.255-54.256.81.19-.21c.456,19.04.979,40.867,1.533,63.965v.007l-.223-.229,75.143-.939-.177.2c-.416-19.263-.761-35.231-1-46.4-.112-5.585-.2-9.967-.259-12.967-.026-1.491-.047-2.635-.06-3.421s-.008-1.187-.008-1.187.022.382.047,1.145c.023.778.057,1.911.1,3.384.082,2.99.2,7.357.352,12.923.287,11.2.7,27.2,1.192,46.517l.005.193-.182,0-75.142,1.017-.217,0-.006-.232v-.007c-.537-23.1-1.044-44.925-1.488-63.966l0-.208.2,0,54.387-.6,15.341-.144,4.044-.028,1.033,0c.231,0,.342.008.342.008" transform="translate(10661.491 2671.996)" fill="#263238"/>
    <path id="Path_23142" data-name="Path 23142" d="M337.046,394.722l69.864-.909L405.589,337.9l-69.863.91Z" transform="translate(10660.962 2671.249)" fill="#00afbe"/>
    <g id="Group_23904" data-name="Group 23904" transform="translate(10998.008 3030.896)" opacity="0.3">
      <g id="Group_23903" data-name="Group 23903">
        <g id="Group_23902" data-name="Group 23902" clip-path="url(#clip-path-10)">
          <path id="Path_23143" data-name="Path 23143" d="M337.288,398.712l23.581-35.075L376.5,385.186l9.978-11.759L407.152,397.8Z" transform="translate(-337.288 -363.637)"/>
        </g>
      </g>
    </g>
    <g id="Group_23907" data-name="Group 23907" transform="translate(11032.017 3020.571)" opacity="0.3">
      <g id="Group_23906" data-name="Group 23906">
        <g id="Group_23905" data-name="Group 23905" clip-path="url(#clip-path-11)">
          <path id="Path_23144" data-name="Path 23144" d="M388.539,357.206a5.617,5.617,0,0,1-5.362,5.929,5.761,5.761,0,0,1-5.639-5.786,5.616,5.616,0,0,1,5.362-5.929,5.761,5.761,0,0,1,5.639,5.786" transform="translate(-377.535 -351.419)"/>
        </g>
      </g>
    </g>
    <rect id="Rectangle_1289" data-name="Rectangle 1289" width="70.786" height="43.386" transform="translate(11033.838 3043.402)" fill="#263238"/>
    <rect id="Rectangle_1290" data-name="Rectangle 1290" width="77.594" height="43.386" transform="translate(10990.593 3043.402)" fill="#455a64"/>
    <rect id="Rectangle_1291" data-name="Rectangle 1291" width="515.707" height="365.487" transform="translate(10713 2723.623)" fill="none"/>
    <path id="Path_23145" data-name="Path 23145" d="M232.463,343.718l14.8-14.631L220.87,283.893a25.484,25.484,0,0,0-10.128-7.044l-9.294-3.533-23.1-4.239-16.4,6.461a9.809,9.809,0,0,0-6.146,10.284l4.291,36.12,2.528,47.033,59.61-10.339-6-17.4.2-27.123Z" transform="translate(10688.862 2681.916)" fill="#39f"/>
    <path id="Path_23146" data-name="Path 23146" d="M227.881,345.413c.139,0,.176-9.4.08-20.984s-.285-20.983-.423-20.982-.176,9.4-.08,20.986.284,20.98.423,20.98" transform="translate(10677.752 2676.589)" fill="#263238"/>
    <path id="Path_23147" data-name="Path 23147" d="M213.351,348.165l-36.018-14.5a8.232,8.232,0,0,1-5.133-7.008l-2.636-34.533s.312-14.687-8.861-15.4l-5.219,2.055c-6.745,3.582-8.416,13.4-7.5,20.984,1.3,10.774,1.848,26.019,3.308,35.369,1.194,7.648,5.787,13.7,13.061,16.346l44.363,9.6Z" transform="translate(10690.098 2680.731)" fill="#39f"/>
    <path id="Path_23148" data-name="Path 23148" d="M174.174,301.184a4.745,4.745,0,0,1,.114.791q.085.844.232,2.276c.184,2.024.443,4.873.761,8.374.306,3.551.667,7.759,1.067,12.425q.147,1.754.3,3.592a27.173,27.173,0,0,0,.461,3.7,6.132,6.132,0,0,0,1.79,3.236,12.144,12.144,0,0,0,3.323,2.068c9.932,4.3,19.085,7.847,25.73,10.335l7.889,2.906,2.145.791a4.969,4.969,0,0,1,.739.306,4.875,4.875,0,0,1-.771-.214l-2.175-.706c-1.884-.625-4.6-1.561-7.943-2.763-6.684-2.411-15.851-5.907-25.814-10.217a12.582,12.582,0,0,1-3.452-2.158,6.606,6.606,0,0,1-1.921-3.477,27.105,27.105,0,0,1-.459-3.761q-.146-1.838-.285-3.594c-.362-4.671-.69-8.882-.965-12.436-.255-3.507-.463-6.361-.61-8.387q-.088-1.436-.14-2.282a5.01,5.01,0,0,1-.018-.8" transform="translate(10686.004 2676.939)" fill="#263238"/>
    <path id="Path_23149" data-name="Path 23149" d="M149.75,323.4a1.776,1.776,0,0,1,.072.464c.032.36.071.8.119,1.333.107,1.23.251,2.886.427,4.9.2,2.067.449,4.527.807,7.245a69.178,69.178,0,0,0,1.627,8.748,13.062,13.062,0,0,0,1.758,4.17,24,24,0,0,0,2.691,3.306,23.037,23.037,0,0,0,5.764,4.325,21.653,21.653,0,0,0,6.326,2.07,1.7,1.7,0,0,1-.469-.01,10.02,10.02,0,0,1-1.333-.172,17.6,17.6,0,0,1-4.68-1.584,22.6,22.6,0,0,1-5.925-4.316,23.834,23.834,0,0,1-2.766-3.353,13.38,13.38,0,0,1-1.831-4.307,65.194,65.194,0,0,1-1.6-8.818c-.335-2.732-.552-5.2-.706-7.274s-.232-3.755-.275-4.918c-.011-.535-.021-.978-.029-1.338a1.692,1.692,0,0,1,.025-.469" transform="translate(10689.792 2673.496)" fill="#263238"/>
    <path id="Path_23150" data-name="Path 23150" d="M167.98,350.433a5.287,5.287,0,0,1,.656-1.92,12.4,12.4,0,0,1,7.308-6.241,5.284,5.284,0,0,1,2-.346c.014.08-.741.23-1.886.668a14.016,14.016,0,0,0-7.12,6.081c-.612,1.062-.878,1.785-.956,1.758" transform="translate(10686.965 2670.627)" fill="#263238"/>
    <g id="Group_23912" data-name="Group 23912" transform="translate(10861.352 2988.39)" opacity="0.3">
      <g id="Group_23911" data-name="Group 23911">
        <g id="Group_23910" data-name="Group 23910" clip-path="url(#clip-path-12)">
          <path id="Path_23151" data-name="Path 23151" d="M207.312,349.724c-3.851-2.175-7.619-3.847-11.647-5.677s-7.972-4.179-10.607-7.731c-4.97-6.7-4.4-16.369-9.493-22.981q.5,6.668,1,13.337c.3,4.074-.32,8.1,2.3,10.873,2.211,2.333,6.522,4.122,9.574,5.128,6.134,2.023,12.738,5.028,18.871,7.052" transform="translate(-175.565 -313.334)"/>
        </g>
      </g>
    </g>
    <g id="Group_23915" data-name="Group 23915" transform="translate(10905.295 2982.58)" opacity="0.3">
      <g id="Group_23914" data-name="Group 23914">
        <g id="Group_23913" data-name="Group 23913" clip-path="url(#clip-path-13)">
          <path id="Path_23152" data-name="Path 23152" d="M227.568,306.458l3.115,19.219-2.949-5.444Z" transform="translate(-227.569 -306.458)"/>
        </g>
      </g>
    </g>
    <path id="Path_23153" data-name="Path 23153" d="M171.567,293.618c-.074.013-.187-1.22-.859-3.067a15.461,15.461,0,0,0-10.918-9.811c-1.909-.472-3.147-.452-3.142-.527a3.3,3.3,0,0,1,.864-.033,13.337,13.337,0,0,1,2.339.3,14.959,14.959,0,0,1,11.113,9.985,13.223,13.223,0,0,1,.543,2.295,3.267,3.267,0,0,1,.06.862" transform="translate(10688.719 2680.196)" fill="#263238"/>
    <path id="Path_23154" data-name="Path 23154" d="M225.088,284.49a61.2,61.2,0,0,1,1.268,6.718,61.374,61.374,0,0,1,.891,6.779,61.088,61.088,0,0,1-1.269-6.719,61.417,61.417,0,0,1-.891-6.779" transform="translate(10678.113 2679.527)" fill="#263238"/>
    <path id="Path_23155" data-name="Path 23155" d="M271.429,412.648s27.685,7.662,28.8,8.053c1.668.587,1.388,6.7-1.207,6.6-1.228-.046-21.264.746-23.8.587s-10.17-3.168-10.17-3.168Z" transform="translate(10671.917 2659.662)" fill="#210041"/>
    <path id="Path_23156" data-name="Path 23156" d="M286.237,424.134a12.145,12.145,0,0,1,3.177-5.521,6.156,6.156,0,0,0-3.177,5.521" transform="translate(10668.642 2658.739)" fill="#263238"/>
    <path id="Path_23157" data-name="Path 23157" d="M282.823,422.63c.135.024.416-1.285,1.153-2.731.722-1.454,1.607-2.459,1.507-2.554a6.944,6.944,0,0,0-2.661,5.285" transform="translate(10669.169 2658.935)" fill="#263238"/>
    <path id="Path_23158" data-name="Path 23158" d="M279.593,421.729a9.719,9.719,0,0,1,2.155-5.514,5.2,5.2,0,0,0-2.155,5.514" transform="translate(10669.69 2659.111)" fill="#263238"/>
    <path id="Path_23159" data-name="Path 23159" d="M279.805,417.33a4.894,4.894,0,0,0,.3-2.06,9.761,9.761,0,0,0-.281-2.257,9.476,9.476,0,0,0-.412-1.285,1.545,1.545,0,0,0-.444-.679.739.739,0,0,0-.951.047,1.223,1.223,0,0,0-.368.783,5.27,5.27,0,0,0-.036.731,6.136,6.136,0,0,0,.171,1.355,8.25,8.25,0,0,0,.852,2.117,5.592,5.592,0,0,0,1.244,1.666c.063-.044-.4-.689-.953-1.818a9.086,9.086,0,0,1-.726-2.058,6.073,6.073,0,0,1-.133-1.265c.013-.426.007-.957.255-1.162a.268.268,0,0,1,.366-.03,1.159,1.159,0,0,1,.3.483,10.327,10.327,0,0,1,.42,1.222,11.1,11.1,0,0,1,.366,2.161c.081,1.254-.045,2.037.03,2.048" transform="translate(10669.971 2659.934)" fill="#263238"/>
    <path id="Path_23160" data-name="Path 23160" d="M279.152,418.124a3.87,3.87,0,0,0-1.785-.288,8.051,8.051,0,0,0-1.965.241,4.313,4.313,0,0,0-1.131.417,1.169,1.169,0,0,0-.625,1.265,1.385,1.385,0,0,0,1,.989,2.547,2.547,0,0,0,1.242,0,4.781,4.781,0,0,0,1.8-.885,4.867,4.867,0,0,0,1.287-1.267,12.327,12.327,0,0,0-1.475,1,4.931,4.931,0,0,1-1.7.735,2.185,2.185,0,0,1-1.027-.014.936.936,0,0,1-.674-.658.713.713,0,0,1,.411-.772,4.251,4.251,0,0,1,1-.391,9.327,9.327,0,0,1,1.867-.326c1.083-.075,1.763.035,1.774-.039" transform="translate(10670.59 2658.858)" fill="#263238"/>
    <path id="Path_23161" data-name="Path 23161" d="M291.242,424.642a7.475,7.475,0,0,1,1.9-4.664,3.972,3.972,0,0,0-1.9,4.664" transform="translate(10667.891 2658.528)" fill="#263238"/>
    <path id="Path_23162" data-name="Path 23162" d="M268.42,427.011a5.757,5.757,0,0,0,1.071.5,23.8,23.8,0,0,0,3.081.955,43.9,43.9,0,0,0,10.57,1c4.148-.046,7.886-.234,10.6-.342l3.208-.171a5.713,5.713,0,0,0,1.174-.125,5.775,5.775,0,0,0-1.18-.055l-3.212.023-10.591.207a49.482,49.482,0,0,1-10.495-.858c-2.647-.544-4.192-1.225-4.224-1.139" transform="translate(10671.395 2657.437)" fill="#263238"/>
    <path id="Path_23163" data-name="Path 23163" d="M267.452,427.327c.037.064.8-.379,2.074-.94a9.643,9.643,0,0,1,5.239-.871,8.3,8.3,0,0,1,4.528,2.694,16.277,16.277,0,0,0,1.6,1.63,8.551,8.551,0,0,0-1.355-1.852,10.979,10.979,0,0,0-1.836-1.716,6.572,6.572,0,0,0-2.86-1.213,9.159,9.159,0,0,0-5.449,1.031,7.342,7.342,0,0,0-1.936,1.237" transform="translate(10671.544 2657.752)" fill="#263238"/>
    <path id="Path_23164" data-name="Path 23164" d="M228.749,405.042s-26.2,17.153-27.137,17.862c-1.41,1.066.208,6.141,2.652,5.263,1.156-.416,23.139-6.531,25.5-7.45s8.727-6.107,8.727-6.107Z" transform="translate(10681.831 2660.841)" fill="#210041"/>
    <path id="Path_23165" data-name="Path 23165" d="M223.753,420.306a6.151,6.151,0,0,0-4.7-4.3,25.859,25.859,0,0,1,2.639,1.834,26.1,26.1,0,0,1,2.065,2.461" transform="translate(10679.048 2659.144)" fill="#263238"/>
    <path id="Path_23166" data-name="Path 23166" d="M226.64,417.807a6.942,6.942,0,0,0-4.14-4.227c-.067.12,1.082.809,2.211,1.975s1.807,2.315,1.928,2.252" transform="translate(10678.513 2659.52)" fill="#263238"/>
    <path id="Path_23167" data-name="Path 23167" d="M229.508,415.947a5.2,5.2,0,0,0-3.728-4.6,9.712,9.712,0,0,1,3.728,4.6" transform="translate(10678.004 2659.866)" fill="#263238"/>
    <path id="Path_23168" data-name="Path 23168" d="M228.105,411.737c.068-.034-.289-.742-.593-1.96a11.176,11.176,0,0,1-.308-2.171,10.13,10.13,0,0,1,.029-1.292,1.172,1.172,0,0,1,.142-.553.269.269,0,0,1,.358-.082c.3.119.455.628.6,1.029a6.123,6.123,0,0,1,.258,1.246,9.169,9.169,0,0,1-.067,2.182c-.184,1.244-.43,2-.357,2.022a5.577,5.577,0,0,0,.679-1.966,8.235,8.235,0,0,0,.169-2.275,6.11,6.11,0,0,0-.249-1.344,5.359,5.359,0,0,0-.256-.685,1.219,1.219,0,0,0-.59-.634.736.736,0,0,0-.919.243,1.548,1.548,0,0,0-.216.782,9.476,9.476,0,0,0,0,1.349,9.711,9.711,0,0,0,.418,2.236,4.927,4.927,0,0,0,.908,1.873" transform="translate(10677.853 2660.819)" fill="#263238"/>
    <path id="Path_23169" data-name="Path 23169" d="M228.29,412.388c.034.068.648-.244,1.7-.5a9.259,9.259,0,0,1,1.876-.256,4.183,4.183,0,0,1,1.077.068.714.714,0,0,1,.626.611.936.936,0,0,1-.443.832,2.192,2.192,0,0,1-.973.325,4.92,4.92,0,0,1-1.841-.185,12.3,12.3,0,0,0-1.709-.5,4.851,4.851,0,0,0,1.611.817,4.787,4.787,0,0,0,1.983.3,2.528,2.528,0,0,0,1.183-.373,1.383,1.383,0,0,0,.651-1.245,1.169,1.169,0,0,0-.98-1.016,4.349,4.349,0,0,0-1.2-.053,7.99,7.99,0,0,0-1.944.368,3.888,3.888,0,0,0-1.615.816" transform="translate(10677.615 2659.889)" fill="#263238"/>
    <path id="Path_23170" data-name="Path 23170" d="M208.286,430.09c.03.041.441-.265.64-1.015a3.867,3.867,0,0,0-.49-2.843,10.465,10.465,0,0,0-.878-1.308,4.837,4.837,0,0,0-.889-.954,1.561,1.561,0,0,0-.837-.351c-.219-.009-.33.045-.327.072a2.474,2.474,0,0,1,.952.529,5.962,5.962,0,0,1,.756.956c.268.39.56.814.816,1.278a4.055,4.055,0,0,1,.576,2.555c-.1.678-.382,1.037-.32,1.082" transform="translate(10681.146 2657.962)" fill="#263238"/>
    <path id="Path_23171" data-name="Path 23171" d="M219.334,422.247a3.972,3.972,0,0,0-3.228-3.867,7.48,7.48,0,0,1,3.228,3.867" transform="translate(10679.504 2658.778)" fill="#263238"/>
    <path id="Path_23172" data-name="Path 23172" d="M236.1,417.459a9.128,9.128,0,0,0-1.152.79,32.836,32.836,0,0,1-3.23,1.979,42.556,42.556,0,0,1-5.131,2.284c-1.983.739-4.208,1.437-6.561,2.119-4.713,1.357-8.98,2.6-12.058,3.524l-3.64,1.118a8,8,0,0,0-1.317.471,8.168,8.168,0,0,0,1.367-.3l3.681-.976c3.1-.846,7.38-2.036,12.1-3.394,2.358-.683,4.592-1.4,6.583-2.165a38.6,38.6,0,0,0,5.137-2.4,25.793,25.793,0,0,0,3.18-2.122,7.183,7.183,0,0,0,1.044-.935" transform="translate(10681.533 2658.917)" fill="#263238"/>
    <path id="Path_23173" data-name="Path 23173" d="M241.106,417.741a7.321,7.321,0,0,0-2.22-.591,9.164,9.164,0,0,0-5.506.673,6.575,6.575,0,0,0-2.357,2.024,11,11,0,0,0-1.228,2.193,8.588,8.588,0,0,0-.728,2.176,16.189,16.189,0,0,0,1.025-2.037,8.3,8.3,0,0,1,3.5-3.941,9.642,9.642,0,0,1,5.256-.761c1.388.146,2.245.338,2.261.265" transform="translate(10677.495 2658.987)" fill="#263238"/>
    <path id="Path_23174" data-name="Path 23174" d="M284.6,354.02a12.545,12.545,0,0,1,7.891,11.619c.063,16.88-34.106,35.487-34.106,35.487L212.914,371l-2.85-1.153s61.382-23.057,74.536-15.823" transform="translate(10680.439 2668.967)" fill="#263238"/>
    <path id="Path_23175" data-name="Path 23175" d="M240.7,388.035a8.461,8.461,0,0,0,1.185-.8c.745-.54,1.808-1.341,3.11-2.348,2.6-2.012,6.146-4.864,9.956-8.135s7.166-6.343,9.549-8.612c1.191-1.135,2.145-2.064,2.791-2.719a8.429,8.429,0,0,0,.973-1.049,8.316,8.316,0,0,0-1.1.918l-2.89,2.61c-2.438,2.205-5.823,5.232-9.628,8.5s-7.308,6.154-9.858,8.23l-3.017,2.462a8.477,8.477,0,0,0-1.074.946" transform="translate(10675.692 2667.146)" fill="#455a64"/>
    <path id="Path_23176" data-name="Path 23176" d="M281.562,361.723a11.276,11.276,0,0,0-8.278,2.443c.075.121,1.733-.935,4.027-1.6,2.287-.688,4.252-.7,4.25-.843" transform="translate(10670.641 2667.573)" fill="#455a64"/>
    <path id="Path_23177" data-name="Path 23177" d="M277.687,358.594a6.911,6.911,0,0,0-4.111,5.09c.133.046.63-1.371,1.775-2.772,1.128-1.415,2.408-2.2,2.336-2.319" transform="translate(10670.599 2668.042)" fill="#455a64"/>
    <path id="Path_23178" data-name="Path 23178" d="M300.765,421.839c.024-.053-.543-.162-1.172.356a4.247,4.247,0,0,0-1.314,2.639,5.185,5.185,0,0,0,.414,2.91c.322.691.676,1.015.716.982.063-.042-.187-.426-.411-1.1a5.91,5.91,0,0,1-.26-2.723,4.568,4.568,0,0,1,1.076-2.462c.482-.505.962-.525.952-.6" transform="translate(10666.774 2658.245)" fill="#263238"/>
    <path id="Path_23179" data-name="Path 23179" d="M278.114,325.168l-12.936,34.848a5.022,5.022,0,0,1-4.774,3.273l-71.207-.937V356.94l26.423.965,11.218-34.784a2.84,2.84,0,0,1,2.71-1.967l45.933.133a2.839,2.839,0,0,1,2.633,3.881" transform="translate(10683.674 2673.844)" fill="#e0e0e0"/>
    <path id="Path_23180" data-name="Path 23180" d="M278.093,325.149s.008-.037.03-.11a3.08,3.08,0,0,0,.089-.324,2.8,2.8,0,0,0-.029-1.308,2.84,2.84,0,0,0-1.251-1.684,2.774,2.774,0,0,0-1.294-.408c-.49-.023-1.022-.007-1.581-.012l-19.163-.022-13.426-.025-7.544-.016-3.962-.008a3.121,3.121,0,0,0-1.9.417,2.767,2.767,0,0,0-1.178,1.55l-11.184,34.724-.026.08-.085,0-26.423-.962.119-.115v5.411l-.113-.115,44.778.6,19.465.267,4.486.062,2.181.03a5.2,5.2,0,0,0,2.071-.3,4.932,4.932,0,0,0,2.853-2.748q.711-1.9,1.39-3.714l8.54-22.9c1.008-2.69,1.791-4.778,2.326-6.207s.825-2.156.825-2.156-.262.75-.782,2.173l-2.287,6.222c-2,5.414-4.892,13.238-8.472,22.926l-1.385,3.722a5.1,5.1,0,0,1-2.947,2.847,5.383,5.383,0,0,1-2.133.317l-2.182-.027-4.486-.056-19.465-.246-44.779-.579-.113,0V356.8l.119.005,26.422.967-.11.078L226.7,323.137a2.962,2.962,0,0,1,1.262-1.652,3.314,3.314,0,0,1,2-.443l3.963.014,7.543.028,13.426.052,19.164.089c.56.008,1.086-.006,1.585.02a2.834,2.834,0,0,1,1.32.427,2.875,2.875,0,0,1,1.257,1.724,2.759,2.759,0,0,1,.01,1.323,2.969,2.969,0,0,1-.139.429" transform="translate(10683.695 2673.862)" fill="#263238"/>
    <path id="Path_23181" data-name="Path 23181" d="M256.814,341.433a3.2,3.2,0,0,1,3.461.369,2.8,2.8,0,0,1,.678,3.066,3.031,3.031,0,0,1-2.6,1.817,2.733,2.733,0,0,1-2.749-1.816,3.068,3.068,0,0,1,1.21-3.437" transform="translate(10673.399 2670.756)" fill="#fff"/>
    <path id="Path_23182" data-name="Path 23182" d="M257.991,403.694s-64.173-41.1-67.007-42.718c-2.409-1.372-8.857-5.341-15.214-3.588s-12.057,7.454-14.907,15.785c-1.627,4.758-2.4,12.88-2.758,18.969a28.142,28.142,0,0,0,6.586,20.065,17.961,17.961,0,0,0,8.011,5.687c.668.208,1.363.388,2.076.542a30.215,30.215,0,0,0,31.454-13.207l1.5-2.281s42.027,15.44,42.685,15.22Z" transform="translate(10688.502 2668.296)" fill="#263238"/>
    <path id="Path_23183" data-name="Path 23183" d="M194.243,363.227a.706.706,0,0,1-.161-.094l-.45-.307c-.393-.272-.971-.673-1.734-1.163a33.914,33.914,0,0,0-6.815-3.463,18.313,18.313,0,0,0-5.133-1.082,14.772,14.772,0,0,0-5.9.963,19.059,19.059,0,0,0-5.673,3.442A26.119,26.119,0,0,0,165.855,364a18.424,18.424,0,0,0-2.085,2.965A30.426,30.426,0,0,0,161,373.573c-.6,2.238-1.089,4.451-1.55,6.539a59.746,59.746,0,0,0-1.477,11.259,40.7,40.7,0,0,0,.584,7.632c.14.9.3,1.581.4,2.049.044.216.077.391.106.533a.094.094,0,1,1-.038.009c-.038-.139-.085-.313-.142-.525-.121-.463-.3-1.145-.468-2.04a38.205,38.205,0,0,1-.707-7.663,58.216,58.216,0,0,1,1.4-11.327c.455-2.1.926-4.3,1.535-6.571a30.443,30.443,0,0,1,2.8-6.7,18.593,18.593,0,0,1,2.129-3.024,26.041,26.041,0,0,1,2.561-2.509,19.317,19.317,0,0,1,5.792-3.486,15.011,15.011,0,0,1,6.043-.95,18.352,18.352,0,0,1,5.209,1.145,32.168,32.168,0,0,1,6.806,3.593c.754.51,1.319.932,1.7,1.224l.428.338c.095.077.142.12.137.125" transform="translate(10688.556 2668.321)" fill="#455a64"/>
    <path id="Path_23184" data-name="Path 23184" d="M182.262,392.612s.117.059.352.156l1.051.417,4.073,1.568,15.137,5.7c6.43,2.4,14.131,5.251,22.771,8.4s18.22,6.589,28.447,10.052l.186.063.091-.175c1.6-3.066,3.3-6.3,5.019-9.585l2.558-4.888.1-.188-.178-.113-49.006-31.109-14.72-9.286-4-2.5-1.044-.638c-.236-.141-.363-.2-.363-.2s.111.089.339.243l1.021.675c.919.6,2.248,1.459,3.953,2.566l14.643,9.407,48.924,31.229-.079-.3-2.559,4.888c-1.719,3.284-3.412,6.52-5.016,9.586l.277-.112c-10.223-3.453-19.8-6.885-28.454-10l-22.8-8.3L187.8,394.6l-4.1-1.491-1.066-.378c-.242-.083-.368-.115-.368-.115" transform="translate(10684.749 2667.779)" fill="#455a64"/>
    <path id="Path_23185" data-name="Path 23185" d="M185.592,231.452a33.063,33.063,0,0,1-2.852-6.822,11.115,11.115,0,0,1,.381-7.261c.6-1.315,1.536-2.467,2.005-3.834.646-1.88.381-4.1,1.545-5.71,1.819-2.518,5.712-1.931,8.524-3.25,2.191-1.027,3.721-3.242,6.026-3.981,2.013-.646,4.207-.027,6.15.805s3.839,1.891,5.934,2.166a41.48,41.48,0,0,0,4.516.012,5.957,5.957,0,0,1,4.168,1.436c1.06,1.071,1.284,3.047.134,4.023,2.636-.448,5.119,2.183,5.085,4.857s-2.048,5.026-4.48,6.138a15.937,15.937,0,0,1-7.872.977c-7.546-.588-15.127-3.456-20.264-9.014" transform="translate(10684.741 2692.572)" fill="#263238"/>
    <path id="Path_23186" data-name="Path 23186" d="M187.155,223.009l-5.141,37.361a11.219,11.219,0,1,0,22.23,3.041c.384-2.812.71-5.157.769-5.444,0,0,9.634.415,11.616-8.9.957-4.5,2.175-13.94,3.178-22.49a17.746,17.746,0,0,0-14.156-19.459l-.9-.18c-9.833-1.375-16.494,6.209-17.6,16.076" transform="translate(10684.804 2691.573)" fill="#ffbe9d"/>
    <path id="Path_23187" data-name="Path 23187" d="M207.194,266.121a22.156,22.156,0,0,1-11.488-5.895s1.535,7.3,11.026,8.32Z" transform="translate(10682.665 2683.288)" fill="#eb996e"/>
    <path id="Path_23188" data-name="Path 23188" d="M221.3,239.33a1.36,1.36,0,0,1-1.556,1.089,1.3,1.3,0,0,1-1.135-1.478,1.362,1.362,0,0,1,1.555-1.09,1.3,1.3,0,0,1,1.136,1.479" transform="translate(10679.117 2686.758)" fill="#263238"/>
    <path id="Path_23189" data-name="Path 23189" d="M222.335,234.79c-.2.142-1.061-.809-2.5-1.092-1.431-.3-2.632.225-2.752.018-.061-.094.17-.374.7-.616a3.731,3.731,0,0,1,2.247-.23,3.583,3.583,0,0,1,1.944,1.088c.373.426.461.771.363.832" transform="translate(10679.354 2687.54)" fill="#263238"/>
    <path id="Path_23190" data-name="Path 23190" d="M205.458,236.6a1.36,1.36,0,0,1-1.556,1.089,1.3,1.3,0,0,1-1.135-1.478,1.362,1.362,0,0,1,1.555-1.09,1.3,1.3,0,0,1,1.136,1.479" transform="translate(10681.573 2687.182)" fill="#263238"/>
    <path id="Path_23191" data-name="Path 23191" d="M205.571,231.771c-.2.141-1.063-.81-2.5-1.092-1.431-.3-2.631.225-2.752.018-.061-.094.169-.373.7-.616a3.736,3.736,0,0,1,2.246-.23,3.594,3.594,0,0,1,1.945,1.087c.373.427.46.771.363.833" transform="translate(10681.951 2688.008)" fill="#263238"/>
    <path id="Path_23192" data-name="Path 23192" d="M210.184,243.75a9.688,9.688,0,0,1,2.416.045c.374.036.735.032.848-.205a1.9,1.9,0,0,0-.028-1.136q-.251-1.434-.526-3.008c-.711-4.276-1.148-7.761-.976-7.788s.89,3.416,1.6,7.691c.166,1.053.326,2.056.477,3.016a2.165,2.165,0,0,1-.1,1.477.935.935,0,0,1-.71.416,2.548,2.548,0,0,1-.64-.038,9.558,9.558,0,0,1-2.364-.469" transform="translate(10680.421 2687.716)" fill="#263238"/>
    <path id="Path_23193" data-name="Path 23193" d="M204.869,246.145c.237.033-.072,1.592,1.04,2.964s2.806,1.533,2.775,1.753c0,.1-.431.228-1.136.107a3.954,3.954,0,0,1-2.333-1.375,3.446,3.446,0,0,1-.773-2.466c.071-.663.322-1.015.427-.984" transform="translate(10681.313 2685.471)" fill="#263238"/>
    <path id="Path_23194" data-name="Path 23194" d="M207.079,225.246c-.22.362-1.617-.11-3.341-.243-1.722-.168-3.179.053-3.333-.341-.066-.188.244-.508.869-.776a5.821,5.821,0,0,1,5.084.445c.569.373.819.741.721.914" transform="translate(10681.938 2688.98)" fill="#263238"/>
    <path id="Path_23195" data-name="Path 23195" d="M222.77,229.737c-.319.275-1.24-.26-2.425-.514-1.177-.3-2.24-.22-2.4-.608-.069-.186.155-.481.657-.7a3.591,3.591,0,0,1,3.891.9c.352.419.423.782.281.919" transform="translate(10679.221 2688.333)" fill="#263238"/>
    <path id="Path_23196" data-name="Path 23196" d="M186.059,234.2c-.145-.1-6.04-3.181-7.112,3.246s5.6,6.178,5.644,6,1.468-9.242,1.468-9.242" transform="translate(10685.281 2687.449)" fill="#ffbe9d"/>
    <path id="Path_23197" data-name="Path 23197" d="M183.342,241.05c-.024-.025-.125.06-.329.115a1.136,1.136,0,0,1-.84-.123,2.811,2.811,0,0,1-.868-2.7,3.765,3.765,0,0,1,.581-1.551,1.311,1.311,0,0,1,.985-.719.579.579,0,0,1,.61.417c.056.193-.006.315.026.332.015.019.155-.085.148-.359a.723.723,0,0,0-.185-.444.859.859,0,0,0-.592-.267,1.6,1.6,0,0,0-1.336.8,3.861,3.861,0,0,0-.687,1.727,2.947,2.947,0,0,0,1.17,3.048,1.217,1.217,0,0,0,1.053,0c.226-.125.283-.264.263-.279" transform="translate(10684.973 2687.082)" fill="#eb996e"/>
    <path id="Path_23198" data-name="Path 23198" d="M222.37,217.655c-1.1,2.375-6.774,3.293-10.932,2.038-3.833-1.157-5.223-3.59-7.662-5.711-1.544-1.342-1.544-1.342-4.06-1.6-2.035-.21-3.668,1.816-5.207,3.165.856,5.108-1.415,10.165-3.629,14.848a2.588,2.588,0,0,1-1.038,1.325c-.871.43-1.912-.25-2.433-1.071a8.039,8.039,0,0,1-.9-4.511,26.78,26.78,0,0,1,2.132-10.348,18.237,18.237,0,0,1,6.719-8.046,17.281,17.281,0,0,1,12.783-2.118,21.229,21.229,0,0,1,11.207,6.727,12.439,12.439,0,0,1,3.019,5.3" transform="translate(10684.092 2691.813)" fill="#263238"/>
    <path id="Path_23199" data-name="Path 23199" d="M213.468,237.143c.055,0,.035-.554.292-1.494a6.208,6.208,0,0,1,2.276-3.3,6.046,6.046,0,0,1,5.689-.818,5.928,5.928,0,0,1,2.767,2.091,5.952,5.952,0,0,1,0,7.05,5.916,5.916,0,0,1-2.767,2.091,6.046,6.046,0,0,1-5.689-.819,6.2,6.2,0,0,1-2.275-3.3c-.257-.94-.237-1.5-.292-1.494a1.165,1.165,0,0,0-.032.4,4.779,4.779,0,0,0,.128,1.143,6.187,6.187,0,0,0,2.249,3.546,6.4,6.4,0,0,0,9.088-1.263,6.417,6.417,0,0,0,0-7.653,6.4,6.4,0,0,0-9.088-1.262,6.194,6.194,0,0,0-2.249,3.546,4.775,4.775,0,0,0-.128,1.143,1.165,1.165,0,0,0,.032.4" transform="translate(10679.918 2687.864)" fill="#263238"/>
    <path id="Path_23200" data-name="Path 23200" d="M195.426,233.992c.055,0,.035-.554.292-1.494a6.215,6.215,0,0,1,2.276-3.3,6.045,6.045,0,0,1,5.688-.818,5.925,5.925,0,0,1,2.767,2.091,5.956,5.956,0,0,1,0,7.05,5.913,5.913,0,0,1-2.767,2.091,6.047,6.047,0,0,1-5.689-.819,6.214,6.214,0,0,1-2.275-3.3c-.256-.94-.237-1.5-.292-1.494a1.16,1.16,0,0,0-.032.4,4.782,4.782,0,0,0,.128,1.143,6.192,6.192,0,0,0,2.248,3.546,6.405,6.405,0,0,0,9.09-1.263,6.419,6.419,0,0,0,0-7.653,6.405,6.405,0,0,0-9.089-1.262,6.192,6.192,0,0,0-2.248,3.546,4.778,4.778,0,0,0-.128,1.143,1.165,1.165,0,0,0,.032.4" transform="translate(10682.714 2688.352)" fill="#263238"/>
    <path id="Path_23201" data-name="Path 23201" d="M210.3,235.327c.064.13.882-.253,1.832.039s1.425,1.051,1.55.979c.061-.029.03-.273-.184-.6a2.286,2.286,0,0,0-2.714-.816c-.358.151-.518.339-.483.4" transform="translate(10680.404 2687.233)" fill="#263238"/>
    <path id="Path_23202" data-name="Path 23202" d="M185.209,233.164a20.361,20.361,0,0,0,4.577.2,20.433,20.433,0,0,0,4.571-.324,20.336,20.336,0,0,0-4.578-.2,20.334,20.334,0,0,0-4.571.324" transform="translate(10684.293 2687.534)" fill="#263238"/>
    <rect id="Rectangle_1294" data-name="Rectangle 1294" width="515.707" height="365.487" transform="translate(10713 2723.623)" fill="none"/>
    <rect id="Rectangle_1295" data-name="Rectangle 1295" width="515.707" height="365.487" transform="translate(10713 2723.623)" fill="none"/>
  </g>
</svg>
