<svg xmlns="http://www.w3.org/2000/svg" width="193.211" height="190" viewBox="0 0 193.211 190">
  <g id="Group_37783" data-name="Group 37783" transform="translate(-2335.787 -1736)">
    <path id="Path_36514" data-name="Path 36514" d="M191.174,72.414a9.509,9.509,0,0,1,.136,13.28l-55.374,57.934c-.034.033-.069.074-.108.107a7.855,7.855,0,0,1-5.281,2.578,7.348,7.348,0,0,1-5.475-2.52L93.6,112.068c-.057-.057-.108-.114-.155-.172l0,0A11.084,11.084,0,0,1,91,106.462a9.626,9.626,0,0,1,.587-4.921,9.4,9.4,0,0,1,2.816-3.85,9.148,9.148,0,0,1,4.478-1.945,8.7,8.7,0,0,1,4.876.566,11.623,11.623,0,0,1,3.587,2.639l20.945,21.117a3.141,3.141,0,0,0,2.122,1.182,3.639,3.639,0,0,0,2.207-1.265l44.918-47.4A9.509,9.509,0,0,1,191.174,72.414Z" transform="translate(2300.424 1708.918)" fill="#7ac691"/>
    <rect id="Rectangle_19513" data-name="Rectangle 19513" width="4.564" height="4.564" transform="matrix(0.686, -0.727, 0.727, 0.686, 2373.376, 1882.735)" fill="#20863f"/>
    <rect id="Rectangle_19514" data-name="Rectangle 19514" width="4.564" height="4.564" transform="translate(2335.787 1922.532) rotate(-46.676)" fill="#20863f"/>
    <rect id="Rectangle_19515" data-name="Rectangle 19515" width="4.564" height="4.564" transform="translate(2348.314 1909.267) rotate(-46.676)" fill="#20863f"/>
    <rect id="Rectangle_19516" data-name="Rectangle 19516" width="4.564" height="4.564" transform="matrix(0.686, -0.727, 0.727, 0.686, 2360.842, 1896.003)" fill="#20863f"/>
    <path id="Path_36515" data-name="Path 36515" d="M304.692,118.389l.09.411.108.489.1.489.1.5.2.993.181.993.086.5,4.5-.764-.181-1.05-.1-.525-.1-.518-.205-1.036-.214-1.036-.091-.411-4.458.969Z" transform="translate(2217.255 1690.32)" fill="#20863f"/>
    <path id="Path_36516" data-name="Path 36516" d="M183.647,5.443l.16.024.969.139,1.454.222.959.158.48.086.37.07.826-4.487-.393-.074-.509-.091-1.017-.172-1.017-.158-1.017-.148L184.4.942l-.159-.024-.6,4.522Z" transform="translate(2264.347 1735.643)" fill="#20863f"/>
    <path id="Path_36517" data-name="Path 36517" d="M211.912,12.271l.3.1.452.16,1.353.494.452.172.444.172.888.353.275.108L217.8,9.608l-.3-.12-.467-.188-.468-.181-.472-.181-1.418-.53-.472-.172-.48-.172-.3-.1-1.518,4.306Z" transform="translate(2253.349 1732.903)" fill="#20863f"/>
    <path id="Path_36518" data-name="Path 36518" d="M238.254,24.818l.177.108.406.246,1.217.752,1.2.773.4.263.365.239,2.537-3.792-.382-.258-.415-.275-.422-.274-1.268-.8-.854-.525-.427-.258-.177-.107-2.349,3.911Z" transform="translate(2243.101 1727.867)" fill="#20863f"/>
    <path id="Path_36519" data-name="Path 36519" d="M261.578,42.5l.353.324,1.045.974,1.024,1,.673.673.1.107,3.256-3.2-.833-.833L266.117,40.5l-1.1-1.024-.377-.342-3.079,3.37Z" transform="translate(2234.032 1720.775)" fill="#20863f"/>
    <path id="Path_36520" data-name="Path 36520" d="M280.941,64.6l.205.284.279.387.279.393.549.788.268.394.535.8.263.4.143.222,3.833-2.479-.159-.246-.558-.845-.852-1.246-.874-1.231-.205-.284-3.7,2.663Z" transform="translate(2226.495 1711.906)" fill="#20863f"/>
    <path id="Path_36521" data-name="Path 36521" d="M295.514,90.244l.172.382.2.444.194.444.193.451.377.9.181.451.181.456.222.571,4.253-1.642-.053-.136-.188-.48-.387-.96-.6-1.417-.205-.472-.205-.468-.172-.382-4.169,1.854Z" transform="translate(2220.828 1701.615)" fill="#20863f"/>
    <path id="Path_36522" data-name="Path 36522" d="M100.656.006a2.279,2.279,0,0,1,.337,4.546A87.474,87.474,0,0,0,36.385,142.486a2.273,2.273,0,1,1-3.706,2.633A92.064,92.064,0,0,1,100.655,0Z" transform="translate(2329.695 1736)" fill="#20863f"/>
    <rect id="Rectangle_19517" data-name="Rectangle 19517" width="4.564" height="4.564" transform="matrix(0.686, -0.727, 0.727, 0.686, 2392.418, 1883.071)" fill="#20863f"/>
    <rect id="Rectangle_19518" data-name="Rectangle 19518" width="4.564" height="4.564" transform="translate(2354.828 1922.869) rotate(-46.676)" fill="#20863f"/>
    <rect id="Rectangle_19519" data-name="Rectangle 19519" width="4.564" height="4.564" transform="matrix(0.686, -0.727, 0.727, 0.686, 2367.356, 1909.604)" fill="#20863f"/>
    <rect id="Rectangle_19520" data-name="Rectangle 19520" width="4.564" height="4.564" transform="matrix(0.686, -0.727, 0.727, 0.686, 2379.883, 1896.339)" fill="#20863f"/>
    <path id="Path_36523" data-name="Path 36523" d="M226.677,137.169a2.276,2.276,0,0,0-4.544.252c.077,1,.132,2.015.175,3.029l0,.041q.054,1.289.07,2.589c0,.192.005.384.007.575s.007.384.007.577c0,.544-.01,1.084-.02,1.626,0,.194,0,.389-.007.583q-.031,1.234-.1,2.458c-.021.4-.049.8-.076,1.2-.03.448-.061.9-.1,1.341s-.075.876-.117,1.312c-.04.421-.086.84-.133,1.259s-.092.854-.146,1.279q-.144,1.141-.316,2.273c-.056.362-.119.72-.179,1.08-.082.492-.165.984-.255,1.472-.065.359-.135.716-.205,1.073q-.156.792-.326,1.579c-.064.294-.125.59-.192.883q-.575,2.533-1.295,5.009c-.041.141-.083.28-.125.42q-.333,1.126-.7,2.239c-.031.1-.062.192-.093.288a87.258,87.258,0,0,1-13.9,26.136l-.1.133q-.547.7-1.11,1.395c-.09.112-.179.224-.27.335-.329.4-.663.8-1,1.2-.1.123-.206.249-.312.372l-.067.076q-.974,1.132-1.987,2.229c-.156.17-.314.338-.472.506q-.954,1.02-1.937,2.013c-.147.147-.3.292-.445.439q-.839.83-1.7,1.637c-.257.241-.514.482-.774.72q-.928.85-1.881,1.674c-.317.274-.639.542-.96.811q-.618.519-1.246,1.026-.77.622-1.555,1.228c-.425.328-.851.654-1.282.975s-.837.616-1.26.919c-.355.254-.714.5-1.073.751q-1.033.716-2.086,1.4-.473.309-.951.612-1.029.653-2.079,1.274c-.394.235-.788.47-1.186.7-.476.273-.956.539-1.438.8-.362.2-.728.393-1.094.588q-1.059.562-2.135,1.1c-.43.213-.861.425-1.3.631s-.88.417-1.324.618q-1.1.5-2.211.97c-.376.159-.757.311-1.136.464q-.906.367-1.824.715c-.3.115-.608.235-.915.348-.868.318-1.744.618-2.624.909q-.428.141-.858.279c-.937.3-1.879.586-2.829.854-.134.038-.269.072-.4.109q-1.428.4-2.875.742c-.087.021-.172.046-.26.067l0,0q-2.857.677-5.784,1.164v0l-.268.042q-.766.125-1.537.238l-.347.048c-.549.078-1.1.152-1.65.219l-.284.032c-.569.067-1.139.132-1.711.189l-.078.007q-2.183.213-4.4.318c-.439.021-.876.035-1.313.05-.34.011-.681.021-1.022.029q-.905.02-1.808.023h-.06l-.119,0a85.885,85.885,0,0,1-27.829-4.559l-.3-.1q-2.65-.905-5.227-1.976c-.26-.108-.522-.214-.781-.324q-.665-.284-1.325-.58-.5-.222-.992-.451c-.274-.126-.553-.246-.825-.375-.552-.263-2.064-.981-3.592-1.785-.909-.479-1.813-.976-2.481-1.394q-1.015-.583-2.013-1.192a2.272,2.272,0,0,0-1.962,3.9,23.465,23.465,0,0,0,4.329,2.714c1.614.844,3.194,1.6,3.769,1.871a91.784,91.784,0,0,0,46.4,8.541q2.56-.2,5.081-.53c-.013.029-.024.058-.037.087q2.727-.357,5.4-.874l.04-.087A92.2,92.2,0,0,0,216.976,185.9l.147-.023q1.234-2.43,2.324-4.942l-.125.015a91.554,91.554,0,0,0,7.356-43.783" transform="translate(2302.043 1683.459)" fill="#20863f"/>
    <path id="Path_36524" data-name="Path 36524" d="M177.762,105.414a2.276,2.276,0,0,1,3.315,3.119l-46.647,49.5c-.034.034-.07.075-.108.108a7.858,7.858,0,0,1-5.282,2.578,7.347,7.347,0,0,1-5.474-2.52L92.094,126.478c-.057-.057-.108-.114-.155-.172l0,0a11.084,11.084,0,0,1-2.441-5.44,9.613,9.613,0,0,1,.587-4.921A9.4,9.4,0,0,1,92.9,112.1a9.143,9.143,0,0,1,4.477-1.945,8.7,8.7,0,0,1,4.876.566,11.624,11.624,0,0,1,3.587,2.639l20.945,21.117a3.14,3.14,0,0,0,2.121,1.182,3.641,3.641,0,0,0,2.208-1.265L177.745,84.9a2.276,2.276,0,1,1,3.315,3.119l-46.647,49.5-.053.057a7.875,7.875,0,0,1-5.332,2.628,7.352,7.352,0,0,1-5.475-2.52l-20.945-21.117a7.47,7.47,0,0,0-2.179-1.676A4.422,4.422,0,0,0,98,114.668a4.6,4.6,0,0,0-2.236.981,4.9,4.9,0,0,0-1.465,1.978,5.154,5.154,0,0,0-.3,2.623,6.5,6.5,0,0,0,1.444,3.153L126.776,155a3.141,3.141,0,0,0,2.122,1.182,3.64,3.64,0,0,0,2.207-1.265L177.74,105.42Z" transform="translate(2301.01 1703.25)" fill="#20863f"/>
  </g>
</svg>
