<svg xmlns="http://www.w3.org/2000/svg" width="193.683" height="190" viewBox="0 0 193.683 190">
  <g id="Group_37784" data-name="Group 37784" transform="translate(-2396 -1715.5)">
    <path id="Path_36525" data-name="Path 36525" d="M156.761,155.184a5.284,5.284,0,0,1-1.577,2.154,4.917,4.917,0,0,1-2.44,1.068,4.812,4.812,0,0,1-2.65-.249,8.138,8.138,0,0,1-2.372-1.824l-22.8-22.988a8,8,0,0,0-5.96-2.743,8.572,8.572,0,0,0-5.8,2.86l-22.746,22.85a7.7,7.7,0,0,1-3.681,1.694,5.645,5.645,0,0,1-2.861-.33,5.231,5.231,0,0,1-2.136-1.559,4.919,4.919,0,0,1-1.054-2.408,4.807,4.807,0,0,1,.249-2.65,8.13,8.13,0,0,1,1.824-2.372l22.987-22.8a8,8,0,0,0,2.744-5.96,8.571,8.571,0,0,0-2.86-5.8L82.96,91.563a7.155,7.155,0,0,1-1.51-3.378,5.611,5.611,0,0,1,.336-2.873,5.32,5.32,0,0,1,1.608-2.18,4.938,4.938,0,0,1,2.414-1.05,4.813,4.813,0,0,1,2.65.249,8.131,8.131,0,0,1,2.372,1.824l22.8,22.987a8,8,0,0,0,5.96,2.744,8.569,8.569,0,0,0,5.8-2.861l22.694-22.863a7.5,7.5,0,0,1,3.637-1.683,5.587,5.587,0,0,1,2.832.322,5.164,5.164,0,0,1,2.118,1.541,4.948,4.948,0,0,1,1.073,2.435,4.812,4.812,0,0,1-.249,2.65,8.147,8.147,0,0,1-1.824,2.372l-22.988,22.8a8,8,0,0,0-2.744,5.96,8.576,8.576,0,0,0,2.861,5.8l22.738,22.577a7.116,7.116,0,0,1,1.541,3.409v0a5.539,5.539,0,0,1-.322,2.837" transform="translate(2368.98 1690.256)" fill="#dd7878"/>
    <g id="Group_37525" data-name="Group 37525" transform="translate(2396 1715.5)">
      <g id="Group_37524" data-name="Group 37524">
        <rect id="Rectangle_19522" data-name="Rectangle 19522" width="4.564" height="4.564" transform="matrix(0.686, -0.727, 0.727, 0.686, 149.645, 43.457)" fill="#a73b3b"/>
        <rect id="Rectangle_19523" data-name="Rectangle 19523" width="4.563" height="4.563" transform="translate(187.232 3.661) rotate(-46.676)" fill="#a73b3b"/>
        <rect id="Rectangle_19524" data-name="Rectangle 19524" width="4.564" height="4.564" transform="translate(174.705 16.926) rotate(-46.676)" fill="#a73b3b"/>
        <rect id="Rectangle_19525" data-name="Rectangle 19525" width="4.564" height="4.564" transform="translate(162.178 30.19) rotate(-46.676)" fill="#a73b3b"/>
        <path id="Path_36526" data-name="Path 36526" d="M161.915,158.865l-.007.021a2.333,2.333,0,0,0-.205-.229l-20.961-20.808a3.708,3.708,0,0,1-1.306-2.246,3.142,3.142,0,0,1,1.182-2.122l21.116-20.944a11.616,11.616,0,0,0,2.639-3.587,8.7,8.7,0,0,0,.566-4.875,9.045,9.045,0,0,0-1.962-4.5,9.331,9.331,0,0,0-3.814-2.771,9.536,9.536,0,0,0-4.881-.565,11.427,11.427,0,0,0-5.656,2.565l0,0c-.057.048-.114.1-.172.155l-20.949,21.1a3.7,3.7,0,0,1-2.246,1.306,3.142,3.142,0,0,1-2.121-1.181L102.2,99.078a11.615,11.615,0,0,0-3.587-2.64,8.708,8.708,0,0,0-4.876-.566,9.056,9.056,0,0,0-4.448,1.921,9.445,9.445,0,0,0-2.852,3.854,9.686,9.686,0,0,0-.592,4.954,11.091,11.091,0,0,0,2.418,5.417c.057.062.11.126.172.189l20.9,20.808a3.69,3.69,0,0,1,1.313,2.246,3.14,3.14,0,0,1-1.182,2.121L88.352,158.328a11.623,11.623,0,0,0-2.639,3.587,8.7,8.7,0,0,0-.566,4.876,9.055,9.055,0,0,0,1.933,4.458,9.39,9.39,0,0,0,3.833,2.807,9.64,9.64,0,0,0,4.925.57,11.594,11.594,0,0,0,5.673-2.56l0,0a2.309,2.309,0,0,0,.181-.165l21.006-21.1a3.692,3.692,0,0,1,2.246-1.312,3.141,3.141,0,0,1,2.122,1.182l20.943,21.116a11.617,11.617,0,0,0,3.587,2.639,8.7,8.7,0,0,0,4.875.566,9.114,9.114,0,0,0,4.487-1.962,9.412,9.412,0,0,0,2.807-3.833,9.68,9.68,0,0,0,.582-4.9,11.121,11.121,0,0,0-2.429-5.417m-2.378,8.642a4.85,4.85,0,0,1-1.449,1.978,4.52,4.52,0,0,1-2.241.981,4.419,4.419,0,0,1-2.434-.229,7.486,7.486,0,0,1-2.179-1.675L130.29,147.446a7.35,7.35,0,0,0-5.475-2.52,7.873,7.873,0,0,0-5.331,2.627L98.591,168.542a7.067,7.067,0,0,1-3.382,1.556,5.185,5.185,0,0,1-2.628-.3,4.8,4.8,0,0,1-1.961-1.432,4.517,4.517,0,0,1-.969-2.212,4.414,4.414,0,0,1,.229-2.434,7.477,7.477,0,0,1,1.675-2.179l21.116-20.944a7.349,7.349,0,0,0,2.52-5.475,7.876,7.876,0,0,0-2.628-5.332L91.745,109.066a6.567,6.567,0,0,1-1.386-3.1,5.148,5.148,0,0,1,.308-2.639,4.888,4.888,0,0,1,1.477-2,4.544,4.544,0,0,1,2.217-.964,4.426,4.426,0,0,1,2.434.229,7.477,7.477,0,0,1,2.179,1.675l20.944,21.116a7.348,7.348,0,0,0,5.474,2.52,7.877,7.877,0,0,0,5.332-2.627l20.846-21a6.888,6.888,0,0,1,3.341-1.547,5.134,5.134,0,0,1,2.6.3,4.74,4.74,0,0,1,1.945,1.415,4.538,4.538,0,0,1,.985,2.236,4.416,4.416,0,0,1-.229,2.435,7.466,7.466,0,0,1-1.675,2.179l-21.116,20.944a7.349,7.349,0,0,0-2.52,5.475,7.875,7.875,0,0,0,2.628,5.332l20.887,20.739a6.535,6.535,0,0,1,1.415,3.131v0a5.086,5.086,0,0,1-.3,2.606" transform="translate(-33.083 -37.255)" fill="#a73b3b"/>
        <path id="Path_36527" data-name="Path 36527" d="M8.918,189.192l-.09-.411-.108-.489-.1-.489-.1-.5-.2-.993-.181-.993-.086-.5-4.5.764.181,1.05.1.525.1.518.205,1.036.214,1.036.091.411L8.9,189.19Z" transform="translate(-1.382 -71.904)" fill="#a73b3b"/>
        <path id="Path_36528" data-name="Path 36528" d="M130.05,302.212l-.16-.024-.969-.139-1.453-.222-.484-.079-.48-.079-.48-.086-.37-.07L124.828,306l.394.074.508.091,1.017.172,1.017.158.508.074.513.074.513.069.159.024.6-4.522Z" transform="translate(-48.564 -117.304)" fill="#a73b3b"/>
        <path id="Path_36529" data-name="Path 36529" d="M101.361,294.971l-.3-.1-.451-.16-1.353-.494-.451-.172-.444-.172-.888-.353-.274-.108-1.728,4.224.3.12.468.188.467.181.473.181,1.417.53.472.172.48.172.3.1,1.518-4.305Z" transform="translate(-37.142 -114.151)" fill="#a73b3b"/>
        <path id="Path_36530" data-name="Path 36530" d="M74.764,282.156l-.177-.108-.406-.246-1.217-.752-1.2-.773-.4-.263-.365-.239-2.537,3.792.382.258.415.275.422.274,1.268.8.854.525.427.258.177.107,2.348-3.911Z" transform="translate(-26.637 -108.847)" fill="#a73b3b"/>
        <path id="Path_36531" data-name="Path 36531" d="M51.331,264.374l-.353-.324-1.045-.974-1.024-1-.673-.673-.1-.107-3.256,3.2.833.833,1.081,1.045,1.1,1.024.377.342,3.079-3.37Z" transform="translate(-17.46 -101.659)" fill="#a73b3b"/>
        <path id="Path_36532" data-name="Path 36532" d="M32.04,242.347l-.205-.284-.279-.387-.279-.393-.549-.788-.268-.394-.535-.8-.263-.4-.143-.222-3.832,2.479.159.246.558.845.852,1.246.874,1.231.205.284,3.7-2.663Z" transform="translate(-9.994 -92.86)" fill="#a73b3b"/>
        <path id="Path_36533" data-name="Path 36533" d="M17.7,216.944l-.172-.382-.2-.444-.194-.444-.193-.451-.377-.9-.181-.451-.363-.912-.045-.115-4.253,1.642.053.136.188.48.387.96.6,1.417.205.472.2.468.172.382,4.169-1.854Z" transform="translate(-4.561 -82.807)" fill="#a73b3b"/>
        <path id="Path_36534" data-name="Path 36534" d="M160.515,217.957a2.282,2.282,0,0,1-.081-4.563,87.47,87.47,0,0,0,64.515-137.92,2.273,2.273,0,1,1,3.706-2.632,91.622,91.622,0,0,1,16.729,46.148,1.564,1.564,0,0,1,.017.238,92.049,92.049,0,0,1-84.587,98.714,2.453,2.453,0,0,1-.3.024Z" transform="translate(-61.561 -27.966)" fill="#a73b3b"/>
        <rect id="Rectangle_19526" data-name="Rectangle 19526" width="4.564" height="4.564" transform="matrix(0.686, -0.727, 0.727, 0.686, 130.607, 43.115)" fill="#a73b3b"/>
        <rect id="Rectangle_19527" data-name="Rectangle 19527" width="4.564" height="4.564" transform="translate(168.194 3.32) rotate(-46.676)" fill="#a73b3b"/>
        <rect id="Rectangle_19528" data-name="Rectangle 19528" width="4.564" height="4.564" transform="translate(155.667 16.584) rotate(-46.676)" fill="#a73b3b"/>
        <rect id="Rectangle_19529" data-name="Rectangle 19529" width="4.564" height="4.564" transform="matrix(0.686, -0.727, 0.727, 0.686, 143.141, 29.849)" fill="#a73b3b"/>
        <path id="Path_36535" data-name="Path 36535" d="M.277,109.186a2.276,2.276,0,0,0,4.544-.252c-.077-1-.132-2.015-.175-3.028l0-.041q-.054-1.289-.07-2.589c0-.192-.005-.384-.007-.575s-.007-.384-.007-.577c0-.544.01-1.084.02-1.626,0-.194,0-.389.007-.583q.031-1.234.1-2.458c.021-.4.049-.8.076-1.2.03-.448.061-.9.1-1.341s.075-.875.117-1.312c.04-.421.086-.84.133-1.259s.092-.854.146-1.279q.144-1.141.316-2.273c.056-.362.119-.72.179-1.08.082-.492.165-.984.255-1.472.065-.359.135-.716.205-1.073q.156-.792.326-1.579c.064-.294.125-.59.192-.883Q7.3,80.174,8.019,77.7c.041-.141.083-.28.125-.42q.333-1.126.7-2.239c.031-.1.062-.192.093-.288a87.255,87.255,0,0,1,13.9-26.135l.1-.133q.547-.7,1.109-1.395c.09-.112.179-.224.27-.335.329-.4.663-.8,1-1.2.1-.123.206-.249.312-.372l.067-.076q.974-1.132,1.987-2.229c.156-.17.314-.338.472-.506q.954-1.02,1.937-2.012c.147-.147.3-.292.445-.439q.839-.83,1.7-1.637c.257-.241.514-.482.774-.72q.928-.85,1.881-1.674c.317-.274.639-.542.96-.811q.618-.519,1.246-1.026.77-.622,1.555-1.228c.425-.328.851-.654,1.282-.974s.837-.616,1.26-.919c.355-.254.714-.5,1.073-.751q1.033-.716,2.086-1.4.473-.309.951-.612,1.029-.652,2.078-1.274c.394-.235.788-.47,1.186-.7.476-.273.956-.539,1.438-.8.362-.2.728-.393,1.094-.588q1.058-.562,2.135-1.1c.43-.213.861-.425,1.3-.631s.88-.417,1.324-.618q1.1-.5,2.21-.97c.376-.159.757-.311,1.136-.464q.906-.367,1.824-.715c.3-.115.608-.235.915-.348.868-.318,1.744-.618,2.623-.908q.428-.141.858-.279c.937-.3,1.879-.586,2.829-.854.134-.038.269-.072.4-.109q1.428-.395,2.875-.742c.087-.021.172-.046.26-.067l0,0q2.856-.677,5.783-1.164v0l.268-.042q.766-.125,1.537-.238l.347-.048c.549-.078,1.1-.152,1.65-.219l.284-.032c.569-.067,1.139-.132,1.711-.189l.078-.007q2.183-.213,4.4-.318c.439-.021.875-.035,1.313-.05.34-.011.681-.021,1.022-.029q.905-.021,1.808-.023h.06l.119,0A85.881,85.881,0,0,1,119.986,19.2l.3.1q2.65.905,5.227,1.976c.26.108.522.214.781.324q.665.284,1.325.58.5.222.992.451c.274.126.553.246.825.375.552.263,2.064.981,3.592,1.785.909.479,1.813.976,2.481,1.394q1.015.583,2.013,1.192a2.272,2.272,0,0,0,1.962-3.9,23.464,23.464,0,0,0-4.329-2.714c-1.614-.844-3.193-1.6-3.768-1.871A91.78,91.78,0,0,0,84.993,10.36q-2.56.2-5.081.53c.013-.029.024-.058.037-.087q-2.726.356-5.4.874l-.04.087A92.191,92.191,0,0,0,9.977,60.456l-.147.023Q8.6,62.908,7.507,65.42l.125-.015A91.55,91.55,0,0,0,.277,109.186" transform="translate(0 -3.923)" fill="#a73b3b"/>
      </g>
    </g>
  </g>
</svg>
