<svg xmlns="http://www.w3.org/2000/svg" xmlns:xlink="http://www.w3.org/1999/xlink" width="272.873" height="205.125" viewBox="0 0 272.873 205.125">
  <defs>
    <clipPath id="clip-path">
      <rect id="Rectangle_1318" data-name="Rectangle 1318" width="272.873" height="205.125" transform="translate(0 0)" fill="none"/>
    </clipPath>
    <clipPath id="clip-path-2">
      <rect id="Rectangle_1323" data-name="Rectangle 1323" width="55.573" height="29" transform="translate(0 0)" fill="#b1b4ff"/>
    </clipPath>
  </defs>
  <g id="Group_23926" data-name="Group 23926" transform="translate(0 -0.002)">
    <g id="Group_23925" data-name="Group 23925" transform="translate(0 0.002)" clip-path="url(#clip-path)">
      <path id="Path_23240" data-name="Path 23240" d="M1692.308,641.141c0-6.046-5.176-10.948-11.56-10.948s-11.56,4.9-11.56,10.948,5.176,10.947,11.56,10.947,11.56-4.9,11.56-10.947" transform="translate(-1446.946 -552.544)" fill="#fdc854"/>
      <path id="Path_23241" data-name="Path 23241" d="M1742.047,692.479a.864.864,0,0,1-.9-.829V682h-.354a.831.831,0,1,1,0-1.658h1.25a.864.864,0,0,1,.9.829v10.475A.864.864,0,0,1,1742.047,692.479Z" transform="translate(-1508.244 -596.518)" fill="#fff"/>
      <path id="Line_740" data-name="Line 740" d="M-3.333-5.069h-2.5a.864.864,0,0,1-.9-.829.864.864,0,0,1,.9-.829h2.5a.864.864,0,0,1,.9.829A.864.864,0,0,1-3.333-5.069Z" transform="translate(238.384 101.031)" fill="#fff"/>
      <path id="Line_741" data-name="Line 741" d="M-5.831-4.55a.864.864,0,0,1-.9-.829V-5.9a.864.864,0,0,1,.9-.829.864.864,0,0,1,.9.829v.519A.864.864,0,0,1-5.831-4.55Z" transform="translate(239.634 87.665)" fill="#fff"/>
      <path id="Path_23242" data-name="Path 23242" d="M121.888,179.988c1.435,6.045,5.2,14.542,16.216,23.708H339.538c5.144-7.353,6.787-13.806,6.956-19.1.3-9.351-4.11-11.591-6.516-25.893-3.258-19.366,3.788-21.439-.383-32.988-6.178-17.106-23.45-17.58-24.914-31.923-.967-9.474,6.4-10.865,6.9-22.7.584-13.958-8.92-29.838-21.464-32.987-10.708-2.689-14.17,6.274-25.68,5.675C251.723,42.6,249.13,6.867,222.309.862c-14.287-3.2-31.884,2.837-37.945,12.769-5.706,9.35,2.687,15.8-3.066,26.248-5.341,9.7-14.412,7.47-33.346,21.637-9.2,6.885-15.059,11.385-17.248,18.8-3,10.159,3.713,16.21,6.9,26.958,8.581,28.946-22.12,45.737-15.715,72.715" transform="translate(-104.891 -0.001)" fill="#efeefe"/>
      <path id="Path_23243" data-name="Path 23243" d="M572.113,393.9H453.592c-4.9,0-8.877-3.678-8.877-8.215V225.341c0-4.537,3.974-8.215,8.877-8.215H572.113c4.9,0,8.877,3.678,8.877,8.215V385.685c0,4.537-3.974,8.215-8.877,8.215" transform="translate(-385.504 -190.373)" fill="#4463cd"/>
      <path id="Path_23244" data-name="Path 23244" d="M615.187,422.458H502.17a4.429,4.429,0,0,1-4.59-4.248V273.436a6.656,6.656,0,0,1,6.9-6.383h108.4a6.656,6.656,0,0,1,6.9,6.383V418.21a4.429,4.429,0,0,1-4.59,4.248" transform="translate(-431.33 -234.148)" fill="#fff"/>
      <path id="Path_23245" data-name="Path 23245" d="M1470.176,420.607h-1.948V402.152h1.948a1.893,1.893,0,0,1,1.962,1.815v14.825a1.893,1.893,0,0,1-1.962,1.815" transform="translate(-1272.742 -352.601)" fill="#2e3192"/>
      <path id="Path_23246" data-name="Path 23246" d="M1470.176,575.847h-1.948v-9.228h1.948a1.893,1.893,0,0,1,1.962,1.815v5.6a1.893,1.893,0,0,1-1.962,1.815" transform="translate(-1272.742 -496.803)" fill="#2e3192"/>
      <path id="Path_23247" data-name="Path 23247" d="M895.748,1566.636H881.185a3.161,3.161,0,0,0-3.276,3.032v.811a3.161,3.161,0,0,0,3.276,3.032h14.563a3.161,3.161,0,0,0,3.276-3.032v-.811a3.161,3.161,0,0,0-3.276-3.032" transform="translate(-761.021 -1373.604)" fill="#2e3192"/>
      <path id="Path_23248" data-name="Path 23248" d="M1356.136,290.909a1.6,1.6,0,1,0-1.592,1.47,1.535,1.535,0,0,0,1.592-1.47" transform="translate(-1172.815 -253.776)" fill="#bbb4f8"/>
      <path id="Path_23249" data-name="Path 23249" d="M1306.2,290.909a1.6,1.6,0,1,0-1.592,1.47,1.535,1.535,0,0,0,1.592-1.47" transform="translate(-1129.524 -253.776)" fill="#bbb4f8"/>
      <path id="Path_23250" data-name="Path 23250" d="M1256.257,290.909a1.6,1.6,0,1,0-1.592,1.47,1.535,1.535,0,0,0,1.592-1.47" transform="translate(-1086.234 -253.776)" fill="#bbb4f8"/>
      <path id="Path_23251" data-name="Path 23251" d="M823.573,274.566H795.815c-4.895,0-8.863-3.672-8.863-8.2h45.484c0,4.53-3.968,8.2-8.863,8.2" transform="translate(-682.174 -233.544)" fill="#4463cd"/>
      <path id="Path_23252" data-name="Path 23252" d="M1527.487,852.749a24.641,24.641,0,0,1,2.054-3.313l3.119,1.435-1.223,4.031a7.3,7.3,0,0,1-3.951-2.154" transform="translate(-1324.105 -744.773)" fill="#f6a19e"/>
      <path id="Path_23253" data-name="Path 23253" d="M1541.35,809.6a1.674,1.674,0,0,1,1.311,1.323,5.725,5.725,0,0,0,.537,1.818.371.371,0,0,1-.213.561l-.533.168s.438,1.828-.163,2.684-3.5.395-3.5.395a7.955,7.955,0,0,1-2.131-1.619c-.542-.768-1.435-2.592-.354-3.781a10.413,10.413,0,0,1,2.95-2.024Z" transform="translate(-1331.316 -709.427)" fill="#f6a19e"/>
      <path id="Path_23254" data-name="Path 23254" d="M1539.7,830.923c-.054-.474-.877-1.681-1.389-1.631a.882.882,0,0,0-.83.949.918.918,0,0,0,1.026.768c.512-.05,1.247.388,1.193-.086" transform="translate(-1332.773 -727.11)" fill="#f6a19e"/>
      <path id="Path_23255" data-name="Path 23255" d="M1551.806,864.431c-.013,0-.319-.108-.677-.273a2.826,2.826,0,0,1-1.022-.692l.385-.26a4.081,4.081,0,0,0,1.477.81Z" transform="translate(-1343.72 -756.847)" fill="#f26d6d"/>
      <path id="Path_23256" data-name="Path 23256" d="M1530.173,783.084c.155-1.074-1.532-2.484-2.916-2.092a2.4,2.4,0,0,0-1.454,1.665,1.727,1.727,0,0,0-1.079-1.737,1.974,1.974,0,0,0-2.275,1.72,2.388,2.388,0,0,0-2,.2,1.941,1.941,0,0,0-.27,2.729,1.052,1.052,0,1,0-.061,2.03,1.054,1.054,0,0,0-.8,1.317c.2.584,1,.747,1.531.64a1.506,1.506,0,0,0,1.109-1.045.852.852,0,0,1,.189-1.679c.3-.029.695.361.99.787a.576.576,0,0,0,1-.122,2.653,2.653,0,0,0,.1-1.059,1.748,1.748,0,0,0,.918.642,1.648,1.648,0,0,0,1.512-.259,1.217,1.217,0,0,0,.2-1.383,1.516,1.516,0,0,0,.943.649,1.547,1.547,0,0,0,1.6-.618,1.3,1.3,0,0,0,0-1.4,1.466,1.466,0,0,0,.759-.99" transform="translate(-1316.6 -684.656)" fill="#2e3192"/>
      <path id="Path_23257" data-name="Path 23257" d="M1732.082,939.572l.408-.214a4.351,4.351,0,0,1,.464-.22,2.4,2.4,0,0,0,1.838-.177,4.241,4.241,0,0,0,.607-.424,1.343,1.343,0,0,0,.247-.231.413.413,0,0,0,.093-.307.888.888,0,0,0-.244-.373c-.1-.117-.166-.284-.076-.406a.542.542,0,0,1,.259-.146,1.339,1.339,0,0,0,.777-.77,10.124,10.124,0,0,0-2.966.851.588.588,0,0,1-.137-.583,2.161,2.161,0,0,1,.2-.356.6.6,0,0,0,.109-.384.3.3,0,0,0-.287-.255c-.162.007-.264.158-.338.292l-.375.679a2.111,2.111,0,0,0-.265.634.732.732,0,0,1-.09.323.624.624,0,0,1-.255.175l-.75.349c.254.51.523,1.032.777,1.542" transform="translate(-1500.792 -820.301)" fill="#f26d6d"/>
      <path id="Path_23258" data-name="Path 23258" d="M1497.275,916.289s6.755,6.623,11.993,9.348c5,2.6,20.083-6.614,20.083-6.614l-.839-1.655s-8.544,3.38-15.944,4.136a84.2,84.2,0,0,1-10.367-9.355Z" transform="translate(-1297.922 -799.759)" fill="#f26d6d"/>
      <path id="Path_23326" data-name="Path 23326" d="M0,0,2.786.07,2.8.71.017.64Z" transform="translate(226.786 201.011) rotate(-20.848)" fill="#f6a19e"/>
      <path id="Path_23259" data-name="Path 23259" d="M1702.325,1617.276a1.457,1.457,0,0,0,.852,2.071l6.786-2.391a1.9,1.9,0,0,0-.767-1.26,2.184,2.184,0,0,0-1.254-.4l-3.25,1.145a2.764,2.764,0,0,1-2.367.834" transform="translate(-1475.527 -1416.269)" fill="#2e3192"/>
      <path id="Path_23260" data-name="Path 23260" d="M1745.585,1614.406a2.112,2.112,0,0,1,2.657,1.1l.119.29-1.039.366a2.566,2.566,0,0,0-.485-.9,2.9,2.9,0,0,0-1.252-.859" transform="translate(-1513.171 -1415.378)" fill="#2e3192"/>
      <path id="Path_23261" data-name="Path 23261" d="M1702.908,1616.341l.42,1.23-1.767.587-.62-1.2Z" transform="translate(-1474.471 -1417.185)" fill="#f6a19e"/>
      <path id="Path_23262" data-name="Path 23262" d="M1732.49,1620.591l-.062-.043-.477-.332.17-.209.477.332.062.043Z" transform="translate(-1501.352 -1420.399)" fill="#e1eef7"/>
      <path id="Path_23263" data-name="Path 23263" d="M1727.649,1622.9l-.5-.425.191-.193.5.426Z" transform="translate(-1497.189 -1422.394)" fill="#e1eef7"/>
      <path id="Path_23264" data-name="Path 23264" d="M1484.483,1066.02s-.03,8.528,1.451,11.595,10.583,16.868,10.583,16.868l16.706,36.756,2.48-.875-5.337-33.638s-9.472-27.619-12.968-33.1-12.915,2.4-12.915,2.4" transform="translate(-1286.833 -930.868)" fill="#653087"/>
      <rect id="Rectangle_1309" data-name="Rectangle 1309" width="2.631" height="0.593" transform="translate(203.164 201.121)" fill="#f6a19e"/>
      <path id="Path_23265" data-name="Path 23265" d="M1522.685,1632.256a1.345,1.345,0,0,0,0,2.072l6.791-.006a1.7,1.7,0,0,0-.219-1.338,1.918,1.918,0,0,0-.954-.734l-3.253,0a2.671,2.671,0,0,1-2.368,0" transform="translate(-1319.51 -1431.134)" fill="#2e3192"/>
      <path id="Path_23266" data-name="Path 23266" d="M1568.2,1632.251a1.858,1.858,0,0,1,1.927,1.781v.29h-1.04a2.3,2.3,0,0,0-.1-.936,2.505,2.505,0,0,0-.787-1.136" transform="translate(-1359.403 -1431.134)" fill="#2e3192"/>
      <path id="Path_23267" data-name="Path 23267" d="M1529.808,1617.253l-.54,1.961-1.868-.08.34-1.533Z" transform="translate(-1324.035 -1417.984)" fill="#f6a19e"/>
      <path id="Path_23268" data-name="Path 23268" d="M1554.486,1632.89l-.168-.247-.169-.247.224-.131.169.247.169.246Z" transform="translate(-1347.223 -1431.146)" fill="#e1eef7"/>
      <path id="Path_23269" data-name="Path 23269" d="M1549.523,1633.351l-.285-.526.237-.11.285.526Z" transform="translate(-1342.966 -1431.541)" fill="#e1eef7"/>
      <path id="Path_23270" data-name="Path 23270" d="M1467.678,1065.674s-.878,2.434.082,6.771c1.381,6.241,13.6,22.3,13.6,22.3l-6.325,34.24,3.233.809,12.86-31.664a12.263,12.263,0,0,0,.434-8.028c-2.231-7.776-7.049-24.036-8.763-25.63l-.547-4.618Z" transform="translate(-1271.948 -929.265)" fill="#8754af"/>
      <path id="Path_23271" data-name="Path 23271" d="M1741.681,918.555a.856.856,0,0,1-.421-.11.719.719,0,0,1-.271-1.032l3.227-4.9a.85.85,0,0,1,1.115-.251.72.72,0,0,1,.271,1.032l-3.227,4.9a.827.827,0,0,1-.694.36" transform="translate(-1509.084 -799.759)" fill="#653087"/>
      <path id="Path_23272" data-name="Path 23272" d="M1733.5,931.8a9,9,0,0,0-.847.785c-1.043,1.1-1.429,2.081-1.761,2-.395-.1-.136-1.556-.529-1.643-.311-.069-.776.779-.956,1.173a2.338,2.338,0,0,0-.311,1.594l-.559.465,1.273,1.241.913-.775a4.855,4.855,0,0,0,2.521-1.458,4.227,4.227,0,0,0,1.045-3.071.483.483,0,0,0-.789-.312" transform="translate(-1498.396 -816.89)" fill="#fb9c98"/>
      <path id="Path_23273" data-name="Path 23273" d="M1477.078,873.575s-9.224.574-7.908,28.641a33.549,33.549,0,0,0,13.719-.421l2.474-.554-.6-16.535a12.575,12.575,0,0,0-7.686-11.131" transform="translate(-1273.447 -765.938)" fill="#f9e0d2"/>
      <rect id="Rectangle_1310" data-name="Rectangle 1310" width="7.962" height="0.551" transform="translate(202.976 202.972)" fill="#d3d5fc"/>
      <path id="Path_23327" data-name="Path 23327" d="M0,0,8.432.211l.016.611L.016.611Z" transform="matrix(0.935, -0.356, 0.356, 0.935, 227.353, 202.915)" fill="#d3d5fc"/>
      <path id="Path_23274" data-name="Path 23274" d="M1511.793,882.043a1.84,1.84,0,0,0-2.423,1.713q.019.608.074,1.228c.684,7.525,5.4,13.277,9.323,16.88a6.1,6.1,0,0,0,6.842.888q2.086-1.073,4.248-2.289a112.25,112.25,0,0,0,10.154-6.9c-.172-.228,0,0-.174-.229-.355-.469-.373-.77-.728-1.231-2.471,1.113-5.145,2.5-7.807,3.593-2.986,1.228-6.136,1.921-8.98,2.971-1.564-3.384-2.7-5.921-3.335-7.331,0,0-2.742-7.536-6.546-9.068-.219-.088-.436-.164-.648-.227" transform="translate(-1308.406 -773.288)" fill="#fb9c98"/>
      <path id="Path_23275" data-name="Path 23275" d="M1511.472,887.608s-2.267,2.715-7.673,4.554l-3.575-10.143.938-2.239,1.929-1.632,3.052.926s4.432,5.234,5.33,8.534" transform="translate(-1300.478 -769.948)" fill="#f9e0d2"/>
      <path id="Line_742" data-name="Line 742" d="M243.661-5.061H-5.822a.863.863,0,0,1-.894-.828.863.863,0,0,1,.894-.828H243.661a.863.863,0,0,1,.894.828A.863.863,0,0,1,243.661-5.061Z" transform="translate(6.716 210.186)" fill="#bbb4f8"/>
      <path id="Path_23281" data-name="Path 23281" d="M722.947,953.116a6.68,6.68,0,1,0-6.66,6.163,6.426,6.426,0,0,0,6.66-6.163" transform="translate(-615.144 -830.275)" fill="#efeefe"/>
      <path id="Path_23282" data-name="Path 23282" d="M722.947,953.116a6.68,6.68,0,1,0-6.66,6.163,6.426,6.426,0,0,0,6.66-6.163" transform="translate(-615.144 -830.275)" fill="#efeefe"/>
      <path id="Path_23283" data-name="Path 23283" d="M723.449,1005.419a6.805,6.805,0,0,0,5.56-2.77,6.567,6.567,0,0,0-11.12,0,6.805,6.805,0,0,0,5.56,2.77" transform="translate(-622.307 -876.414)" fill="#8754af"/>
      <path id="Path_23284" data-name="Path 23284" d="M745.507,958.509a2.574,2.574,0,1,0-2.566,2.375,2.476,2.476,0,0,0,2.566-2.375" transform="translate(-641.799 -838.325)" fill="#8754af"/>
      <path id="Rectangle_1314" data-name="Rectangle 1314" d="M1.483-4.422H76.048a5.7,5.7,0,0,1,5.9,5.464v47.4a5.7,5.7,0,0,1-5.9,5.464H1.483a5.7,5.7,0,0,1-5.9-5.464V1.043A5.7,5.7,0,0,1,1.483-4.422ZM76.048,52.822a4.566,4.566,0,0,0,4.727-4.375V1.043a4.566,4.566,0,0,0-4.727-4.375H1.483A4.567,4.567,0,0,0-3.244,1.043v47.4a4.567,4.567,0,0,0,4.727,4.375Z" transform="translate(90.099 116.269)" fill="#bbb4f8"/>
      <path id="Line_747" data-name="Line 747" d="M59.577-3.332H-3.833a.568.568,0,0,1-.589-.545.568.568,0,0,1,.589-.545h63.41a.568.568,0,0,1,.589.545A.568.568,0,0,1,59.577-3.332Z" transform="translate(98.315 136.769)" fill="#9087f4"/>
      <path id="Line_748" data-name="Line 748" d="M42.8-3.332H-3.833a.568.568,0,0,1-.589-.545.568.568,0,0,1,.589-.545H42.8a.568.568,0,0,1,.589.545A.568.568,0,0,1,42.8-3.332Z" transform="translate(98.315 143.108)" fill="#9087f4"/>
      <path id="Line_749" data-name="Line 749" d="M35.536-3.332H-3.833a.568.568,0,0,1-.589-.545.568.568,0,0,1,.589-.545H35.536a.568.568,0,0,1,.589.545A.568.568,0,0,1,35.536-3.332Z" transform="translate(98.315 155.787)" fill="#9087f4"/>
      <path id="Line_750" data-name="Line 750" d="M27.953-3.332H-3.833a.568.568,0,0,1-.589-.545.568.568,0,0,1,.589-.545H27.953a.568.568,0,0,1,.589.545A.568.568,0,0,1,27.953-3.332Z" transform="translate(98.315 149.448)" fill="#9087f4"/>
      <path id="Line_751" data-name="Line 751" d="M16.981-3.332H-3.833a.568.568,0,0,1-.589-.545.568.568,0,0,1,.589-.545H16.981a.568.568,0,0,1,.589.545A.568.568,0,0,1,16.981-3.332Z" transform="translate(141.395 149.448)" fill="#9087f4"/>
      <path id="Path_23285" data-name="Path 23285" d="M742.029,86.745a.4.4,0,0,1,.1.012l2.392.6a.342.342,0,0,1,.269.379l-.232,1.453a5.826,5.826,0,0,1,.772.55l1.462-.581a.384.384,0,0,1,.465.143l1.236,1.987a.325.325,0,0,1-.1.444l-1.276.877a5.046,5.046,0,0,1,.127.9l1.474.545a.335.335,0,0,1,.219.405l-.644,2.214a.369.369,0,0,1-.41.249l-1.57-.214a5.479,5.479,0,0,1-.6.717l.628,1.352a.329.329,0,0,1-.155.43l-2.147,1.144a.388.388,0,0,1-.48-.092l-.949-1.182a6.291,6.291,0,0,1-.966.116l-.588,1.364a.376.376,0,0,1-.438.2l-2.392-.6a.342.342,0,0,1-.269-.379l.232-1.453a5.805,5.805,0,0,1-.821-.592l-1.436.571a.384.384,0,0,1-.465-.143l-1.236-1.987a.325.325,0,0,1,.1-.444l1.286-.884a5.023,5.023,0,0,1-.113-.838l-1.474-.545a.335.335,0,0,1-.219-.405l.644-2.214a.37.37,0,0,1,.41-.249l1.57.214a5.472,5.472,0,0,1,.6-.72l-.626-1.348a.329.329,0,0,1,.155-.43l2.147-1.144a.388.388,0,0,1,.48.092l.948,1.18a6.3,6.3,0,0,1,.963-.116l.588-1.364A.37.37,0,0,1,742.029,86.745Zm1.98,1.188-1.759-.438-.557,1.292a.37.37,0,0,1-.341.215,5.5,5.5,0,0,0-1.274.153.385.385,0,0,1-.389-.127l-.9-1.117-1.579.841.592,1.276a.323.323,0,0,1-.078.375,4.791,4.791,0,0,0-.79.949.379.379,0,0,1-.372.165l-1.487-.2-.474,1.628,1.4.515a.343.343,0,0,1,.232.316,4.389,4.389,0,0,0,.153,1.131.328.328,0,0,1-.138.357l-1.216.836.909,1.461,1.361-.541a.391.391,0,0,1,.408.074,5.077,5.077,0,0,0,1.063.767.333.333,0,0,1,.178.344l-.219,1.376,1.759.438.557-1.291a.369.369,0,0,1,.341-.215,5.5,5.5,0,0,0,1.277-.154.385.385,0,0,1,.389.127l.9,1.119,1.579-.841-.594-1.28a.323.323,0,0,1,.077-.375,4.788,4.788,0,0,0,.787-.947.379.379,0,0,1,.372-.165l1.486.2.474-1.628-1.4-.515a.342.342,0,0,1-.232-.316,4.391,4.391,0,0,0-.167-1.184.328.328,0,0,1,.137-.36l1.208-.831-.909-1.461-1.384.55a.391.391,0,0,1-.405-.071,5.088,5.088,0,0,0-1.021-.727.333.333,0,0,1-.178-.344Zm-2.637,3.833a2.279,2.279,0,0,1,.882.176,2.048,2.048,0,0,1,1.127,1.109,1.84,1.84,0,0,1-.051,1.521,2.169,2.169,0,0,1-1.96,1.172,2.279,2.279,0,0,1-.882-.176,2.048,2.048,0,0,1-1.126-1.109,1.841,1.841,0,0,1,.051-1.521A2.169,2.169,0,0,1,741.372,91.766Zm0,3.3a1.425,1.425,0,0,0,1.288-.77,1.208,1.208,0,0,0,.033-1,1.345,1.345,0,0,0-.74-.729,1.5,1.5,0,0,0-.579-.116,1.425,1.425,0,0,0-1.288.77,1.209,1.209,0,0,0-.033,1,1.346,1.346,0,0,0,.74.729A1.5,1.5,0,0,0,741.371,95.062Z" transform="translate(-636.096 -76.057)" fill="#8a8aff"/>
      <path id="Path_23286" data-name="Path 23286" d="M837.574,32.249a.4.4,0,0,1-.12-.019l-1.9-.6a.338.338,0,0,1-.24-.4l.264-1.121a4.688,4.688,0,0,1-.569-.471l-1.151.374a.381.381,0,0,1-.453-.172l-.879-1.668a.327.327,0,0,1,.132-.437l1.054-.626a4.127,4.127,0,0,1-.037-.61L832.56,26a.332.332,0,0,1-.189-.418l.653-1.755a.374.374,0,0,1,.427-.222l1.212.244a4.571,4.571,0,0,1,.474-.5l-.41-1.082a.332.332,0,0,1,.186-.419l1.8-.814a.386.386,0,0,1,.472.122l.67.967a5.17,5.17,0,0,1,.706-.04l.537-1.034a.38.38,0,0,1,.452-.175l1.9.6a.338.338,0,0,1,.24.4L841.425,23a4.716,4.716,0,0,1,.532.435l1.173-.381a.381.381,0,0,1,.453.172l.88,1.668a.327.327,0,0,1-.132.437l-1.045.621a4.112,4.112,0,0,1,.044.658l1.118.5a.332.332,0,0,1,.189.418l-.653,1.755a.374.374,0,0,1-.427.222l-1.211-.244a4.576,4.576,0,0,1-.472.494l.411,1.085a.332.332,0,0,1-.186.419l-1.8.814a.386.386,0,0,1-.472-.122l-.672-.968a5.176,5.176,0,0,1-.709.04l-.537,1.034A.372.372,0,0,1,837.574,32.249Zm-1.467-1.169,1.276.406.5-.962a.374.374,0,0,1,.356-.193,4.383,4.383,0,0,0,1.023-.058.381.381,0,0,1,.379.151l.625.9,1.213-.548-.383-1.01a.325.325,0,0,1,.1-.369,3.87,3.87,0,0,0,.681-.712.383.383,0,0,1,.383-.141l1.127.227.439-1.181-1.04-.462a.338.338,0,0,1-.208-.33,3.491,3.491,0,0,0-.063-.949.331.331,0,0,1,.163-.351l.973-.578-.592-1.123-1.092.354a.388.388,0,0,1-.4-.1,3.993,3.993,0,0,0-.768-.628.33.33,0,0,1-.153-.355l.246-1.043-1.276-.406-.5.962a.374.374,0,0,1-.356.193,4.375,4.375,0,0,0-1.021.058.381.381,0,0,1-.379-.151l-.624-.9-1.213.548.381,1.007a.325.325,0,0,1-.1.369,3.868,3.868,0,0,0-.683.714.383.383,0,0,1-.383.141l-1.127-.228-.439,1.181,1.04.463a.338.338,0,0,1,.208.329,3.5,3.5,0,0,0,.055.906.331.331,0,0,1-.164.347l-.979.582.592,1.122L835,28.92a.388.388,0,0,1,.4.1,3.97,3.97,0,0,0,.8.662.33.33,0,0,1,.153.355Zm2.395-2.85a1.93,1.93,0,0,1-.854-.2,1.7,1.7,0,0,1-.878-.992,1.554,1.554,0,0,1,.137-1.276,1.833,1.833,0,0,1,1.6-.884,1.932,1.932,0,0,1,.854.2,1.616,1.616,0,0,1,.74,2.267A1.833,1.833,0,0,1,838.5,28.23Zm0-2.668a1.087,1.087,0,0,0-.947.524.921.921,0,0,0-.081.756,1.007,1.007,0,0,0,.52.588,1.128,1.128,0,0,0,.505.118,1.087,1.087,0,0,0,.947-.524.958.958,0,0,0-.439-1.344A1.128,1.128,0,0,0,838.5,25.562Z" transform="translate(-721.528 -18.291)" fill="#8a8aff"/>
      <path id="Line_752" data-name="Line 752" d="M8.357-5.061H-5.822a.863.863,0,0,1-.894-.828.863.863,0,0,1,.894-.828H8.357a.863.863,0,0,1,.894.828A.863.863,0,0,1,8.357-5.061Z" transform="translate(263.622 210.186)" fill="#bbb4f8"/>
      <path id="Path_23287" data-name="Path 23287" d="M67.455,948.606a46.725,46.725,0,0,0-1.82,6.843l-7.557-7.843s-1.1,1.248-.843,1.93c.242.64,6.656,10.615,8.247,12.636,1.726,2.194,6.774-7.967,7.226-12.119.044-.4.333-.626.334-1.031a42.033,42.033,0,0,0-5.587-.415" transform="translate(-49.581 -830.847)" fill="#f6a19e"/>
      <rect id="Rectangle_1315" data-name="Rectangle 1315" width="2.686" height="0.605" transform="translate(21.108 200.711)" fill="#f6a19e"/>
      <path id="Path_23288" data-name="Path 23288" d="M133.485,1628.959a1.373,1.373,0,0,1,0,2.116h-6.933l.072-.881,4.23-1.234h.213a2.728,2.728,0,0,0,2.418,0" transform="translate(-109.702 -1428.247)" fill="#2e3192"/>
      <rect id="Rectangle_1316" data-name="Rectangle 1316" width="7.332" height="0.689" transform="translate(16.656 202.827)" fill="#4463cd"/>
      <path id="Path_23289" data-name="Path 23289" d="M145.409,1629.348l-.37-.216.217-.318.127-.186.37.216-.127.186Z" transform="translate(-125.728 -1427.957)" fill="#e1eef7"/>
      <path id="Path_23290" data-name="Path 23290" d="M150.715,1629.854l-.391-.181.282-.521.009-.016.391.181-.009.016Z" transform="translate(-130.31 -1428.402)" fill="#e1eef7"/>
      <path id="Path_23291" data-name="Path 23291" d="M164.58,1618.983l-.117,1.229h-1.877l-.057-1.131Z" transform="translate(-140.889 -1419.5)" fill="#f6a19e"/>
      <path id="Path_23292" data-name="Path 23292" d="M277.168,1618.63a3.532,3.532,0,0,0,.166,1.308c.218.537-1.542.632-1.567.616s-.831-.616-.831-.616a4.1,4.1,0,0,0,.208-1.4" transform="translate(-238.33 -1419.106)" fill="#f6a19e"/>
      <path id="Path_23293" data-name="Path 23293" d="M270.424,1628.21a2.672,2.672,0,0,1,.481-1.256,3.956,3.956,0,0,1,.958-.2,4.033,4.033,0,0,1,1.617.2,2.254,2.254,0,0,1,.543,1.3,2.139,2.139,0,0,1-.16.955h-3.348a2.572,2.572,0,0,1-.092-1" transform="translate(-234.407 -1426.302)" fill="#2e3192"/>
      <path id="Path_23294" data-name="Path 23294" d="M271.87,1633.858h.782a1.344,1.344,0,0,1,1.393,1.289v.284h-3.568v-.284a1.344,1.344,0,0,1,1.393-1.289" transform="translate(-234.465 -1432.543)" fill="#2e3192"/>
      <rect id="Rectangle_1317" data-name="Rectangle 1317" width="3.613" height="0.68" transform="translate(36.012 202.837)" fill="#4463cd"/>
      <path id="Path_23295" data-name="Path 23295" d="M281.039,1628.914a1.773,1.773,0,0,0-.939,0l-.061-.159a1.938,1.938,0,0,1,1.058,0Z" transform="translate(-242.754 -1428.001)" fill="#e1eef7"/>
      <path id="Path_23296" data-name="Path 23296" d="M281.039,1631.6a1.77,1.77,0,0,0-.939,0l-.061-.159a1.944,1.944,0,0,1,1.058,0Z" transform="translate(-242.754 -1430.358)" fill="#e1eef7"/>
      <path id="Path_23297" data-name="Path 23297" d="M150.917,1038.447s-2.507,4.121-2.655,4.564c-.661,1.978-1.492,5.5-1.645,6.274-.805,4.084-.724,25.779,1.206,60.682l2.984-.16c2.743-18.757,5.854-37.123,9.205-55.431q-.367-8.086-.734-16.172Z" transform="translate(-126.679 -910.281)" fill="#8754af"/>
      <path id="Path_23298" data-name="Path 23298" d="M231.924,1056.249s7.737,8.54,5.761,25.672c-2.015,17.474-6.129,43.926-6.129,43.926l-2.894-.1-4.024-54.725s-2.608-4.736-2.769-14.372Z" transform="translate(-192.328 -926.104)" fill="#8754af"/>
      <path id="Path_23299" data-name="Path 23299" d="M235.155,1154.722a23.587,23.587,0,0,0-.369-3.908,23.829,23.829,0,0,0-.789-3.142l.42-.117a24.208,24.208,0,0,1,.8,3.192,23.961,23.961,0,0,1,.375,3.971Z" transform="translate(-202.842 -1006.16)" fill="#653087"/>
      <path id="Path_23300" data-name="Path 23300" d="M190.089,781.909c.238-.552-.462-1-.152-1.688.441-.983,2.123-.667,2.562-1.607.3-.645-.406-.972-.5-2.33-.1-1.5.708-1.807.369-2.612-.453-1.078-1.979-.7-3.083-2.13-.639-.83-.343-1.237-.934-1.587-.9-.533-1.863.241-3.278-.181-.924-.276-.788-.8-1.455-.884-1.1-.142-1.4,1.125-3.387,1.828-1.046.369-1.526.219-1.954.723-.479.564-.1,1.01-.521,1.848-.52,1.026-1.328.822-1.693,1.668-.428.99.584,1.495.326,2.913-.177.969-.713,1.083-.89,2.049a3.587,3.587,0,0,0,.5,2.391c3.193.053,5.752.159,7.447.241,3.269.159,6.2.373,6.643-.643" transform="translate(-152.093 -674.142)" fill="#191245"/>
      <path id="Path_23301" data-name="Path 23301" d="M138.792,898.984q.131-.388.259-.785c1.185-3.694-.516-6.422-.178-9.344,0,0-3.6,1.394-6.384,8.848Z" transform="translate(-114.849 -779.335)" fill="#f9e0d2"/>
      <path id="Path_23302" data-name="Path 23302" d="M168.814,893.274c0-4.766.16-9.394.361-15.156a33.155,33.155,0,0,1,1.187-6.454l7.9-2.416,6.5,1.676c.47,3.591.456,7.1.894,10.764.44,3.685.5,7.656.893,11.279a37.255,37.255,0,0,1-7.275,1.093,43.651,43.651,0,0,1-10.455-.786" transform="translate(-146.337 -762.144)" fill="#f9e0d2"/>
      <path id="Path_23303" data-name="Path 23303" d="M212.511,838.408l.038-3.387-3.634-.164-.046,3.783c-.081.685-.983,1.226-1.69,1.442l-1.277.391a17.252,17.252,0,0,0,.833,2.127,17.87,17.87,0,0,0,1.912,3.164l5.522-5.7a2.195,2.195,0,0,1-1.658-1.657" transform="translate(-178.487 -731.992)" fill="#f6a19e"/>
      <path id="Path_23304" data-name="Path 23304" d="M229.524,844.287l-.993-.745,3.634.164-.026,2.354a2.3,2.3,0,0,1-1,.357c-1.022.106-2.638-1.122-1.611-2.13" transform="translate(-198.104 -739.605)" fill="#f26d6d"/>
      <path id="Path_23305" data-name="Path 23305" d="M230.5,803.227a3.086,3.086,0,0,1,1.17,2.755c-.04,1.4-.908,3.577-2.7,3.761-1.72.176-3.374-1.568-3.507-3.307a3.486,3.486,0,0,1,2.38-3.518,3.346,3.346,0,0,1,2.661.309" transform="translate(-195.435 -703.858)" fill="#f6a19e"/>
      <path id="Path_23306" data-name="Path 23306" d="M251.246,842.026a.882.882,0,0,1-.666.659.956.956,0,0,1-1.073-.659Z" transform="translate(-216.287 -738.276)" fill="#fff"/>
      <path id="Path_23307" data-name="Path 23307" d="M298.809,923.935a17.117,17.117,0,0,1,1.462,3.263,16.646,16.646,0,0,1,.82,4.771l6.469-8.033,1.7,1s-3.826,9.8-8.238,13.892a1.208,1.208,0,0,1-1.766-.166c-1.321-1.817-3.885-5.943-3.981-10.706-.032-1.607.158-3.853,1.5-4.351a2.625,2.625,0,0,1,2.041.334" transform="translate(-255.956 -809.714)" fill="#f6a19e"/>
      <path id="Path_23308" data-name="Path 23308" d="M298.809,923.935a17.117,17.117,0,0,1,1.462,3.263,16.646,16.646,0,0,1,.82,4.771l6.469-8.033,2.509-.138s-4.639,10.934-9.051,15.027a1.208,1.208,0,0,1-1.766-.166c-1.321-1.817-3.885-5.943-3.981-10.706-.032-1.607.158-3.853,1.5-4.351a2.625,2.625,0,0,1,2.041.334" transform="translate(-255.956 -809.714)" fill="#f6a19e"/>
      <path id="Path_23309" data-name="Path 23309" d="M288.749,893.454a11.3,11.3,0,0,1-.451-2.747,35.051,35.051,0,0,1-.322-7.86s4.042,2.043,5.182,6c.32,1.11.614,2.155.872,3.084Z" transform="translate(-249.556 -774.067)" fill="#f9e0d2"/>
      <path id="Path_23310" data-name="Path 23310" d="M329.788,988.083a.317.317,0,0,1,.4-.02c.008.152.013.3.017.441l-.829.78a.319.319,0,0,1-.432,0,.275.275,0,0,1,0-.406Z" transform="translate(-285.069 -866.265)" fill="#f26d6d"/>
      <path id="Path_23311" data-name="Path 23311" d="M238.093,954.952q-.1,0-.206,0a6.763,6.763,0,0,1-2.051-.4l.153-.368a6.314,6.314,0,0,0,1.91.371,5.77,5.77,0,0,0,1.522-.151,5.309,5.309,0,0,0,1.034-.358,2.608,2.608,0,0,0,.421-.237l.286.292a2.86,2.86,0,0,1-.51.294,5.766,5.766,0,0,1-1.122.39A6.221,6.221,0,0,1,238.093,954.952Z" transform="translate(-204.436 -836.285)" fill="#ffc5ae"/>
      <path id="Path_23312" data-name="Path 23312" d="M214.176,881.141l-2.011-.368.091-.423,2.01.367Z" transform="translate(-183.916 -771.879)" fill="#f26d6d"/>
      <path id="Path_23313" data-name="Path 23313" d="M247.015,880.169l-.174-.4,1.9-.709.174.4Z" transform="translate(-213.976 -770.747)" fill="#f26d6d"/>
      <path id="Path_23314" data-name="Path 23314" d="M176.965,943.372a4.651,4.651,0,0,1-1.594-.263,2.671,2.671,0,0,1-.989-.632,2.523,2.523,0,0,1-.673-1.9l.464.043-.232-.022.232.021a2.062,2.062,0,0,0,.037.542,1.984,1.984,0,0,0,.523,1.027,3.054,3.054,0,0,0,2.237.749Z" transform="translate(-150.574 -824.687)" fill="#ffc5ae"/>
      <path id="Path_23315" data-name="Path 23315" d="M218.741,822.969a.767.767,0,0,1,.736-.808.792.792,0,0,1,.873.681.767.767,0,0,1-.736.808.791.791,0,0,1-.873-.681" transform="translate(-189.614 -720.856)" fill="#f6a19e"/>
      <path id="Path_23316" data-name="Path 23316" d="M221.492,825.353a.419.419,0,0,1,.4-.442.433.433,0,0,1,.477.372.419.419,0,0,1-.4.441.432.432,0,0,1-.477-.372" transform="translate(-192.001 -723.269)" fill="#f26d6d"/>
      <path id="Path_23317" data-name="Path 23317" d="M223.652,784.31c.508.536.1,1.831-.7,2.227-.705.353-1.294-.1-1.844.25-.505.321-.271.733-.81,1.124-.484.351-.758.1-1.743.429-.827.277-.9.542-1.384.532a1.612,1.612,0,0,1-1.325-.761c-.577-1.088,1.127-2.647,1.368-2.868.876-.8,2.383-1.642,3.139-1.212.336.191.4.529.768.562.409.037.549-.37,1.122-.531a1.536,1.536,0,0,1,1.409.247" transform="translate(-187.006 -687.325)" fill="#191245"/>
      <path id="Path_23318" data-name="Path 23318" d="M392.958,898.939a8.45,8.45,0,0,0-.924.468c-1.173.688-1.76,1.425-2.018,1.282-.307-.171.3-1.342-.006-1.506-.243-.129-.862.478-1.119.769a2.137,2.137,0,0,0-.688,1.272l-.92,1.167,1.04.653,1-.663a4.455,4.455,0,0,0,2.514-.651,3.9,3.9,0,0,0,1.7-2.348.409.409,0,0,0-.581-.444" transform="translate(-335.718 -788.145)" fill="#f6a19e"/>
      <path id="Path_23319" data-name="Path 23319" d="M27.924,938.526c.3.09.668.385,1.031.544,1.293.566,1.6.869,1.842.692.29-.211-.751-1.056-.46-1.26.23-.161,1.222.346,1.525.613.378.333.569.46.658.979l1.286,1.343-1.542,1-.652-.94a4.515,4.515,0,0,1-2.468-.585,2.991,2.991,0,0,1-1.752-1.859.413.413,0,0,1,.531-.522" transform="translate(-23.721 -822.838)" fill="#f6a19e"/>
      <path id="Path_23320" data-name="Path 23320" d="M213.425,690.4a2,2,0,0,1,1.424.548,1.737,1.737,0,0,1,.581,1.307,1.658,1.658,0,0,1-.159.717,2.034,2.034,0,0,1-.433.6,1.976,1.976,0,0,1-.638.411,2.107,2.107,0,0,1-1.549,0,1.845,1.845,0,0,1-.627-.411,2.131,2.131,0,0,1-.421-.6,1.65,1.65,0,0,1-.16-.717,1.737,1.737,0,0,1,.581-1.307,1.969,1.969,0,0,1,1.4-.548" transform="translate(-183.291 -605.33)" fill="#ccf"/>
      <path id="Path_23321" data-name="Path 23321" d="M202.034,588.776a2.18,2.18,0,0,0-1.7-.788c-1.038.028-1.28.891-2.215.929-.9.036-1.972-.708-2.007-1.4-.056-1.141,2.671-2.732,5.225-2.505,1.71.152,3.883,1.08,4.6,2.978a4.682,4.682,0,0,1-1.723,5.2,5.606,5.606,0,0,0-1.969,1.436c-.508.71-.417,1.183-.909,1.542a2.2,2.2,0,0,1-2.537.017c-.647-.728.183-2.541,1.363-3.521.782-.649,1.232-.531,1.723-1.209a2.293,2.293,0,0,0,.151-2.68" transform="translate(-169.997 -512.909)" fill="#ccf"/>
      <path id="Path_23322" data-name="Path 23322" d="M349.155,755.952a1.1,1.1,0,0,1,.781.3.954.954,0,0,1,.319.717.911.911,0,0,1-.088.393,1.123,1.123,0,0,1-.237.33,1.088,1.088,0,0,1-.35.225,1.156,1.156,0,0,1-.85,0,1.014,1.014,0,0,1-.344-.225,1.177,1.177,0,0,1-.231-.33.907.907,0,0,1-.087-.393.953.953,0,0,1,.319-.717,1.08,1.08,0,0,1,.769-.3" transform="translate(-301.724 -662.808)" fill="#ccf"/>
      <path id="Path_23323" data-name="Path 23323" d="M334.034,681.832a1.392,1.392,0,0,0-1.247-.577c-.744.182-.584,1.382-1.32,1.65a1.876,1.876,0,0,1-2.1-1.21c-.159-1.093,1.99-2.749,4.159-2.62a3.841,3.841,0,0,1,3.368,2.18,3.427,3.427,0,0,1-1.261,3.809,4.107,4.107,0,0,0-1.441,1.052c-.372.52-.305.866-.665,1.129a1.609,1.609,0,0,1-1.857.013c-.474-.533.134-1.86,1-2.578.572-.475.9-.388,1.261-.885a1.678,1.678,0,0,0,.111-1.962" transform="translate(-285.502 -595.396)" fill="#ccf"/>
      <path id="Path_23324" data-name="Path 23324" d="M99.42,767.253a.97.97,0,0,1,.691.266.843.843,0,0,1,.282.634.806.806,0,0,1-.077.348.99.99,0,0,1-.21.292.962.962,0,0,1-.31.2,1.023,1.023,0,0,1-.752,0,.9.9,0,0,1-.3-.2,1.035,1.035,0,0,1-.2-.292.8.8,0,0,1-.077-.348.843.843,0,0,1,.282-.634.956.956,0,0,1,.68-.266" transform="translate(-85.349 -672.716)" fill="#ccf"/>
      <path id="Path_23325" data-name="Path 23325" d="M88.132,686.709a1.877,1.877,0,0,0-1.528-.525c-.81.091-.955.664-1.621.68a1.519,1.519,0,0,1-1.469-1.026c-.108-.906,1.815-2.332,3.765-2.168a3.751,3.751,0,0,1,3.263,2.566,3.453,3.453,0,0,1-1.194,3.572,4.967,4.967,0,0,0-1.322.967c-.473.578-.394.936-.853,1.263-.507.361-1.369.469-1.69.149-.483-.482.251-1.935,1-2.578a8.711,8.711,0,0,1,.757-.571c.549-.364.655-.333.832-.513a1.425,1.425,0,0,0,.064-1.816" transform="translate(-72.39 -599.42)" fill="#ccf"/>
      <g id="Group_23946" data-name="Group 23946" transform="translate(97.902 66.305)">
        <g id="Group_23936" data-name="Group 23936" transform="translate(0 0)" clip-path="url(#clip-path-2)">
          <path id="Path_23329" data-name="Path 23329" d="M7.082,8.924v-3.4h3.152v5.222A8.265,8.265,0,0,1,6.019,12C3.095,12,0,10.253,0,6A5.783,5.783,0,0,1,6,0a6.126,6.126,0,0,1,4.234,1.272L9,3.93a3.969,3.969,0,0,0-2.316-.855A3.017,3.017,0,0,0,3.474,6c0,1.9.949,2.924,3.247,2.924Z" transform="translate(0 0)" fill="#b1b4ff"/>
          <path id="Path_23330" data-name="Path 23330" d="M50.359,7.593V.758h3.1V7.593c0,1.31.684,1.975,1.671,1.975.968,0,1.652-.665,1.652-1.975V.758h3.1V7.593c0,2.734-1.405,4.975-4.747,4.975-3.475,0-4.766-2.24-4.766-4.975" transform="translate(-37.732 -0.568)" fill="#b1b4ff"/>
          <rect id="Rectangle_1322" data-name="Rectangle 1322" width="3.171" height="11.62" transform="translate(25.007 0.19)" fill="#b1b4ff"/>
          <path id="Path_23331" data-name="Path 23331" d="M127.519,12.377h-4.007V.757h4.007c3.684,0,6.038,1.595,6.038,5.7,0,4.139-3.038,5.924-6.038,5.924m0-8.582h-.835V9.339h.835c1.785,0,2.582-1.329,2.582-2.886a2.33,2.33,0,0,0-2.582-2.658" transform="translate(-92.543 -0.567)" fill="#b1b4ff"/>
          <path id="Path_23332" data-name="Path 23332" d="M180.88,5.143V7.82h-4.367V9.339H182.1v3.038h-8.753V.757H182.1V3.795h-5.582V5.143Z" transform="translate(-129.879 -0.567)" fill="#b1b4ff"/>
          <path id="Path_23333" data-name="Path 23333" d="M246.762,6.131a2.605,2.605,0,0,1,1.728,2.658c0,2.506-1.823,3.589-4.519,3.589h-4.9V.757h4.652c2.2,0,3.816,1.2,3.816,3.361a3.269,3.269,0,0,1-.778,2.013M243.4,3.187h-1.158V5.048H243.4c.741,0,1.159-.266,1.159-.93s-.456-.93-1.159-.93m.646,4.462h-1.8V9.89h1.8a1.118,1.118,0,0,0,1.158-1.12,1.067,1.067,0,0,0-1.158-1.12" transform="translate(-236.793 14.433)" fill="#b1b4ff"/>
          <path id="Path_23334" data-name="Path 23334" d="M294.425,6c0,4.633-3.266,6-5.62,6s-5.659-1.367-5.659-6c0-4.614,3.4-6,5.659-6s5.62,1.348,5.62,6m-7.8,0c0,1.994.7,3.247,2.184,3.247,1.538,0,2.146-1.253,2.146-3.247,0-1.5-.456-3.19-2.146-3.19S286.621,4.5,286.621,6" transform="translate(-269.816 15)" fill="#b1b4ff"/>
          <path id="Path_23335" data-name="Path 23335" d="M348.949,6c0,4.633-3.266,6-5.62,6s-5.658-1.367-5.658-6c0-4.614,3.4-6,5.658-6s5.62,1.348,5.62,6m-7.8,0c0,1.994.7,3.247,2.184,3.247,1.538,0,2.145-1.253,2.145-3.247,0-1.5-.456-3.19-2.145-3.19S341.145,4.5,341.145,6" transform="translate(-310.67 15)" fill="#b1b4ff"/>
          <path id="Path_23336" data-name="Path 23336" d="M398.119,5.865l4.2,6.513h-3.779L395.214,7.1v5.279h-3.171V.758h3.171V4.536L398.233.758h3.627Z" transform="translate(-351.409 14.432)" fill="#b1b4ff"/>
        </g>
      </g>
    </g>
  </g>
</svg>
