<?xml version="1.0" encoding="utf-8"?>
<!-- Generator: Adobe Illustrator 27.8.1, SVG Export Plug-In . SVG Version: 6.00 Build 0)  -->
<svg version="1.1" xmlns="http://www.w3.org/2000/svg" xmlns:xlink="http://www.w3.org/1999/xlink" x="0px" y="0px"
	 viewBox="0 0 1732.1 1321" style="enable-background:new 0 0 1732.1 1321;" xml:space="preserve">
<style type="text/css">
	.st0{fill:#C5D1FC;}
	.st1{fill:none;stroke:#FFFFFF;stroke-width:6;stroke-miterlimit:10;}
	.st2{fill:none;stroke:#231F20;stroke-width:6;stroke-miterlimit:10;}
	.st3{fill:none;stroke:#FFFFFF;stroke-width:6;stroke-linecap:round;stroke-linejoin:round;stroke-miterlimit:10;}
	.st4{fill:#EFE3DA;}
	.st5{fill:none;stroke:#121154;stroke-width:6;stroke-miterlimit:10;}
	.st6{fill:#102D5B;}
	.st7{fill:#102D5B;stroke:#FFFFFF;stroke-width:6;stroke-miterlimit:10;}
	.st8{fill:#FFFFFF;stroke:#231F20;stroke-width:6;stroke-miterlimit:10;}
	.st9{fill:#FFFFFF;stroke:#FFFFFF;stroke-width:6;stroke-miterlimit:10;}
</style>
<g id="Layer_1">
</g>
<g id="Layer_4">
	<g>
		<g>
			<g>
				<g>
					<g>
						<path class="st0" d="M614.7,158.5c-8.4,0-12.6,0-21,0c-1.8,0-3.7-1.3-4.2-2.9c-0.5-1.6,0.6-2.9,2.4-2.9c8.4,0,12.6,0,21,0
							c1.8,0,3.7,1.3,4.2,2.9C617.6,157.2,616.5,158.5,614.7,158.5z"/>
					</g>
					<g>
						<path class="st0" d="M1199.5,158.2c-13.7,0-27.3,0-41,0c-1.9,0-3.7-1.1-4.2-2.5c-0.4-1.4,0.8-2.5,2.7-2.5c13.7,0,27.3,0,41,0
							c1.9,0,3.7,1.1,4.1,2.4C1202.6,157.1,1201.4,158.2,1199.5,158.2z M1117.1,158.3c-13.9,0-27.9,0-41.8,0c-1.9,0-3.8-1.1-4.2-2.5
							c-0.4-1.4,0.8-2.5,2.7-2.5c13.9,0,27.9,0,41.8,0c1.9,0,3.8,1.1,4.2,2.5C1120.2,157.2,1119,158.3,1117.1,158.3z M1033.2,158.3
							c-14.1,0-28.2,0-42.3,0c-1.9,0-3.9-1.2-4.3-2.6c-0.4-1.4,0.8-2.6,2.7-2.6c14.1,0,28.2,0,42.3,0c1.9,0,3.8,1.1,4.3,2.6
							C1036.4,157.2,1035.1,158.3,1033.2,158.3z M948.6,158.4c-14.1,0-28.3,0-42.4,0c-1.9,0-3.9-1.2-4.3-2.7
							c-0.4-1.5,0.8-2.7,2.7-2.7c14.2,0,28.3,0,42.5,0c1.9,0,3.9,1.2,4.3,2.6C951.7,157.2,950.5,158.4,948.6,158.4z M863.8,158.5
							c-14.1,0-28.2,0-42.3,0c-1.9,0-3.9-1.2-4.3-2.8c-0.5-1.5,0.7-2.7,2.7-2.7c14.1,0,28.2,0,42.3,0c1.9,0,3.9,1.2,4.3,2.7
							C866.9,157.2,865.7,158.5,863.8,158.5z M779.4,158.5c-13.9,0-27.9,0-41.8,0c-1.9,0-3.8-1.3-4.3-2.8c-0.5-1.6,0.7-2.8,2.6-2.8
							c13.9,0,27.9,0,41.8,0c1.9,0,3.9,1.2,4.3,2.8C782.5,157.3,781.3,158.5,779.4,158.5z M696.2,158.5c-13.7,0-27.3,0-41,0
							c-1.9,0-3.8-1.3-4.2-2.9c-0.5-1.6,0.6-2.9,2.5-2.9c13.7,0,27.3,0,41,0c1.9,0,3.8,1.3,4.3,2.8
							C699.2,157.2,698.1,158.5,696.2,158.5z"/>
					</g>
					<g>
						<path class="st0" d="M1261,158.2c-8.4,0-12.6,0-21,0c-1.8,0-3.7-1.1-4.1-2.4c-0.4-1.3,0.8-2.4,2.6-2.4c8.4,0,12.6,0,21,0
							c1.8,0,3.6,1.1,4,2.4C1264,157.1,1262.8,158.2,1261,158.2z"/>
					</g>
				</g>
			</g>
		</g>
		<path class="st1" d="M872.1,1048c-0.8,5.6-1.3,11.1-1.5,16.4c-0.1,1.5-0.1,2.9-0.2,4.3l-87.6,12.4h0l-22.7,3.2
			c63.5-35.1-66.5-187.3,1.4-197.4l18.7-2C846.2,883.8,886.4,945.8,872.1,1048z"/>
		<g>
			<g>
				<g>
					<g>
						<path class="st0" d="M985.4,1155.2c-7.4,0.6-11.1,0.9-18.5,1.5c-1.6,0.1-3.2-1-3.5-2.5c-0.3-1.5,0.7-2.9,2.3-3
							c7.4-0.6,11.1-0.9,18.5-1.5c1.6-0.1,3.2,1,3.5,2.5C988.1,1153.7,987,1155.1,985.4,1155.2z"/>
					</g>
					<g>
						<path class="st0" d="M1470.1,1077.9c-11.7,1.3-23.3,2.8-34.9,4.3c-1.6,0.2-3.1-1.1-3.3-2.9c-0.2-1.8,0.9-3.5,2.5-3.7
							c11.6-1.6,23.3-3.1,34.9-4.4c1.6-0.2,3.1,1.2,3.3,3C1472.8,1076.1,1471.7,1077.7,1470.1,1077.9z M1400.4,1087.2
							c-11.5,1.8-23.1,3.6-34.6,5.6c-1.6,0.3-3.1-1-3.3-2.7c-0.2-1.8,0.9-3.4,2.4-3.7c11.5-2,23.1-3.8,34.6-5.6
							c1.6-0.2,3.1,1,3.3,2.8C1403.1,1085.3,1402,1087,1400.4,1087.2z M1331.3,1098.7c-11.5,2.1-23,4.2-34.4,6.3
							c-1.6,0.3-3.1-0.9-3.3-2.6c-0.3-1.7,0.8-3.4,2.4-3.7c11.5-2.2,23-4.3,34.5-6.4c1.6-0.3,3.1,0.9,3.3,2.7
							C1333.9,1096.8,1332.9,1098.5,1331.3,1098.7z M1262.5,1111.5c-11.5,2.2-22.9,4.4-34.4,6.5c-1.6,0.3-3.1-0.8-3.4-2.5
							c-0.3-1.7,0.8-3.3,2.3-3.6c11.5-2.2,22.9-4.4,34.4-6.6c1.6-0.3,3.1,0.9,3.3,2.6C1265.1,1109.6,1264.1,1111.2,1262.5,1111.5z
							 M1193.8,1124.5c-11.5,2.1-22.9,4.2-34.4,6.3c-1.6,0.3-3.1-0.8-3.4-2.5c-0.3-1.7,0.7-3.2,2.3-3.5c11.5-2.1,23-4.2,34.5-6.4
							c1.6-0.3,3.1,0.8,3.4,2.5C1196.4,1122.6,1195.3,1124.2,1193.8,1124.5z M1124.8,1136.8c-11.5,1.9-23.1,3.8-34.6,5.6
							c-1.6,0.2-3.1-0.9-3.4-2.5c-0.3-1.6,0.7-3.1,2.3-3.4c11.6-1.8,23.1-3.7,34.6-5.6c1.6-0.3,3.1,0.8,3.4,2.5
							C1127.5,1135,1126.4,1136.6,1124.8,1136.8z M1055.5,1147.4c-11.6,1.6-23.3,3-34.9,4.3c-1.6,0.2-3.2-0.9-3.5-2.5
							c-0.3-1.6,0.7-3,2.3-3.2c11.7-1.3,23.3-2.8,34.9-4.4c1.6-0.2,3.1,0.9,3.5,2.5C1058.1,1145.7,1057.1,1147.2,1055.5,1147.4z"/>
					</g>
					<g>
						<path class="st0" d="M1523.7,1072.9c-7.4,0.5-11.1,0.8-18.5,1.5c-1.6,0.1-3.1-1.3-3.3-3.1c-0.2-1.9,0.9-3.5,2.5-3.7
							c7.4-0.7,11.1-1,18.5-1.5c1.6-0.1,3.1,1.3,3.3,3.2C1526.5,1071.1,1525.3,1072.8,1523.7,1072.9z"/>
					</g>
				</g>
			</g>
		</g>
		<g>
			<g>
				<path class="st1" d="M479.2,399.3l1.2-0.1c-2.1,0.3-4.2,0.5-6.4,0.8c-6.4,0.8-13.1,1.5-20.1,2.1c0,0-1.9,0.3-5.3-0.4
					c-0.1,0-0.2,0-0.3-0.1h0C436,399.3,405,385.8,365,313l103.9-14.9c15.6,53.5,20.6,97.8-18.5,103.4L479.2,399.3z"/>
				<path class="st1" d="M572.8,392l-92.4,7.2l-1.2,0.1l-28.8,2.2c39-5.6,34-49.9,18.5-103.4c0,0,0-0.1,0-0.1
					c-25.5-87.4-79.1-199.1-15.3-206.5c2.6,1,5.1,2.1,7.6,3.3C531.9,128.9,558.9,247.8,572.8,392z"/>
				<path class="st2" d="M448.2,401.7L448.2,401.7l2.2-0.2c-0.6,0.1-1.3,0.2-1.9,0.2"/>
				<g>
					<path class="st1" d="M583,534.2c13.1,235.3,18,485.7,123.2,539.8c20.7,10.6,45.2,13.7,74.4,7.6c0.7-0.2,1.4-0.3,2.2-0.5"/>
					<path class="st1" d="M453.5,91.4c0,0,0.1,0,0.4-0.1c17.3-2.3,668.2-87.2,816.4-14.8c1.8,0.8,3.4,1.7,5.1,2.6
						c111.8,62.6,55.2,513.3,125,720.4"/>
				</g>
				<path class="st1" d="M579.7,479.8c-1.9-30-4.2-59.4-6.9-87.8"/>
			</g>
			<path class="st1" d="M1698.4,1125.7l-693.8,127.4c0,0-136.8-59.6-134.2-184.3c0-1.4,0.1-2.9,0.2-4.3c0.2-5.4,0.7-10.8,1.5-16.4
				c14.3-102.2-25.9-164.2-91.9-163c-2.3,0-4.6,0.2-6.9,0.3c-70.2,5.7,430.5-55.3,430.5-55.3c74.2-5.9,141.5-21.4,196.6-30.3
				c61.1-9.9,107-11.5,130.2,17.3C1574.4,871.7,1489.7,1076.3,1698.4,1125.7z"/>
		</g>
		<path class="st1" d="M536,1247.9c-1.8-0.3-3.9-0.2-6.2,0.8c-19.1,8.1-23.7-4.7-30-3l-3.5-13.7c12,5.4,29.8,1,35.3-5.1
			C533.6,1235.8,535.2,1243.7,536,1247.9z"/>
		<path class="st1" d="M531.7,1227c-5.5,6.1-23.3,10.5-35.3,5.1c-5-2.2-9-6.1-10.7-12.3c-6.5-23.1-52.3-151.7-65.5-203.4l-0.2,0.1
			l-9.2-26.7v0L407,979l-24.7-71.9c15.4-1.5,31.5-4.4,46.5-8.4c33.5-8.9,61-23.1,59.7-38.3c-0.8-9.8-6-37-13-71l0,0l16,84.6
			l4.6,29.1l12.9,79.3c0,0,23.4,229.8,24.4,240.3C533.5,1224.3,532.9,1225.7,531.7,1227z"/>
		<path class="st1" d="M600.3,1281.6c0.4,11.7-101.7,4.5-104.8-2.4c-0.6-1.4-1.1-3.3-1.4-5.4c0.1,0.2,0.1,0.3,0.2,0.5
			c3,6.7,100.1,13.7,104.9,3.3C599.9,1278.9,600.3,1280.2,600.3,1281.6z"/>
		<path class="st1" d="M599.4,1276.7c0,0.3-0.1,0.6-0.2,0.9c-4.8,10.4-101.9,3.4-104.9-3.3c-0.1-0.2-0.1-0.3-0.2-0.5
			c-2.8-7.3-1-25.3,5.2-27.8c0.2-0.1,0.4-0.1,0.5-0.2c6.3-1.7,10.9,11.1,30,3c2.3-1,4.4-1.2,6.2-0.8c5,0.9,8.5,5.3,12.2,5.6
			C574.9,1256,599,1265,599.4,1276.7z"/>
		<path class="st1" d="M559.9,1254c-5.7-1.3-9.8,2.8-10.8,11.4"/>
		<path class="st1" d="M568.8,1256c-5.4-1.2-9.2,2.6-10.2,10.7"/>
		<path class="st1" d="M578.6,1258.7c-4.9-1.1-8.3,2.4-9.2,9.7"/>
		<g>
			<path class="st1" d="M318.1,1169.8l-37.5,7.7c0-0.1,0-0.1,0-0.2l33.9-7.1C315.8,1169.9,317,1169.8,318.1,1169.8z"/>
			<path class="st1" d="M428.8,898.7L407,979l-6.4,23.5c0,0-34.8,103.5-57.7,171.4c-3.5-3.9-8.2-6.2-13.1-6.2c-1,0-2,0.1-3.1,0.3
				c9.5-1.9,15.4-12.6,12.9-23.7c-2.1-10-10.1-17-18.6-17c-1,0-2,0.1-3.1,0.3l-8.4,1.7l-23.2,4.8c0-0.1,0-0.1,0-0.2l30.1-6.4
				l-17.8-82.4c2.6-18,5.1-34.1,7.2-46.4l-0.3,0l14.3-98.9c11.2,8.1,35.4,9.8,62.2,7.3C397.7,905.6,413.9,902.7,428.8,898.7z"/>
			<path class="st1" d="M378.4,1282.6c0.1,6.8-34.7,6.9-64.3,4.3l16.1-3.3c0.6-0.1,1.3-0.3,1.9-0.5c22.4,0.9,43,0,45.2-4.7
				C378,1279.9,378.4,1281.2,378.4,1282.6z"/>
			<path class="st1" d="M377.5,1277.7c0,0.3-0.1,0.6-0.2,0.9c-2.2,4.6-22.8,5.6-45.2,4.7c10.6-3.1,17.3-13.9,15-25l-0.1-0.7
				c2.3,0.6,4.5,1.2,6.7,1.9h0C367.6,1263.8,377.4,1270.3,377.5,1277.7z"/>
			<path class="st3" d="M347.1,1256.7c-0.1,0-0.2-0.1-0.3-0.1"/>
			<path class="st3" d="M356.9,1259.5c-4.9-1.2-8.3,2.3-9.3,9.6"/>
		</g>
		<path class="st1" d="M428.8,898.7c-15,4-31.2,6.9-46.5,8.4c-26.8,2.6-51,0.8-62.2-7.3c-1.2-0.9-2.3-1.8-3.1-2.8
			c-8.7-10-10.8-99-10.9-177.8c-0.1-65.6,1.2-124.1,1.2-124.1s0.8-1-0.5-0.9c9.6-3,19-8.2,28.9-9.8c0.5,0.6,1.1,1.2,1.9,1.7
			c2.8,1.8,27.2,19.4,30.6,18.2c1.3-0.5,3.3-2,5.2-3.8c0.3-0.2,0.5-0.5,0.8-0.8c1.9,0.1,3.9,0.1,5.9,0.1c8.1-0.3,13.8-2.5,17.7-5.6
			c0,0,0,0,0,0c3.4-0.2,7.9-1.1,9.8-1.8c1.8-0.6,2.2-8.2,2.4-15.7l29.5,46.5l0,0c10.5,46.8,25.5,114.5,36.1,166.3
			c7,34,12.2,61.2,13,71C489.8,875.7,462.3,889.9,428.8,898.7z"/>
		<path class="st4" d="M404.5,887.7c-0.3,1.8-0.7,3.6-1,5.5l2.6-0.9L404.5,887.7z"/>
		<path class="st1" d="M393.5,592.9c-0.9,1.3,1.3,1.5,4.3,1.3c-3.9,3.1-9.6,5.3-17.7,5.6c-2.1,0.1-4,0-5.9-0.1
			c2.7-2.8,4.8-5.9,3-6.3c-11.2-2.5-18.4-5.7-23-8.9c-6.3-4.3-7.6-8.4-7.9-9.9c0.2-2.4,0.3-4.3,0.4-4.5l-2.4-24.7
			c4.8,3.6,10.1,6,15.4,6c6.6,3.1,14.2,4.4,22.1,4.1c6.2-0.3,11.7-0.8,16.4-1.6l1.4,5.6c-0.1,0-0.1,0.1-0.2,0.1c0,0,0.3,0.5,0.6,1.4
			c0,0,0,0,0,0l0.8,3.1c0,0,0,0.1,0,0.1c0.5,2.4,0.7,5.8,0.2,9.8C400.2,579.5,398.2,585.8,393.5,592.9z"/>
		<path class="st1" d="M399.9,561.2c-0.3-0.9-0.6-1.4-0.6-1.4c0.1,0,0.1-0.1,0.2-0.1L399.9,561.2z"/>
		<path class="st1" d="M307.2,595.1c0,0-1.3,58.5-1.2,124.1c-11.9,11.3-25.6,23.2-31,28c-11.7,10.3-25,16.7-36.3,19.6l-13.7-63.4
			c17.1-47.7,49.6-105.4,81.7-109.2c0,0,0,0,0,0C308,594.1,307.2,595.1,307.2,595.1z"/>
		<path class="st1" d="M410.7,560.1c0,0.3-0.1,0.6-0.2,1c-0.5,1.5-0.4,8.6-0.6,15.6c-0.2,7.5-0.6,15.1-2.4,15.7
			c-1.8,0.6-6.3,1.5-9.8,1.8c0,0,0,0,0,0c-2.9,0.2-5.1-0.1-4.3-1.3c4.8-7.1,6.8-13.5,7.5-18.7c0.5-4,0.2-7.3-0.2-9.8
			c0,0,0-0.1,0-0.1c-0.3-1.3-0.6-2.4-0.8-3.1c0,0,0,0,0,0l-0.4-1.6C402.3,557.4,410.7,556.4,410.7,560.1z"/>
		<path class="st1" d="M399.9,561.2c-0.3-0.9-0.6-1.4-0.6-1.4c0.1,0,0.1-0.1,0.2-0.1L399.9,561.2z"/>
		<path class="st1" d="M373.4,600.5c1.4,3.5,2.9,7.2,4.3,11.4c21.5,93.8,29.1,184.2,39.3,276.3c-6.1,4.4-13,7-20.8,8.8
			c-7,0.9-13,1-20,0.1c-20.9-3.3-40.9-9.3-58.9-18.8"/>
		<path class="st1" d="M399.3,497.9c-0.1,0-0.1,0.1-0.2,0.1l-1.3-2.5C398.3,496.2,398.8,497.1,399.3,497.9z"/>
		<path class="st1" d="M399.3,497.9c-0.1,0-0.1,0.1-0.2,0.1l-1.3-2.5C398.3,496.2,398.8,497.1,399.3,497.9z"/>
		<path class="st1" d="M398,554.1c-4.7,0.8-10.3,1.3-16.4,1.6c-7.8,0.4-15.4-1-22.1-4.1c-5.2,0-10.6-2.4-15.4-6
			c-9.1-6.8-16.5-18.1-18.2-25.7c-1.3-5.6-1.6-11.4-1-16.8c0,0,0-0.1,0-0.1c0-0.4,0.1-0.9,0.2-1.3c0.2-1.3,0.4-2.5,0.6-3.8
			c0.1-0.4,0.2-0.8,0.3-1.2c1-3.8,2.4-7.3,4.3-10.5c0.1-0.1,0.1-0.2,0.2-0.3c9.6-16.2,29.3-23.8,44.1-22.4
			c7.2-4.4,19.3-4.8,24.2,0.8c15.7,17.8,4.1,32.1,4.1,32.1c-1.2,0.5-2.4,1-3.5,1.4c-0.5-0.8-1-1.7-1.5-2.4l1.3,2.5
			c0.1,0,0.1,0,0.2-0.1c6.7,11.3,12,26.2,15,42.6C415.6,548.2,409.2,552.1,398,554.1z"/>
		<path class="st1" d="M357,517.1c1.6,4.3,0.3,8.7-2.9,9.9s-7.1-1.3-8.7-5.6c-1.6-4.3-0.3-8.7,2.9-9.9
			C351.5,510.3,355.4,512.8,357,517.1z"/>
		<path class="st1" d="M346.6,680.8l13.4,4.4c1,0.7,2.2,0.4,2.9-0.6l9.1-11.4c0.4-0.6,0.5-1.5,0.4-2.3l-3.9-17.6
			c-0.3-1.5-1.6-2.6-2.9-2.3l-22.5,6.9c-1.2,0.3-2,1.7-1.6,3.3l3.9,17.7C345.5,679.6,346,680.3,346.6,680.8z"/>
		<path class="st1" d="M332.1,1283.2c-0.6,0.2-1.3,0.4-1.9,0.5l-16.1,3.3l-77.7,15.7c-11.7,2.4-23.1-5.2-25.5-16.9l-9.9-49.3
			l53.2-11.2l81.2-16.7c0.5-0.1,1.1-0.3,1.6-0.4l9.8,48.6c-1.3-0.3-1,0.7,0.2,1l0.1,0.7C349.4,1269.3,342.7,1280.1,332.1,1283.2z"/>
		<polygon class="st1" points="57.4,574.6 98.3,566 57.4,574.9 		"/>
		<polygon class="st3" points="316.7,1127.6 286.5,1133.9 277.2,1135.9 151.5,554.7 191.2,546.4 225.1,703.4 238.8,766.8 
			298.9,1045.1 		"/>
		<polygon class="st1" points="277.2,1135.9 223.8,1147.2 98.3,566 151.5,554.7 		"/>
		<polygon class="st1" points="224.3,1147.1 182.8,1155.9 57.4,574.6 98.6,566 		"/>
		<polygon class="st5" points="277.2,1136 223.8,1147.2 182.8,1155.9 223.8,1147.2 277.2,1135.9 		"/>
		<path class="st6" d="M241,1185.6l-30.3,6.4c0.6-0.2,1.3-0.4,1.9-0.5L241,1185.6z"/>
		<path class="st6" d="M309.7,1129.3l-78.2,16.1l74.6-15.7C307.3,1129.5,308.5,1129.4,309.7,1129.3z"/>
		<path class="st7" d="M318.1,1169.8l-37.5,7.7l-39.6,8.1l39.6-8.3l33.9-7.1C315.8,1169.9,317,1169.8,318.1,1169.8z"/>
		<path class="st1" d="M326.8,1168l-8.7,1.8c-1.2,0-2.4,0.1-3.5,0.4l-33.9,7.1l-39.6,8.3l-28.4,5.8c-0.7,0.1-1.3,0.3-1.9,0.5
			l-20.5,4.3c-10.4,2.2-20.8-5.1-23.1-16.2c-2.3-11.2,4.2-22,14.6-24.2l20.3-4.3l29.5-6.2l55-11.3l23.2-4.8l8.4-1.7
			c1-0.2,2.1-0.3,3.1-0.3c8.5,0,16.5,7,18.6,17C342.2,1155.4,336.3,1166.1,326.8,1168z"/>
		<path class="st8" d="M318.1,1169.8l-37.5,7.7l-39.6,8.1l39.6-8.3l33.9-7.1C315.8,1169.9,317,1169.8,318.1,1169.8z"/>
		<path class="st1" d="M337,1208c-0.5,0.2-1.1,0.3-1.6,0.4l-81.2,16.7l-53.2,11.2l-2.3,0.5c-10.4,2.2-20.8-5.1-23.2-16.2
			c-2.3-11.1,4.2-22,14.6-24.2l20.5-4.3l30.3-6.4l39.6-8.1l37.5-7.7l8.7-1.8c1-0.2,2-0.3,3.1-0.3c4.9,0,9.6,2.3,13.1,6.2
			c2.6,2.8,4.5,6.5,5.4,10.7C350.7,1195.2,345.7,1205.3,337,1208z"/>
		<path class="st9" d="M241,1185.6l-30.3,6.4c0.6-0.2,1.3-0.4,1.9-0.5L241,1185.6z"/>
		<polygon class="st3" points="95.4,423.7 191.2,546.4 57.3,574.6 		"/>
		<polygon class="st3" points="95.4,423.7 191.2,546.4 151.8,554.7 		"/>
		<polyline class="st3" points="97.6,564 95.4,423.7 151.1,552.8 		"/>
		<path class="st3" d="M101.7,710.8c0,0-12,1.5-19.2,4.8"/>
		<path class="st3" d="M103.3,717.9c0,0-13.4,0.7-21.1,3.2"/>
		<path class="st3" d="M101.5,726.8c0,0-10.6-1.8-19,0.7"/>
		<path class="st3" d="M98,734.3c0,0-6.1-0.7-12.6-0.3"/>
		<path class="st1" d="M374.1,599.8c-0.3,0.3-0.5,0.5-0.8,0.8c-1.9,1.8-3.9,3.3-5.2,3.8c-3.4,1.2-27.8-16.4-30.6-18.2
			c-0.8-0.5-1.4-1.1-1.9-1.7c-2.3-3.1-0.8-7.6,10.4-10.2c0,0,0,0.2,0.1,0.6c0.3,1.5,1.7,5.6,7.9,9.9c4.6,3.1,11.7,6.4,23,8.9
			C379,593.9,376.9,597,374.1,599.8z"/>
		<g>
			<path class="st1" d="M628.3,455c-9.1,19.7-27.4,53.4-45.3,79.2c-0.6,0.8-1.2,1.7-1.7,2.5c-8,11.2-15.8,20.7-22.7,26.6
				c-13.8,22.5-79.3,44.5-119.1,59.9l0,0l-29.5-46.5c0.2-7,0.1-14.1,0.6-15.6c0.1-0.4,0.2-0.7,0.2-1c24-13.1,71.8-21,111.4-30.5
				c8.5-9.3,33-28.7,55.8-48.3c0.6-0.5,1.2-1,1.8-1.5c14.4-12.5,28-24.9,36.1-34.7c1.4,6.5,11.8,10,11.8,10
				C627.8,455.1,628.1,455,628.3,455z"/>
			<path class="st1" d="M655.5,427.1c-6.4,11.9-16.2,26.9-27.2,27.9c-0.2,0-0.4,0-0.6,0.1c0,0-10.4-3.5-11.8-10
				c0-0.2-0.1-0.4-0.1-0.6c-2.1-7.7-0.2-26-0.2-26c-0.2-6.7,0.5-11.6,0.5-11.6c0.1-1.7,1.5-3,3.1-2.9c1.7,0.1,3,1.5,2.9,3.2
				c0,0,0,0.1,0,0.2c0,0.1,0,0.4,0,0.6c0,0.5,0,1.4,0,2.4c0,1.6,0.3,4.5,1.4,7.1c4.3-0.2,9.7-6.9,13.1-11.8c0.1-0.2,0.3-0.4,0.4-0.6
				c1.3-2.5,2.6-5.2,3.9-7.9c1.5-3.4,2.9-6.8,3.9-9.9c0.6-1.9,2.6-2.9,4.4-2.2c1.9,0.6,2.9,2.7,2.3,4.5c-1.1,3.5-2.6,7.1-4.2,10.7
				c-0.7,1.6-1.5,3.2-2.2,4.7C651.8,409.3,658.8,421,655.5,427.1z"/>
		</g>
		<polyline class="st3" points="697,283.2 725.5,306.5 752.6,258.4 		"/>
		<polygon class="st3" points="671.5,240.3 687.1,334 782.6,331.2 767.6,237.6 		"/>
		<line class="st3" x1="832.7" y1="242.3" x2="1059.5" y2="237.6"/>
		<line class="st3" x1="838" y1="275" x2="1247.5" y2="264.7"/>
		<line class="st3" x1="841.8" y1="302.9" x2="1247.8" y2="290.9"/>
		<line class="st3" x1="846" y1="330.9" x2="977.6" y2="327"/>
		<g>
			<polyline class="st3" points="720.6,498.7 749.1,522 776.2,473.9 			"/>
			<polygon class="st3" points="695.1,455.8 710.7,549.5 806.2,546.7 791.2,453.1 			"/>
			<line class="st3" x1="856.3" y1="457.8" x2="1083" y2="453.1"/>
			<line class="st3" x1="861.6" y1="490.5" x2="1271.1" y2="480.2"/>
			<line class="st3" x1="865.4" y1="518.4" x2="1271.4" y2="506.4"/>
			<line class="st3" x1="869.6" y1="546.4" x2="1001.2" y2="542.5"/>
		</g>
		<g>
			<polyline class="st3" points="734.6,714.3 763.6,737 789.7,688.4 			"/>
			<polygon class="st3" points="708.2,672 725.8,765.3 821.2,760.4 804.3,667.2 			"/>
			<line class="st3" x1="869.4" y1="670.6" x2="1096" y2="661.2"/>
			<line class="st3" x1="875.4" y1="703.2" x2="1284.6" y2="684.3"/>
			<line class="st3" x1="879.8" y1="731" x2="1285.5" y2="710.5"/>
			<line class="st3" x1="884.6" y1="758.8" x2="1016.1" y2="752.2"/>
		</g>
		<g>
			<polyline class="st3" points="966.7,1018.5 998,1037.9 1018.5,986.6 			"/>
			<polygon class="st3" points="935.8,979.4 963.6,1070.2 1057.9,1054.7 1030.7,964 			"/>
			<line class="st3" x1="1095.8" y1="960.1" x2="1319.9" y2="925.4"/>
			<line class="st3" x1="1105.4" y1="991.8" x2="1509.9" y2="927.3"/>
			<line class="st3" x1="1112.8" y1="1018.9" x2="1513.7" y2="953.2"/>
			<line class="st3" x1="1120.7" y1="1046.1" x2="1250.7" y2="1024.8"/>
		</g>
	</g>
</g>
</svg>
