<svg xmlns="http://www.w3.org/2000/svg" xmlns:xlink="http://www.w3.org/1999/xlink" width="606" height="171" viewBox="0 0 606 171">
  <defs>
    <filter id="Ellipse_3400" x="457" y="53" width="31" height="31" filterUnits="userSpaceOnUse">
      <feOffset input="SourceAlpha"/>
      <feGaussianBlur stdDeviation="3" result="blur"/>
      <feFlood flood-opacity="0.302"/>
      <feComposite operator="in" in2="blur"/>
      <feComposite in="SourceGraphic"/>
    </filter>
    <filter id="Ellipse_3273" x="2" y="81" width="46" height="46" filterUnits="userSpaceOnUse">
      <feOffset input="SourceAlpha"/>
      <feGaussianBlur stdDeviation="3" result="blur-2"/>
      <feFlood flood-opacity="0.302"/>
      <feComposite operator="in" in2="blur-2"/>
      <feComposite in="SourceGraphic"/>
    </filter>
    <filter id="Ellipse_3401" x="460" y="34" width="36" height="36" filterUnits="userSpaceOnUse">
      <feOffset input="SourceAlpha"/>
      <feGaussianBlur stdDeviation="3" result="blur-3"/>
      <feFlood flood-opacity="0.302"/>
      <feComposite operator="in" in2="blur-3"/>
      <feComposite in="SourceGraphic"/>
    </filter>
  </defs>
  <g id="Group_187521" data-name="Group 187521" transform="translate(-256 -1896)">
    <g transform="matrix(1, 0, 0, 1, 256, 1896)" filter="url(#Ellipse_3400)">
      <ellipse id="Ellipse_3400-2" data-name="Ellipse 3400" cx="6.5" cy="6.5" rx="6.5" ry="6.5" transform="translate(466 62)" fill="#fff" opacity="0.406"/>
    </g>
    <text id="Label:_16px" data-name="Label: 16px" transform="translate(513 2063)" fill="#489ef9" font-size="16" font-family="HCLTech Roobert" font-weight="600"><tspan x="0" y="0">Label: 16px</tspan></text>
    <g id="Group_187462" data-name="Group 187462">
      <rect id="Rectangle_28955" data-name="Rectangle 28955" width="480" height="70" rx="5" transform="translate(273 1936)" fill="#e2d9fb"/>
      <text id="Heading_Title" data-name="Heading Title" transform="translate(319 1948)" fill="#341688" font-size="16" font-family="HCLTechRoobert-SemiBold, HCLTech Roobert" font-weight="600"><tspan x="0" y="16">Heading Title</tspan></text>
      <text id="Example_description" data-name="Example description" transform="translate(319 1976)" fill="#4e4b66" font-size="14" font-family="HCLTechRoobert-Regular, HCLTech Roobert"><tspan x="0" y="14">Example description</tspan></text>
      <g id="Rectangle_28956" data-name="Rectangle 28956" transform="translate(289 1948)" fill="none" stroke="#341688" stroke-width="1">
        <rect width="18" height="18" rx="2" stroke="none"/>
        <rect x="0.5" y="0.5" width="17" height="17" rx="1.5" fill="none"/>
      </g>
      <rect id="Rectangle_19634" data-name="Rectangle 19634" width="10" height="508" transform="translate(774 1936) rotate(90)" fill="#0157dc" opacity="0.07" style="mix-blend-mode: multiply;isolation: isolate"/>
      <rect id="Rectangle_19635" data-name="Rectangle 19635" width="10" height="508" transform="translate(774 1996) rotate(90)" fill="#0157dc" opacity="0.07" style="mix-blend-mode: multiply;isolation: isolate"/>
      <rect id="Rectangle_19632" data-name="Rectangle 19632" width="16" height="93" transform="translate(273 1924)" fill="#0157dc" opacity="0.07" style="mix-blend-mode: multiply;isolation: isolate"/>
      <rect id="Rectangle_19638" data-name="Rectangle 19638" width="12" height="59" transform="translate(307 1924)" fill="#0157dc" opacity="0.07" style="mix-blend-mode: multiply;isolation: isolate"/>
      <text id="Label:_14px" data-name="Label: 14px" transform="translate(450 2030)" fill="#489ef9" font-size="16" font-family="HCLTech Roobert" font-weight="600"><tspan x="0" y="0">Label: 14px</tspan></text>
      <g id="Group_37566" data-name="Group 37566" transform="translate(432 1956)">
        <path id="Path_27007" data-name="Path 27007" d="M-9733.331,20600.051l-.38-89.016H-9890" transform="translate(9891.204 -20509)" fill="none" stroke="#2653ae" stroke-linejoin="round" stroke-width="1"/>
        <path id="Path_27008" data-name="Path 27008" d="M0,4V0" transform="translate(159.876 91.055) rotate(90)" fill="none" stroke="#2653ae" stroke-width="0.5"/>
        <circle id="Ellipse_3166" data-name="Ellipse 3166" cx="2" cy="2" r="2" fill="#2653ae"/>
      </g>
      <g id="Group_186899" data-name="Group 186899" transform="translate(463 1983)">
        <path id="Path_27007-2" data-name="Path 27007" d="M-9836.207,20540l-.131-28.961H-9890" transform="translate(9891.204 -20509)" fill="none" stroke="#2653ae" stroke-linejoin="round" stroke-width="1"/>
        <path id="Path_27008-2" data-name="Path 27008" d="M0,4V0" transform="translate(57 31) rotate(90)" fill="none" stroke="#2653ae" stroke-width="0.5"/>
        <circle id="Ellipse_3166-2" data-name="Ellipse 3166" cx="2" cy="2" r="2" fill="#2653ae"/>
      </g>
      <g id="Group_37568" data-name="Group 37568" transform="translate(359.283 1923.936) rotate(90)">
        <path id="Path_27007-3" data-name="Path 27007" d="M0,0,.041,62.246H16.859" transform="translate(2.064 0.002)" fill="none" stroke="#2653ae" stroke-linejoin="round" stroke-width="1"/>
        <path id="Path_27008-3" data-name="Path 27008" d="M0,0V4" transform="translate(0.064) rotate(-90)" fill="none" stroke="#2653ae" stroke-width="0.5"/>
        <circle id="Ellipse_3166-3" data-name="Ellipse 3166" cx="2" cy="2" r="2" transform="translate(16.064 60.283)" fill="#2653ae"/>
      </g>
      <text id="Size:_18px_18px" data-name="Size: 18px*18px" transform="translate(359 1923)" fill="#489ef9" font-size="16" font-family="HCLTech Roobert" font-weight="600"><tspan x="0" y="0">Size: 18px*18px</tspan></text>
      <g transform="matrix(1, 0, 0, 1, 256, 1896)" filter="url(#Ellipse_3273)">
        <ellipse id="Ellipse_3273-2" data-name="Ellipse 3273" cx="14" cy="14" rx="14" ry="14" transform="translate(11 90)" fill="#fff" opacity="0.406"/>
      </g>
      <path id="Path_36611" data-name="Path 36611" d="M-9715,20454.064h472.5" transform="translate(-8969 22385.064) rotate(180)" fill="none" stroke="#3c91ff" stroke-width="1"/>
      <text id="_16px" data-name="16px" transform="translate(273 1916)" fill="#489ef9" font-size="16" font-family="HCLTech Roobert" font-weight="600"><tspan x="-16" y="0">16px</tspan></text>
      <text id="_12px" data-name="12px" transform="translate(317 1916)" fill="#489ef9" font-size="16" font-family="HCLTech Roobert" font-weight="600"><tspan x="-16" y="0">12px</tspan></text>
      <path id="Path_36610" data-name="Path 36610" d="M-9715,20454.064h16" transform="translate(9988 -18532.063)" fill="none" stroke="#3c91ff" stroke-width="1"/>
      <path id="Path_36615" data-name="Path 36615" d="M-9715,20454.064h16" transform="translate(10023 -18532.063)" fill="none" stroke="#3c91ff" stroke-width="1"/>
      <text id="Border_radius:_5px" data-name="Border radius: 5px" transform="translate(358 2030)" fill="#489ef9" font-size="16" font-family="HCLTech Roobert" font-weight="600"><tspan x="-65" y="0">Border radius: 5px</tspan></text>
      <text id="Border_radius:_3px" data-name="Border radius: 3px" transform="translate(804 1954)" fill="#489ef9" font-size="14" font-family="HCLTech Roobert" font-weight="600"><tspan x="-57" y="0">Border radius: 3px</tspan></text>
      <g id="Group_187461" data-name="Group 187461" transform="translate(-357)">
        <g id="Button_List_form_" data-name="Button (List,form)" transform="translate(1027 1948)">
          <g id="Group_39698" data-name="Group 39698" transform="translate(3.5 1.5)">
            <g id="Color" transform="translate(-3.5 -1.5)" fill="#fff" stroke="#5f1ebe" stroke-width="1">
              <rect width="66" height="23" rx="3" stroke="none"/>
              <rect x="0.5" y="0.5" width="65" height="22" rx="2.5" fill="none"/>
            </g>
            <text id="Label" transform="translate(29.5 14.5)" fill="#5f1ebe" font-size="12" font-family="HCLTechRoobert-SemiBold, HCLTech Roobert" font-weight="600"><tspan x="-21" y="0">Primary</tspan></text>
          </g>
        </g>
        <rect id="Rectangle_19637" data-name="Rectangle 19637" width="16" height="93" transform="translate(1093.5 1924)" fill="#0157dc" opacity="0.07" style="mix-blend-mode: multiply;isolation: isolate"/>
        <g id="Group_37567" data-name="Group 37567" transform="translate(1086 1958)">
          <path id="Path_27007-4" data-name="Path 27007" d="M-9860.2,20583.078l-.072-72.047H-9890" transform="translate(9891.204 -20508.996)" fill="none" stroke="#2653ae" stroke-linejoin="round" stroke-width="1"/>
          <path id="Path_27008-4" data-name="Path 27008" d="M0,4V0" transform="translate(33 74.082) rotate(90)" fill="none" stroke="#2653ae" stroke-width="0.5"/>
          <circle id="Ellipse_3166-4" data-name="Ellipse 3166" cx="2" cy="2" r="2" fill="#2653ae"/>
        </g>
        <text id="_16px-2" data-name="16px" transform="translate(1102 1912)" fill="#489ef9" font-size="16" font-family="HCLTech Roobert" font-weight="600"><tspan x="-16" y="0">16px</tspan></text>
        <path id="Path_36614" data-name="Path 36614" d="M-9715,20454.064h16" transform="translate(10808.5 -18534.063)" fill="none" stroke="#3c91ff" stroke-width="1"/>
        <rect id="Rectangle_29007" data-name="Rectangle 29007" width="12" height="59" transform="translate(1027 1932)" fill="#0157dc" opacity="0.07" style="mix-blend-mode: multiply;isolation: isolate"/>
        <rect id="Rectangle_29010" data-name="Rectangle 29010" width="12" height="59" transform="translate(1081 1932)" fill="#0157dc" opacity="0.07" style="mix-blend-mode: multiply;isolation: isolate"/>
        <rect id="Rectangle_29008" data-name="Rectangle 29008" width="4" height="80" transform="translate(1019 1953) rotate(-90)" fill="#0157dc" opacity="0.07" style="mix-blend-mode: multiply;isolation: isolate"/>
        <rect id="Rectangle_29009" data-name="Rectangle 29009" width="4" height="80" transform="translate(1019 1971) rotate(-90)" fill="#0157dc" opacity="0.07" style="mix-blend-mode: multiply;isolation: isolate"/>
        <text id="_12px-2" data-name="12px" transform="translate(1033 1921)" fill="#489ef9" font-size="16" font-family="HCLTech Roobert" font-weight="600"><tspan x="-16" y="0">12px</tspan></text>
        <text id="_12px-3" data-name="12px" transform="translate(1087 2012)" fill="#489ef9" font-size="16" font-family="HCLTech Roobert" font-weight="600"><tspan x="-16" y="0">12px</tspan></text>
        <text id="_4px" data-name="4px" transform="translate(997 1954)" fill="#489ef9" font-size="14" font-family="HCLTech Roobert" font-weight="600"><tspan x="-11" y="0">4px</tspan></text>
        <text id="_4px-2" data-name="4px" transform="translate(997 1973)" fill="#489ef9" font-size="14" font-family="HCLTech Roobert" font-weight="600"><tspan x="-11" y="0">4px</tspan></text>
        <path id="Path_139324" data-name="Path 139324" d="M-9715,20454.064h16" transform="translate(10740.5 -18525.063)" fill="none" stroke="#3c91ff" stroke-width="1"/>
        <path id="Path_139327" data-name="Path 139327" d="M-9715,20454.064h16" transform="translate(10794.5 -18461.063)" fill="none" stroke="#3c91ff" stroke-width="1"/>
        <path id="Path_139325" data-name="Path 139325" d="M-9715,20454.064h4.684" transform="translate(-19436.564 -7761.596) rotate(-90)" fill="none" stroke="#3c91ff" stroke-width="1"/>
        <path id="Path_139326" data-name="Path 139326" d="M-9715,20454.064h4.684" transform="translate(-19436.564 -7743.5) rotate(-90)" fill="none" stroke="#3c91ff" stroke-width="1"/>
        <text id="Label:_12px_Semibold_" data-name="Label: 12px(Semibold)" transform="translate(1122 2053)" fill="#489ef9" font-size="16" font-family="HCLTech Roobert" font-weight="600"><tspan x="-159" y="0">Label: 12px(Semibold)</tspan></text>
        <g transform="matrix(1, 0, 0, 1, 613, 1896)" filter="url(#Ellipse_3401)">
          <ellipse id="Ellipse_3401-2" data-name="Ellipse 3401" cx="9" cy="9" rx="9" ry="9" transform="translate(469 43)" fill="#fff" opacity="0.406"/>
        </g>
      </g>
      <path id="Path_139353" data-name="Path 139353" d="M289.979,1949.031l15.992,15.992" fill="none" stroke="#341687" stroke-width="1"/>
      <path id="Path_139354" data-name="Path 139354" d="M289.979,1965.023l15.992-15.992" fill="none" stroke="#341687" stroke-width="1"/>
    </g>
  </g>
</svg>
