<svg xmlns="http://www.w3.org/2000/svg" xmlns:xlink="http://www.w3.org/1999/xlink" width="418" height="229" viewBox="0 0 418 229">
  <defs>
    <filter id="Rectangle_13742" x="0" y="0" width="418" height="229" filterUnits="userSpaceOnUse">
      <feOffset dy="3" input="SourceAlpha"/>
      <feGaussianBlur stdDeviation="3" result="blur"/>
      <feFlood flood-opacity="0.161"/>
      <feComposite operator="in" in2="blur"/>
      <feComposite in="SourceGraphic"/>
    </filter>
  </defs>
  <g id="Small-Modal-center" transform="translate(-474 -1259)">
    <g transform="matrix(1, 0, 0, 1, 474, 1259)" filter="url(#Rectangle_13742)">
      <rect id="Rectangle_13742-2" data-name="Rectangle 13742" width="400" height="211" rx="5" transform="translate(9 6)" fill="#fff"/>
    </g>
    <g id="Small_Button" data-name="Small Button" transform="translate(694 1418)">
      <rect id="base" width="131" height="34" rx="4" fill="#5f1ebe"/>
      <text id="Small_Button-2" data-name="Small Button" transform="translate(24 22)" fill="#fff" font-size="14" font-family="HCLTech Roobert" font-weight="600"><tspan x="0" y="0">Small Button</tspan></text>
    </g>
    <g id="Small_Button-3" data-name="Small Button" transform="translate(558 1418)">
      <g id="Primary" fill="none" stroke="#4c189e" stroke-width="1">
        <rect width="120" height="34" rx="4" stroke="none"/>
        <rect x="0.5" y="0.5" width="119" height="33" rx="3.5" fill="none"/>
      </g>
      <text id="Small_Outline" data-name="Small Outline" transform="translate(16 22)" fill="#4c189e" font-size="14" font-family="HCLTech Roobert" font-weight="600"><tspan x="0" y="0">Small Outline</tspan></text>
    </g>
    <text id="Lorem_ipsum_dolor_sit_amet_consetetur_sadipscing_elitr_sed_diam_nonumy_eirmod_tempor_invidunt_ut_labore_et_dolore_magna_" data-name="Lorem ipsum dolor sit amet, consetetur sadipscing elitr, 
sed diam nonumy eirmod tempor invidunt ut labore et 
dolore magna " transform="translate(683 1342)" font-size="14" font-family="HCLTech Roobert"><tspan x="-177" y="0">Lorem ipsum dolor sit amet, consetetur sadipscing elitr, </tspan><tspan x="-173" y="20">sed diam nonumy eirmod tempor invidunt ut labore et </tspan><tspan x="-46" y="40">dolore magna </tspan></text>
    <g id="Group_39339" data-name="Group 39339" transform="translate(-284.871 756.135)">
      <path id="Path_16881" data-name="Path 16881" d="M9.571,8.878l5.041-5.041a.49.49,0,1,0-.693-.694L8.878,8.185,3.836,3.143a.49.49,0,0,0-.693.694L8.185,8.878,3.143,13.92a.49.49,0,0,0,.693.694L8.878,9.571l5.041,5.042a.49.49,0,1,0,.693-.694Z" transform="translate(1128.869 529.988)"/>
      <path id="Path_16881_-_Outline" data-name="Path 16881 - Outline" d="M14.264,14.876a.612.612,0,0,1-.433-.178L8.876,9.741,3.92,14.7a.613.613,0,0,1-.865,0,.616.616,0,0,1,0-.867L8.01,8.876,3.054,3.921a.613.613,0,0,1,.433-1.046.608.608,0,0,1,.433.179L8.876,8.01,13.83,3.054a.613.613,0,1,1,.866.867L9.741,8.876,14.7,13.83a.614.614,0,0,1,0,.867A.607.607,0,0,1,14.264,14.876ZM8.876,9.395,14,14.524a.368.368,0,0,0,.26.107.364.364,0,0,0,.259-.107.368.368,0,0,0,0-.52L9.395,8.876l5.128-5.128a.368.368,0,0,0,0-.52.368.368,0,0,0-.52,0L8.876,8.356,3.747,3.227a.368.368,0,0,0-.52,0,.37.37,0,0,0,0,.52L8.356,8.876,3.227,14a.367.367,0,0,0,.26.628.364.364,0,0,0,.259-.107Z" transform="translate(1128.872 529.99)"/>
    </g>
    <text id="Modal_Small_Width_400px_" data-name="Modal Small (Width 400px)" transform="translate(507 1289)" fill="#2874f0" font-size="18" font-family="HCLTechRoobert-Bold, HCLTech Roobert" font-weight="700"><tspan x="0" y="18">Modal Small (Width 400px)</tspan></text>
  </g>
</svg>
