<svg xmlns="http://www.w3.org/2000/svg" width="643" height="173.006" viewBox="0 0 643 173.006">
  <g id="Group_187541" data-name="Group 187541" transform="translate(-269 -3045.512)">
    <g id="Group_187479" data-name="Group 187479" transform="translate(33 -3239)">
      <g id="List_Group-Horizontal-Left" data-name="List Group-Horizontal-Left" transform="translate(265 6316)">
        <g id="Group_166954" data-name="Group 166954" transform="translate(-4.5 -3.5)">
          <path id="State" d="M5,0H182a0,0,0,0,1,0,0V44a0,0,0,0,1,0,0H5a5,5,0,0,1-5-5V5A5,5,0,0,1,5,0Z" transform="translate(4.5 3.5)" fill="#fff" stroke="#b9c3d0" stroke-width="1"/>
          <text id="Label" transform="translate(20.5 15.5)" font-size="16" font-family="HCLTechRoobert-Medium, HCLTech Roobert" font-weight="500"><tspan x="0" y="16">List Item</tspan></text>
        </g>
      </g>
      <g id="List_Group-Horizontal-MiIdle" data-name="List Group-Horizontal-MiIdle" transform="translate(449 6316)">
        <g id="Group_166955" data-name="Group 166955" transform="translate(-4.5 -3.5)">
          <rect id="State-2" data-name="State" width="182" height="44" transform="translate(4.5 3.5)" fill="#fff" stroke="#b9c3d0" stroke-width="1"/>
          <text id="Label-2" data-name="Label" transform="translate(20.5 15.5)" font-size="16" font-family="HCLTechRoobert-Medium, HCLTech Roobert" font-weight="500"><tspan x="0" y="16">List Item</tspan></text>
        </g>
      </g>
      <g id="List_Group-Horizontal-Right" data-name="List Group-Horizontal-Right" transform="translate(633 6316)">
        <path id="State-3" data-name="State" d="M0,0H177a5,5,0,0,1,5,5V39a5,5,0,0,1-5,5H0a0,0,0,0,1,0,0V0A0,0,0,0,1,0,0Z" fill="#fff" stroke="#b9c3d0" stroke-width="1"/>
        <text id="Label-3" data-name="Label" transform="translate(16 12)" font-size="16" font-family="HCLTechRoobert-Medium, HCLTech Roobert" font-weight="500"><tspan x="0" y="16">List Item</tspan></text>
      </g>
    </g>
    <rect id="Rectangle_149930" data-name="Rectangle 149930" width="16" height="69" transform="translate(298 3068.5)" fill="#0157dc" opacity="0.07" style="mix-blend-mode: multiply;isolation: isolate"/>
    <rect id="Rectangle_149931" data-name="Rectangle 149931" width="12" height="598.732" transform="translate(867.732 3078.759) rotate(90)" fill="#0157dc" opacity="0.07" style="mix-blend-mode: multiply;isolation: isolate"/>
    <rect id="Rectangle_149932" data-name="Rectangle 149932" width="12" height="598.732" transform="translate(867.732 3110.741) rotate(90)" fill="#0157dc" opacity="0.07" style="mix-blend-mode: multiply;isolation: isolate"/>
    <text id="_12px" data-name="12px" transform="translate(897 3089.5)" fill="#489ef9" font-size="14" font-family="HCLTech Roobert" font-weight="600"><tspan x="-14" y="0">12px</tspan></text>
    <text id="_12px-2" data-name="12px" transform="translate(897 3121.741)" fill="#489ef9" font-size="14" font-family="HCLTech Roobert" font-weight="600"><tspan x="-14" y="0">12px</tspan></text>
    <path id="Path_139383" data-name="Path 139383" d="M-9715,20454.064h11.482" transform="translate(21325.563 12793.759) rotate(90)" fill="none" stroke="#3c91ff" stroke-width="1"/>
    <path id="Path_139384" data-name="Path 139384" d="M-9715,20454.064h11.482" transform="translate(21325.563 12825.741) rotate(90)" fill="none" stroke="#3c91ff" stroke-width="1"/>
    <text id="_16px" data-name="16px" transform="translate(308 3059.512)" fill="#489ef9" font-size="14" font-family="HCLTech Roobert" font-weight="600"><tspan x="-14" y="0">16px</tspan></text>
    <path id="Path_139385" data-name="Path 139385" d="M-9715,20454.064h16" transform="translate(10013 -17388.059)" fill="none" stroke="#3c91ff" stroke-width="1"/>
    <text id="Label:_16px" data-name="Label:  16px" transform="translate(390 3173)" fill="#489ef9" font-size="14" font-family="HCLTech Roobert" font-weight="600"><tspan x="0" y="0" xml:space="preserve">Label:  16px</tspan></text>
    <text id="Color:_000000_Black000_" data-name="Color:  #000000
(Black000)" transform="translate(390 3194.518)" fill="#489ef9" font-size="14" font-family="HCLTechRoobert-SemiBold, HCLTech Roobert" font-weight="600"><tspan x="0" y="0" xml:space="preserve">Color:  #000000</tspan><tspan font-family="HCLTech Roobert" font-weight="400"><tspan x="0" y="20">(Black000)</tspan></tspan></text>
    <g id="Group_187540" data-name="Group 187540" transform="translate(381.5 3097.518)">
      <path id="Path_27007" data-name="Path 27007" d="M-9876.205,20567l-.033-55.965H-9890" transform="translate(9891.205 -20509)" fill="none" stroke="#2653ae" stroke-linejoin="round" stroke-width="1"/>
      <path id="Path_27008" data-name="Path 27008" d="M0,4V0" transform="translate(17 58) rotate(90)" fill="none" stroke="#2653ae" stroke-width="0.5"/>
      <circle id="Ellipse_3166" data-name="Ellipse 3166" cx="2" cy="2" r="2" fill="#2653ae"/>
    </g>
  </g>
</svg>
