<svg xmlns="http://www.w3.org/2000/svg" width="789" height="316" viewBox="0 0 789 316">
  <g id="Group_37782" data-name="Group 37782" transform="translate(-14279 -14657)">
    <rect id="Rectangle_19818" data-name="Rectangle 19818" width="712" height="180" rx="2" transform="translate(14293 14740)" fill="#fff"/>
    <g id="Group_37780" data-name="Group 37780" transform="translate(14448 14734) rotate(-90)">
      <path id="Path_27007" data-name="Path 27007" d="M-9876.205,20567l-.033-55.965" transform="translate(9891.205 -20509)" fill="none" stroke="#2653ae" stroke-linejoin="round" stroke-width="1"/>
      <path id="Path_27008" data-name="Path 27008" d="M0,4V0" transform="translate(17 58) rotate(90)" fill="none" stroke="#2653ae" stroke-width="0.5"/>
      <circle id="Ellipse_3189" data-name="Ellipse 3189" cx="2" cy="2" r="2" transform="translate(13)" fill="#2653ae"/>
    </g>
    <text id="Label:_16px" data-name="Label: 16px" transform="translate(14510 14728)" fill="#489ef9" font-size="16" font-family="HCLTech Roobert" font-weight="600"><tspan x="0" y="0">Label: 16px</tspan></text>
    <text id="Icon:_18px_18px" data-name="Icon: 18px * 18px" transform="translate(14754 14673)" fill="#489ef9" font-size="16" font-family="HCLTech Roobert" font-weight="600"><tspan x="0" y="0">Icon: 18px * 18px</tspan></text>
    <text id="Color:_A0A3BD" data-name="Color:  #A0A3BD" transform="translate(14510 14756)" fill="#489ef9" font-size="16" font-family="HCLTech Roobert" font-weight="600"><tspan x="0" y="0" xml:space="preserve">Color:  #A0A3BD</tspan></text>
    <text id="_16px" data-name="16px" transform="translate(15051 14738)" fill="#489ef9" font-size="16" font-family="HCLTech Roobert" font-weight="600"><tspan x="-16" y="0">16px</tspan></text>
    <text id="_12px" data-name="12px" transform="translate(15051 14704)" fill="#489ef9" font-size="16" font-family="HCLTech Roobert" font-weight="600"><tspan x="-16" y="0">12px</tspan></text>
    <path id="Path_36742" data-name="Path 36742" d="M-9715,20454.064h16" transform="translate(35483.063 24439) rotate(90)" fill="none" stroke="#3c91ff" stroke-width="1"/>
    <path id="Path_36743" data-name="Path 36743" d="M-9715,20454.064h12" transform="translate(35483.063 24407) rotate(90)" fill="none" stroke="#3c91ff" stroke-width="1"/>
    <text id="Tab_2" data-name="Tab 2" transform="translate(14401 14721.6)" fill="#a0a3bd" font-size="16" font-family="HCLTech Roobert" letter-spacing="0.02em"><tspan x="0" y="0">Tab 2</tspan></text>
    <g id="Group_37778" data-name="Group 37778" transform="translate(14934 14704.002)">
      <path id="Path_10019" data-name="Path 10019" d="M19.84,19.08l-4.375-4.374a7.681,7.681,0,1,0-.758.758l4.374,4.374a.547.547,0,0,0,.38.16.527.527,0,0,0,.379-.16A.54.54,0,0,0,19.84,19.08ZM3.074,9.673a6.6,6.6,0,1,1,6.6,6.6A6.6,6.6,0,0,1,3.074,9.673Z" transform="translate(0 0)" fill="#a0a3bd"/>
    </g>
    <g id="Component_207_2" data-name="Component 207 – 2" transform="translate(14293 14692)">
      <path id="Rectangle_19044" data-name="Rectangle 19044" d="M2,0H82a2,2,0,0,1,2,2V48a0,0,0,0,1,0,0H0a0,0,0,0,1,0,0V2A2,2,0,0,1,2,0Z" fill="#fff"/>
      <text id="Tab_1" data-name="Tab 1" transform="translate(24 28)" fill="#222" font-size="16" font-family="HCLTech Roobert" font-weight="600" letter-spacing="0.02em"><tspan x="0" y="0">Tab 1</tspan></text>
    </g>
    <path id="layer1" d="M2,1.5H20a.5.5,0,0,1,.391.811l-7.519,9.463V17.6a.5.5,0,0,1-.149.357l-2.441,2.4A.5.5,0,0,1,9.432,20V11.78L1.615,2.318A.5.5,0,0,1,2,1.5Zm16.964,1H3.062l7.256,8.782a.5.5,0,0,1,.115.318v7.207l1.441-1.417V11.6a.5.5,0,0,1,.109-.311Z" transform="translate(14968.5 14704.5)" fill="#a0a3bd"/>
    <rect id="Rectangle_19825" data-name="Rectangle 19825" width="24" height="59" transform="translate(14293 14687)" fill="#0157dc" opacity="0.07" style="mix-blend-mode: multiply;isolation: isolate"/>
    <rect id="Rectangle_19824" data-name="Rectangle 19824" width="24" height="59" transform="translate(14353 14687)" fill="#0157dc" opacity="0.07" style="mix-blend-mode: multiply;isolation: isolate"/>
    <rect id="Rectangle_19823" data-name="Rectangle 19823" width="24" height="59" transform="translate(14377 14687)" fill="#0157dc" opacity="0.07" style="mix-blend-mode: multiply;isolation: isolate"/>
    <rect id="Rectangle_19819" data-name="Rectangle 19819" width="16" height="59" transform="translate(14989 14687)" fill="#0157dc" opacity="0.07" style="mix-blend-mode: multiply;isolation: isolate"/>
    <rect id="Rectangle_19820" data-name="Rectangle 19820" width="16" height="59" transform="translate(14954 14687)" fill="#0157dc" opacity="0.07" style="mix-blend-mode: multiply;isolation: isolate"/>
    <text id="_8px" data-name="8px" transform="translate(14305 14679)" fill="#489ef9" font-size="16" font-family="HCLTech Roobert" font-weight="600"><tspan x="-13" y="0">8px</tspan></text>
    <text id="_8px-2" data-name="8px" transform="translate(14365 14679)" fill="#489ef9" font-size="16" font-family="HCLTech Roobert" font-weight="600"><tspan x="-13" y="0">8px</tspan></text>
    <text id="_8px-3" data-name="8px" transform="translate(14389 14768)" fill="#489ef9" font-size="16" font-family="HCLTech Roobert" font-weight="600"><tspan x="-13" y="0">8px</tspan></text>
    <text id="_16px-2" data-name="16px" transform="translate(14993 14768)" fill="#489ef9" font-size="16" font-family="HCLTech Roobert" font-weight="600"><tspan x="-16" y="0">16px</tspan></text>
    <text id="_16px-3" data-name="16px" transform="translate(14958 14677)" fill="#489ef9" font-size="16" font-family="HCLTech Roobert" font-weight="600"><tspan x="-16" y="0">16px</tspan></text>
    <path id="Path_36747" data-name="Path 36747" d="M-9715,20454.064h24" transform="translate(24008 -5769.064)" fill="none" stroke="#3c91ff" stroke-width="1"/>
    <path id="Path_36746" data-name="Path 36746" d="M-9715,20454.064h24" transform="translate(24068 -5769.064)" fill="none" stroke="#3c91ff" stroke-width="1"/>
    <path id="Path_36745" data-name="Path 36745" d="M-9715,20454.064h24" transform="translate(24092 -5704.064)" fill="none" stroke="#3c91ff" stroke-width="1"/>
    <path id="Path_36741" data-name="Path 36741" d="M-9715,20454.064h16" transform="translate(24704 -5704.064)" fill="none" stroke="#3c91ff" stroke-width="1"/>
    <path id="Path_36744" data-name="Path 36744" d="M-9715,20454.064h16" transform="translate(24669 -5771.064)" fill="none" stroke="#3c91ff" stroke-width="1"/>
    <rect id="Rectangle_19822" data-name="Rectangle 19822" width="12" height="749" transform="translate(15028 14692) rotate(90)" fill="#0157dc" opacity="0.07" style="mix-blend-mode: multiply;isolation: isolate"/>
    <rect id="Rectangle_19821" data-name="Rectangle 19821" width="16" height="749" transform="translate(15028 14724) rotate(90)" fill="#0157dc" opacity="0.07" style="mix-blend-mode: multiply;isolation: isolate"/>
    <text id="Label:_16px-2" data-name="Label: 16px" transform="translate(14319 14945)" fill="#489ef9" font-size="16" font-family="HCLTech Roobert" font-weight="600"><tspan x="0" y="0">Label: 16px</tspan></text>
    <g id="Group_37781" data-name="Group 37781" transform="translate(14092.292 13109)">
      <path id="Path_27007-2" data-name="Path 27007" d="M-9890,20721.01v-209.973h.383" transform="translate(10120 -18898.262)" fill="none" stroke="#2653ae" stroke-linejoin="round" stroke-width="1"/>
      <path id="Path_27008-2" data-name="Path 27008" d="M0,0V4" transform="translate(231.854 1822.749) rotate(90)" fill="none" stroke="#2653ae" stroke-width="0.5"/>
      <circle id="Ellipse_3166" data-name="Ellipse 3166" cx="2" cy="2" r="2" transform="translate(227.708 1610)" fill="#2653ae"/>
    </g>
    <g id="Group_37779" data-name="Group 37779" transform="translate(16597 14438.797) rotate(90)">
      <path id="Path_27007-3" data-name="Path 27007" d="M-9890,20567l.111-55.965h46.268" transform="translate(10120 -18846)" fill="none" stroke="#2653ae" stroke-linejoin="round" stroke-width="1"/>
      <path id="Path_27008-3" data-name="Path 27008" d="M0,0V4" transform="translate(232 1721) rotate(90)" fill="none" stroke="#2653ae" stroke-width="0.5"/>
      <circle id="Ellipse_3166-2" data-name="Ellipse 3166" cx="2" cy="2" r="2" transform="translate(273.704 1663)" fill="#2653ae"/>
    </g>
    <text id="Color:_14142B" data-name="Color:  #14142B" transform="translate(14319 14969)" fill="#489ef9" font-size="16" font-family="HCLTech Roobert" font-weight="600"><tspan x="0" y="0" xml:space="preserve">Color:  #14142B</tspan></text>
  </g>
</svg>
