<svg xmlns="http://www.w3.org/2000/svg" xmlns:xlink="http://www.w3.org/1999/xlink" width="448" height="506" viewBox="0 0 448 506">
  <defs>
    <filter id="Rectangle_18976" x="0" y="230" width="327" height="246" filterUnits="userSpaceOnUse">
      <feOffset dy="3" input="SourceAlpha"/>
      <feGaussianBlur stdDeviation="3" result="blur"/>
      <feFlood flood-opacity="0.161"/>
      <feComposite operator="in" in2="blur"/>
      <feComposite in="SourceGraphic"/>
    </filter>
    <filter id="Ellipse_3223" x="290" y="436" width="56" height="56" filterUnits="userSpaceOnUse">
      <feOffset input="SourceAlpha"/>
      <feGaussianBlur stdDeviation="3" result="blur-2"/>
      <feFlood flood-opacity="0.302"/>
      <feComposite operator="in" in2="blur-2"/>
      <feComposite in="SourceGraphic"/>
    </filter>
  </defs>
  <g id="Group_166212" data-name="Group 166212" transform="translate(-304 -3089)">
    <g id="Small-card-button-image" transform="translate(313 3125)">
      <g id="Group_39697" data-name="Group 39697">
        <g id="Group_39696" data-name="Group 39696">
          <g transform="matrix(1, 0, 0, 1, -9, -36)" filter="url(#Rectangle_18976)">
            <path id="Rectangle_18976-2" data-name="Rectangle 18976" d="M0,0H309a0,0,0,0,1,0,0V220a8,8,0,0,1-8,8H8a8,8,0,0,1-8-8V0A0,0,0,0,1,0,0Z" transform="translate(9 236)" fill="#fff"/>
          </g>
          <g id="Group_38865" data-name="Group 38865">
            <g id="Group_39695" data-name="Group 39695" transform="translate(0 153)">
              <g id="Small_Button" data-name="Small Button" transform="translate(128 193)">
                <rect id="base" width="109" height="34" rx="4" fill="#5f1ebe"/>
                <text id="Main_CTA" data-name="Main CTA" transform="translate(24 22)" fill="#fff" font-size="14" font-family="HCLTech Roobert" font-weight="600"><tspan x="0" y="0">Main CTA</tspan></text>
              </g>
              <g id="Small_Button-2" data-name="Small Button" transform="translate(24 193)">
                <g id="Primary" fill="none" stroke="#6c7882" stroke-width="1">
                  <rect width="88" height="34" rx="4" stroke="none"/>
                  <rect x="0.5" y="0.5" width="87" height="33" rx="3.5" fill="none"/>
                </g>
                <text id="Optional" transform="translate(16 22)" font-size="14" font-family="HCLTech Roobert" font-weight="600"><tspan x="0" y="0">Optional</tspan></text>
              </g>
            </g>
            <text id="Lorem_ipsum_dolor_sit_amet_consetetur_sadipscing_elitr_" data-name="Lorem ipsum dolor sit amet, consetetur sadipscing elitr, " transform="translate(24 275)" font-size="14" font-family="HCLTechRoobert-Medium, HCLTech Roobert" font-weight="500"><tspan x="0" y="14">Lorem ipsum dolor sit amet, consetetur </tspan><tspan x="0" y="35">sadipscing elitr, </tspan></text>
            <text id="Card_Tittle" data-name="Card Tittle" transform="translate(24 224)" font-size="28" font-family="HCLTechRoobert-Bold, HCLTech Roobert" font-weight="700"><tspan x="0" y="28">Card Tittle</tspan></text>
          </g>
        </g>
        <path id="Rectangle_18975" data-name="Rectangle 18975" d="M8,0H301a8,8,0,0,1,8,8V200a0,0,0,0,1,0,0H0a0,0,0,0,1,0,0V8A8,8,0,0,1,8,0Z" fill="#b9c3d0"/>
      </g>
    </g>
    <text id="Border_radius:_8px" data-name="Border radius: 8px" transform="translate(575 3587)" fill="#489ef9" font-size="16" font-family="HCLTech Roobert" font-weight="600"><tspan x="-65" y="0">Border radius: 8px</tspan></text>
    <rect id="Rectangle_19560" data-name="Rectangle 19560" width="32" height="331" transform="translate(635 3439) rotate(90)" fill="#0157dc" opacity="0.07" style="mix-blend-mode: multiply;isolation: isolate"/>
    <rect id="Rectangle_19561" data-name="Rectangle 19561" width="24" height="331" transform="translate(635 3324) rotate(90)" fill="#0157dc" opacity="0.07" style="mix-blend-mode: multiply;isolation: isolate"/>
    <rect id="Rectangle_19562" data-name="Rectangle 19562" width="16" height="331" transform="translate(635 3384) rotate(90)" fill="#0157dc" opacity="0.07" style="mix-blend-mode: multiply;isolation: isolate"/>
    <rect id="Rectangle_19576" data-name="Rectangle 19576" width="24" height="415" transform="translate(337 3534) rotate(180)" fill="#0157dc" opacity="0.07" style="mix-blend-mode: multiply;isolation: isolate"/>
    <rect id="Rectangle_19577" data-name="Rectangle 19577" width="24" height="447" transform="translate(622 3566) rotate(180)" fill="#0157dc" opacity="0.07" style="mix-blend-mode: multiply;isolation: isolate"/>
    <rect id="Rectangle_20127" data-name="Rectangle 20127" width="16" height="108" transform="translate(439 3566) rotate(180)" fill="#0157dc" opacity="0.07" style="mix-blend-mode: multiply;isolation: isolate"/>
    <g transform="matrix(1, 0, 0, 1, 304, 3089)" filter="url(#Ellipse_3223)">
      <ellipse id="Ellipse_3223-2" data-name="Ellipse 3223" cx="19" cy="19" rx="19" ry="19" transform="translate(299 445)" fill="#fff" opacity="0.406"/>
    </g>
    <text id="_24px" data-name="24px" transform="translate(665 3343)" fill="#489ef9" font-size="16" font-family="HCLTech Roobert" font-weight="600"><tspan x="-18" y="0">24px</tspan></text>
    <text id="_16px" data-name="16px" transform="translate(663 3394)" fill="#489ef9" font-size="16" font-family="HCLTech Roobert" font-weight="600"><tspan x="-16" y="0">16px</tspan></text>
    <text id="_24px-2" data-name="24px" transform="translate(325 3105)" fill="#489ef9" font-size="16" font-family="HCLTech Roobert" font-weight="600"><tspan x="-18" y="0">24px</tspan></text>
    <text id="_24px-3" data-name="24px" transform="translate(610 3105)" fill="#489ef9" font-size="16" font-family="HCLTech Roobert" font-weight="600"><tspan x="-18" y="0">24px</tspan></text>
    <text id="_16px-2" data-name="16px" transform="translate(432 3591)" fill="#489ef9" font-size="16" font-family="HCLTech Roobert" font-weight="600"><tspan x="-16" y="0">16px</tspan></text>
    <text id="_16px-3" data-name="16px" transform="translate(663 3467)" fill="#489ef9" font-size="16" font-family="HCLTech Roobert" font-weight="600"><tspan x="-16" y="0">16px</tspan></text>
    <path id="Path_36547" data-name="Path 36547" d="M-9715,20454.064h24" transform="translate(21097.064 13039.5) rotate(90)" fill="none" stroke="#3c91ff" stroke-width="1"/>
    <path id="Path_36548" data-name="Path 36548" d="M-9715,20454.064h16" transform="translate(21097.064 13099.5) rotate(90)" fill="none" stroke="#3c91ff" stroke-width="1"/>
    <path id="Path_36554" data-name="Path 36554" d="M-9715,20454.064h23.5" transform="translate(10028.5 -17341.063)" fill="none" stroke="#3c91ff" stroke-width="1"/>
    <path id="Path_36555" data-name="Path 36555" d="M-9715,20454.064h23.5" transform="translate(10313.5 -17341.063)" fill="none" stroke="#3c91ff" stroke-width="1"/>
    <path id="Path_36570" data-name="Path 36570" d="M-9715,20454.064h16" transform="translate(10138.5 -16883.563)" fill="none" stroke="#3c91ff" stroke-width="1"/>
    <path id="Path_36571" data-name="Path 36571" d="M-9715,20454.064h30" transform="translate(21097.064 13154) rotate(90)" fill="none" stroke="#3c91ff" stroke-width="1"/>
    <text id="Image_size:_309px_200px" data-name="Image size: 309px * 200px" transform="translate(363 3306)" fill="#489ef9" font-size="16" font-family="HCLTech Roobert" font-weight="600"><tspan x="0" y="0">Image size: 309px * 200px</tspan></text>
    <text id="Tittle:_18px" data-name="Tittle: 18px" transform="translate(673 3374)" fill="#489ef9" font-size="16" font-family="HCLTech Roobert" font-weight="600"><tspan x="0" y="0">Tittle: 18px</tspan></text>
    <g id="Group_37548" data-name="Group 37548" transform="translate(646 3366)">
      <path id="Path_26889" data-name="Path 26889" d="M-9866.725,20511.033h-23.16" transform="translate(9892.971 -20508.533)" fill="none" stroke="#2653ae" stroke-linejoin="round" stroke-width="1"/>
      <path id="Path_26890" data-name="Path 26890" d="M0,5V0" transform="translate(26.36)" fill="none" stroke="#2653ae" stroke-width="0.5"/>
      <circle id="Ellipse_3153" data-name="Ellipse 3153" cx="2.5" cy="2.5" r="2.5" fill="#2653ae"/>
    </g>
  </g>
</svg>
