<svg xmlns="http://www.w3.org/2000/svg" xmlns:xlink="http://www.w3.org/1999/xlink" width="327" height="440" viewBox="0 0 327 440">
  <defs>
    <filter id="Rectangle_18976" x="0" y="194" width="327" height="246" filterUnits="userSpaceOnUse">
      <feOffset dy="3" input="SourceAlpha"/>
      <feGaussianBlur stdDeviation="3" result="blur"/>
      <feFlood flood-opacity="0.161"/>
      <feComposite operator="in" in2="blur"/>
      <feComposite in="SourceGraphic"/>
    </filter>
  </defs>
  <g id="Small-card-button-image" transform="translate(9)">
    <g id="Group_39697" data-name="Group 39697">
      <g id="Group_39696" data-name="Group 39696">
        <g transform="matrix(1, 0, 0, 1, -9, 0)" filter="url(#Rectangle_18976)">
          <path id="Rectangle_18976-2" data-name="Rectangle 18976" d="M0,0H309a0,0,0,0,1,0,0V220a8,8,0,0,1-8,8H8a8,8,0,0,1-8-8V0A0,0,0,0,1,0,0Z" transform="translate(9 200)" fill="#fff"/>
        </g>
        <g id="Group_38865" data-name="Group 38865">
          <g id="Group_39695" data-name="Group 39695" transform="translate(0 153)">
            <g id="Small_Button" data-name="Small Button" transform="translate(128 193)">
              <rect id="base" width="109" height="34" rx="4" fill="#5f1ebe"/>
              <text id="Main_CTA" data-name="Main CTA" transform="translate(24 22)" fill="#fff" font-size="14" font-family="HCLTech Roobert" font-weight="600"><tspan x="0" y="0">Main CTA</tspan></text>
            </g>
            <g id="Small_Button-2" data-name="Small Button" transform="translate(24 193)">
              <g id="Primary" fill="none" stroke="#6c7882" stroke-width="1">
                <rect width="88" height="34" rx="4" stroke="none"/>
                <rect x="0.5" y="0.5" width="87" height="33" rx="3.5" fill="none"/>
              </g>
              <text id="Optional" transform="translate(16 22)" font-size="14" font-family="HCLTech Roobert" font-weight="600"><tspan x="0" y="0">Optional</tspan></text>
            </g>
          </g>
          <text id="Lorem_ipsum_dolor_sit_amet_consetetur_sadipscing_elitr_" data-name="Lorem ipsum dolor sit amet, consetetur sadipscing elitr, " transform="translate(24 275)" font-size="14" font-family="HCLTechRoobert-Medium, HCLTech Roobert" font-weight="500"><tspan x="0" y="14">Lorem ipsum dolor sit amet, consetetur </tspan><tspan x="0" y="35">sadipscing elitr, </tspan></text>
          <text id="Card_Tittle" data-name="Card Tittle" transform="translate(24 224)" font-size="28" font-family="HCLTechRoobert-Bold, HCLTech Roobert" font-weight="700"><tspan x="0" y="28">Card Tittle</tspan></text>
        </g>
      </g>
      <path id="Rectangle_18975" data-name="Rectangle 18975" d="M8,0H301a8,8,0,0,1,8,8V200a0,0,0,0,1,0,0H0a0,0,0,0,1,0,0V8A8,8,0,0,1,8,0Z" fill="#b9c3d0"/>
    </g>
  </g>
</svg>
