<svg xmlns="http://www.w3.org/2000/svg" width="482" height="116" viewBox="0 0 482 116">
  <g id="Group_38044" data-name="Group 38044" transform="translate(-304 -1524)">
    <g id="Group_37573" data-name="Group 37573" transform="translate(113 929)">
      <g id="Pagination_Left_Default" data-name="Pagination/Left/Default" transform="translate(199 634)">
        <g id="InputGroup_Base_Outline_Left" data-name="InputGroup/Base/Outline/Left" fill="#fff" stroke="#c8d2dd" stroke-width="1">
          <path d="M4,0H98a0,0,0,0,1,0,0V40a0,0,0,0,1,0,0H4a4,4,0,0,1-4-4V4A4,4,0,0,1,4,0Z" stroke="none"/>
          <path d="M4,.5H97a.5.5,0,0,1,.5.5V39a.5.5,0,0,1-.5.5H4A3.5,3.5,0,0,1,.5,36V4A3.5,3.5,0,0,1,4,.5Z" fill="none"/>
        </g>
        <text id="Previous" transform="translate(18 26)" font-size="16" font-family="HCLTech Roobert" font-weight="500"><tspan x="0" y="0">Previous</tspan></text>
      </g>
      <g id="Pagination_Right_Default" data-name="Pagination/Right/Default" transform="translate(432 634)">
        <g id="InputGroup_Base_Outline_Left-2" data-name="InputGroup/Base/Outline/Left" fill="#fff" stroke="#c8d2dd" stroke-width="1">
          <path d="M0,0H58a4,4,0,0,1,4,4V36a4,4,0,0,1-4,4H0a0,0,0,0,1,0,0V0A0,0,0,0,1,0,0Z" stroke="none"/>
          <path d="M1,.5H58A3.5,3.5,0,0,1,61.5,4V36A3.5,3.5,0,0,1,58,39.5H1A.5.5,0,0,1,.5,39V1A.5.5,0,0,1,1,.5Z" fill="none"/>
        </g>
        <text id="Next" transform="translate(14 26)" fill="#007bff" font-size="16" font-family="HCLTech Roobert" font-weight="500"><tspan x="0" y="0">Next</tspan></text>
      </g>
      <g id="Pagination_Center_Default" data-name="Pagination/Center/Default" transform="translate(297 634)">
        <rect id="InputGroup_Base_Outline_Left-3" data-name="InputGroup/Base/Outline/Left" width="45" height="40" fill="#007bff"/>
        <text id="_1" data-name="1" transform="translate(20 26)" fill="#fff" font-size="16" font-family="HCLTech Roobert" font-weight="500"><tspan x="0" y="0">1</tspan></text>
      </g>
      <g id="Pagination_Center_Default-2" data-name="Pagination/Center/Default" transform="translate(342 634)">
        <g id="InputGroup_Base_Outline_Left-4" data-name="InputGroup/Base/Outline/Left" fill="#fff" stroke="#c8d2dd" stroke-width="1">
          <rect width="45" height="40" stroke="none"/>
          <rect x="0.5" y="0.5" width="44" height="39" fill="none"/>
        </g>
        <text id="_2" data-name="2" transform="translate(18 26)" fill="#007bff" font-size="16" font-family="HCLTech Roobert" font-weight="500"><tspan x="0" y="0">2</tspan></text>
      </g>
      <g id="Pagination_Center_Default-3" data-name="Pagination/Center/Default" transform="translate(387 634)">
        <g id="InputGroup_Base_Outline_Left-5" data-name="InputGroup/Base/Outline/Left" fill="#fff" stroke="#c8d2dd" stroke-width="1">
          <rect width="45" height="40" stroke="none"/>
          <rect x="0.5" y="0.5" width="44" height="39" fill="none"/>
        </g>
        <text id="_3" data-name="3" transform="translate(18 26)" fill="#007bff" font-size="16" font-family="HCLTech Roobert" font-weight="500"><tspan x="0" y="0">3</tspan></text>
      </g>
      <rect id="Rectangle_19631" data-name="Rectangle 19631" width="18" height="64" transform="translate(199 623)" fill="#0157dc" opacity="0.16" style="mix-blend-mode: multiply;isolation: isolate"/>
      <rect id="Rectangle_19632" data-name="Rectangle 19632" width="10" height="320" transform="translate(192 644) rotate(-90)" fill="#0157dc" opacity="0.16" style="mix-blend-mode: multiply;isolation: isolate"/>
      <rect id="Rectangle_19633" data-name="Rectangle 19633" width="10" height="320" transform="translate(192 674) rotate(-90)" fill="#0157dc" opacity="0.16" style="mix-blend-mode: multiply;isolation: isolate"/>
      <rect id="Rectangle_19634" data-name="Rectangle 19634" width="18" height="64" transform="translate(279 623)" fill="#0157dc" opacity="0.16" style="mix-blend-mode: multiply;isolation: isolate"/>
      <rect id="Rectangle_19635" data-name="Rectangle 19635" width="18" height="64" transform="translate(387 623)" fill="#0157dc" opacity="0.16" style="mix-blend-mode: multiply;isolation: isolate"/>
      <rect id="Rectangle_19636" data-name="Rectangle 19636" width="18" height="64" transform="translate(414 623)" fill="#0157dc" opacity="0.16" style="mix-blend-mode: multiply;isolation: isolate"/>
      <text id="_18px" data-name="18px" transform="translate(208 611)" fill="#489ef9" font-size="16" font-family="HCLTech Roobert" font-weight="600"><tspan x="-16" y="0">18px</tspan></text>
      <text id="_18px-2" data-name="18px" transform="translate(288 707)" fill="#489ef9" font-size="16" font-family="HCLTech Roobert" font-weight="600"><tspan x="-16" y="0">18px</tspan></text>
      <text id="_18px-3" data-name="18px" transform="translate(396 707)" fill="#489ef9" font-size="16" font-family="HCLTech Roobert" font-weight="600"><tspan x="-16" y="0">18px</tspan></text>
      <text id="_45px" data-name="45px" transform="translate(317 618)" fill="#489ef9" font-size="16" font-family="HCLTech Roobert" font-weight="600"><tspan x="-18" y="0">45px</tspan></text>
      <text id="_18px-4" data-name="18px" transform="translate(423 611)" fill="#489ef9" font-size="16" font-family="HCLTech Roobert" font-weight="600"><tspan x="-16" y="0">18px</tspan></text>
      <text id="_10px" data-name="10px" transform="translate(537 644)" fill="#489ef9" font-size="16" font-family="HCLTech Roobert" font-weight="600"><tspan x="-16" y="0">10px</tspan></text>
      <text id="_10px-2" data-name="10px" transform="translate(537 674)" fill="#489ef9" font-size="16" font-family="HCLTech Roobert" font-weight="600"><tspan x="-16" y="0">10px</tspan></text>
      <path id="Path_36607" data-name="Path 36607" d="M-9715,20454.064h18" transform="translate(9914 -19834.564)" fill="none" stroke="#3c91ff" stroke-width="1"/>
      <path id="Path_36608" data-name="Path 36608" d="M-9715,20454.064h18" transform="translate(9994.001 -19763.064)" fill="none" stroke="#3c91ff" stroke-width="1"/>
      <path id="Path_36609" data-name="Path 36609" d="M-9715,20454.064h18" transform="translate(10102.001 -19763.064)" fill="none" stroke="#3c91ff" stroke-width="1"/>
      <path id="Path_36610" data-name="Path 36610" d="M-9715,20454.064h45" transform="translate(10012.001 -19826.064)" fill="none" stroke="#3c91ff" stroke-width="1"/>
      <path id="Path_36611" data-name="Path 36611" d="M-9715,20454.064h18" transform="translate(10129.001 -19834.564)" fill="none" stroke="#3c91ff" stroke-width="1"/>
      <path id="Path_36612" data-name="Path 36612" d="M-9715,20454.064h10" transform="translate(20970.064 10349) rotate(90)" fill="none" stroke="#3c91ff" stroke-width="1"/>
      <path id="Path_36613" data-name="Path 36613" d="M-9715,20454.064h10" transform="translate(20970.064 10379) rotate(90)" fill="none" stroke="#3c91ff" stroke-width="1"/>
    </g>
    <text id="Label:_16px" data-name="Label: 16px" transform="translate(705 1588)" fill="#489ef9" font-size="16" font-family="HCLTech Roobert" font-weight="600"><tspan x="0" y="0">Label: 16px</tspan></text>
    <g id="Group_37584" data-name="Group 37584" transform="translate(646 1582) rotate(90)">
      <path id="Path_26889" data-name="Path 26889" d="M0,0,.033,110.391" transform="translate(2 -54.426)" fill="none" stroke="#2653ae" stroke-linejoin="round" stroke-width="1"/>
      <path id="Path_26890" data-name="Path 26890" d="M.25,4h-.5V0h.5Z" transform="translate(0 -54.426) rotate(-90)" fill="#2653ae"/>
      <circle id="Ellipse_3153" data-name="Ellipse 3153" cx="2" cy="2" r="2" transform="translate(0 54)" fill="#2653ae"/>
    </g>
  </g>
</svg>
